SplineFontDB: 3.0
FontName: TitilliumWeb-SemiBoldItalic
FullName: Titillium WebSemiBold Italic
FamilyName: Titillium Web
Weight: Demi
Copyright: Copyright (c) 2009-2011 by Accademia di Belle Arti di Urbino and students of MA course of Visual design. Some rights reserved.
Version: 1.001;PS 57.000;hotconv 1.0.70;makeotf.lib2.5.55311
ItalicAngle: -13
UnderlinePosition: -70
UnderlineWidth: 30
Ascent: 800
Descent: 200
sfntRevision: 0x00010000
LayerCount: 2
Layer: 0 1 "Back"  1
Layer: 1 1 "Fore"  0
XUID: [1021 1020 248959781 1619288]
FSType: 8
OS2Version: 3
OS2_WeightWidthSlopeOnly: 0
OS2_UseTypoMetrics: 1
CreationTime: 1349090881
ModificationTime: 1349108893
PfmFamily: 81
TTFWeight: 600
TTFWidth: 5
LineGap: 0
VLineGap: 0
Panose: 0 0 7 0 0 0 0 0 0 0
OS2TypoAscent: 1133
OS2TypoAOffset: 0
OS2TypoDescent: -388
OS2TypoDOffset: 0
OS2TypoLinegap: 0
OS2WinAscent: 1133
OS2WinAOffset: 0
OS2WinDescent: 388
OS2WinDOffset: 0
HheadAscent: 1133
HheadAOffset: 0
HheadDescent: -388
HheadDOffset: 0
OS2SubXSize: 650
OS2SubYSize: 600
OS2SubXOff: -17
OS2SubYOff: 75
OS2SupXSize: 650
OS2SupYSize: 600
OS2SupXOff: 81
OS2SupYOff: 350
OS2StrikeYSize: 30
OS2StrikeYPos: 299
OS2Vendor: 'UKWN'
OS2CodePages: 20000093.00000000
OS2UnicodeRanges: 00000007.00000001.00000000.00000000
Lookup: 1 0 0 "'locl' Localized Forms in Latin lookup 0"  {"'locl' Localized Forms in Latin lookup 0 subtable"  } ['locl' ('DFLT' <'dflt' > 'latn' <'dflt' > ) ]
Lookup: 1 0 0 "'frac' Diagonal Fractions in Latin lookup 1"  {"'frac' Diagonal Fractions in Latin lookup 1 subtable"  } ['frac' ('DFLT' <'dflt' > 'latn' <'dflt' > ) ]
Lookup: 6 0 0 "'frac' Diagonal Fractions in Latin lookup 2"  {"'frac' Diagonal Fractions in Latin lookup 2 subtable"  } ['frac' ('DFLT' <'dflt' > 'latn' <'dflt' > ) ]
Lookup: 1 0 0 "'frac' Diagonal Fractions in Latin lookup 3"  {"'frac' Diagonal Fractions in Latin lookup 3 subtable"  } ['frac' ('DFLT' <'dflt' > 'latn' <'dflt' > ) ]

StartChar: exclam
Encoding: 33 33 4
Width: 174
GlyphClass: 2
Flags: W
LayerCount: 2
Fore
SplineSet
92 246 m 1,0,-1
 192 700 l 1,1,-1
 306 700 l 1,2,-1
 193 246 l 1,3,-1
 92 246 l 1,0,-1
33 0 m 1,4,-1
 64 135 l 1,5,-1
 174 135 l 1,6,-1
 143 0 l 1,7,-1
 33 0 l 1,4,-1
EndSplineSet
EndChar

StartChar: quotedbl
Encoding: 34 34 5
Width: 309
GlyphClass: 2
Flags: W
LayerCount: 2
Fore
SplineSet
346 450 m 1,0,-1
 164 450 l 1,1,-1
 220 691 l 1,2,-1
 409 691 l 1,3,-1
 346 450 l 1,0,-1
EndSplineSet
EndChar

StartChar: numbersign
Encoding: 35 35 6
Width: 560
GlyphClass: 2
Flags: W
LayerCount: 2
Fore
SplineSet
577 171 m 1,0,-1
 475 171 l 1,1,-1
 432 0 l 1,2,-1
 337 0 l 1,3,-1
 379 171 l 1,4,-1
 254 171 l 1,5,-1
 211 0 l 1,6,-1
 116 0 l 1,7,-1
 158 171 l 1,8,-1
 56 171 l 1,9,-1
 79 263 l 1,10,-1
 181 263 l 1,11,-1
 215 400 l 1,12,-1
 113 400 l 1,13,-1
 136 491 l 1,14,-1
 238 491 l 1,15,-1
 281 663 l 1,16,-1
 376 663 l 1,17,-1
 333 491 l 1,18,-1
 459 491 l 1,19,-1
 502 663 l 1,20,-1
 597 663 l 1,21,-1
 554 491 l 1,22,-1
 656 491 l 1,23,-1
 634 400 l 1,24,-1
 531 400 l 1,25,-1
 497 263 l 1,26,-1
 600 263 l 1,27,-1
 577 171 l 1,0,-1
402 263 m 1,28,-1
 436 400 l 1,29,-1
 310 400 l 1,30,-1
 276 263 l 1,31,-1
 402 263 l 1,28,-1
EndSplineSet
EndChar

StartChar: dollar
Encoding: 36 36 7
Width: 560
GlyphClass: 2
Flags: W
LayerCount: 2
Fore
SplineSet
533 218 m 0,0,1
 533 109 533 109 467 49 c 128,-1,2
 401 -11 401 -11 288 -11 c 0,3,4
 274 -11 274 -11 248 -9 c 1,5,-1
 202 -119 l 1,6,-1
 131 -119 l 1,7,-1
 181 0 l 1,8,-1
 91 23 l 1,9,-1
 109 101 l 1,10,11
 163 92 163 92 218 87 c 1,12,-1
 309 302 l 1,13,14
 244 330 244 330 216 364 c 128,-1,15
 188 398 188 398 188 459 c 0,16,17
 188 554 188 554 249.5 613 c 128,-1,18
 311 672 311 672 415 672 c 0,19,20
 440 672 440 672 465 669 c 1,21,-1
 510 776 l 1,22,-1
 583 776 l 1,23,-1
 533 659 l 1,24,-1
 608 640 l 1,25,-1
 588 563 l 1,26,27
 545 570 545 570 498 575 c 1,28,-1
 412 375 l 1,29,30
 482 344 482 344 507.5 311.5 c 128,-1,31
 533 279 533 279 533 218 c 0,0,1
423 206 m 0,32,33
 423 232 423 232 412.5 246.5 c 128,-1,34
 402 261 402 261 370 276 c 1,35,-1
 288 83 l 1,36,-1
 289 83 l 2,37,38
 423 83 423 83 423 206 c 0,32,33
297 470 m 0,39,40
 297 444 297 444 308 429.5 c 128,-1,41
 319 415 319 415 351 400 c 1,42,-1
 427 581 l 1,43,-1
 416 581 l 2,44,45
 360 581 360 581 328.5 551.5 c 128,-1,46
 297 522 297 522 297 470 c 0,39,40
EndSplineSet
EndChar

StartChar: percent
Encoding: 37 37 8
Width: 560
GlyphClass: 2
Flags: W
LayerCount: 2
Fore
SplineSet
253 483 m 0,0,1
 273 483 273 483 284.5 500.5 c 128,-1,2
 296 518 296 518 305 553.5 c 128,-1,3
 314 589 314 589 314 607 c 0,4,5
 314 634 314 634 291 634 c 0,6,7
 272 634 272 634 260 616.5 c 128,-1,8
 248 599 248 599 239 564.5 c 128,-1,9
 230 530 230 530 230 512 c 0,10,11
 230 483 230 483 253 483 c 0,0,1
128 6 m 1,12,-1
 524 715 l 1,13,-1
 591 692 l 1,14,-1
 195 -17 l 1,15,-1
 128 6 l 1,12,-1
156 559 m 0,16,17
 191 701 191 701 308 701 c 0,18,19
 396 701 396 701 396 618 c 0,20,21
 396 592 396 592 388 559 c 0,22,23
 352 415 352 415 237 415 c 0,24,25
 181 415 181 415 160 451 c 0,26,27
 148 471 148 471 148 498.5 c 128,-1,28
 148 526 148 526 156 559 c 0,16,17
415 0 m 0,30,31
 327 0 327 0 327 85 c 0,32,33
 327 111 327 111 335 144 c 0,34,35
 370 286 370 286 486 286 c 0,36,37
 574 286 574 286 574 203 c 0,38,39
 574 177 574 177 566 144 c 0,40,29
 530 0 530 0 415 0 c 0,30,31
492 192 m 0,41,42
 492 219 492 219 469 219 c 0,43,44
 450 219 450 219 438 201.5 c 128,-1,45
 426 184 426 184 417 148.5 c 128,-1,46
 408 113 408 113 408 95 c 0,47,48
 408 68 408 68 431 68 c 0,49,50
 450 68 450 68 462 86 c 128,-1,51
 474 104 474 104 483 139 c 128,-1,52
 492 174 492 174 492 192 c 0,41,42
EndSplineSet
EndChar

StartChar: ampersand
Encoding: 38 38 9
Width: 638
GlyphClass: 2
Flags: W
LayerCount: 2
Fore
SplineSet
435 696 m 0,0,1
 597 696 597 696 597 558 c 0,2,3
 597 485 597 485 555.5 439 c 128,-1,4
 514 393 514 393 412 353 c 1,5,-1
 503 229 l 1,6,7
 517 249 517 249 533.5 288 c 128,-1,8
 550 327 550 327 557 356 c 1,9,-1
 658 356 l 1,10,11
 646 310 646 310 616 251 c 128,-1,12
 586 192 586 192 560 158 c 1,13,-1
 646 54 l 1,14,-1
 571 -11 l 1,15,-1
 492 90 l 1,16,17
 396 -11 396 -11 267 -11 c 0,18,19
 158 -11 158 -11 113 33.5 c 128,-1,20
 68 78 68 78 68 163.5 c 128,-1,21
 68 249 68 249 116.5 307 c 128,-1,22
 165 365 165 365 268 405 c 1,23,24
 240 456 240 456 240 508 c 0,25,26
 240 601 240 601 293.5 648.5 c 128,-1,27
 347 696 347 696 435 696 c 0,0,1
287 82 m 0,28,29
 327 82 327 82 369.5 103.5 c 128,-1,30
 412 125 412 125 438 157 c 1,31,-1
 308 340 l 1,32,33
 237 310 237 310 209 268.5 c 128,-1,34
 181 227 181 227 181 169 c 0,35,36
 181 82 181 82 287 82 c 0,28,29
370.5 577.5 m 128,-1,38
 349 550 349 550 349 499.5 c 128,-1,39
 349 449 349 449 373 414 c 1,40,41
 440 445 440 445 464 474.5 c 128,-1,42
 488 504 488 504 488 549 c 0,43,44
 488 605 488 605 433 605 c 0,45,37
 392 605 392 605 370.5 577.5 c 128,-1,38
EndSplineSet
EndChar

StartChar: quotesingle
Encoding: 39 39 10
Width: 148
GlyphClass: 2
Flags: W
LayerCount: 2
Fore
SplineSet
222 450 m 1,0,-1
 128 450 l 1,1,-1
 184 691 l 1,2,-1
 285 691 l 1,3,-1
 222 450 l 1,0,-1
EndSplineSet
EndChar

StartChar: parenleft
Encoding: 40 40 11
Width: 231
GlyphClass: 2
Flags: W
LayerCount: 2
Fore
SplineSet
201 302 m 128,-1,1
 177 206 177 206 177 134 c 0,2,3
 177 -1 177 -1 189 -92 c 2,4,-1
 193 -123 l 1,5,-1
 90 -123 l 1,6,7
 64 -31 64 -31 64 124 c 0,8,9
 64 214 64 214 88 311 c 128,-1,10
 112 408 112 408 146 483 c 0,11,12
 217 639 217 639 272 715 c 2,13,-1
 296 748 l 1,14,-1
 397 748 l 1,15,16
 370 708 370 708 326.5 624.5 c 128,-1,17
 283 541 283 541 254 469.5 c 128,-1,0
 225 398 225 398 201 302 c 128,-1,1
EndSplineSet
Substitution2: "'case' Case-Sensitive Forms in Latin lookup 4 subtable" parenleft.cap
EndChar

StartChar: parenright
Encoding: 41 41 12
Width: 232
GlyphClass: 2
Flags: W
LayerCount: 2
Fore
SplineSet
176 328 m 128,-1,1
 200 424 200 424 200 496 c 0,2,3
 200 631 200 631 188 722 c 2,4,-1
 184 753 l 1,5,-1
 287 753 l 1,6,7
 313 661 313 661 313 506 c 0,8,9
 313 416 313 416 289 319 c 128,-1,10
 265 222 265 222 231 147 c 0,11,12
 160 -9 160 -9 105 -85 c 2,13,-1
 81 -118 l 1,14,-1
 -20 -118 l 1,15,16
 7 -78 7 -78 50.5 5.5 c 128,-1,17
 94 89 94 89 123 160.5 c 128,-1,0
 152 232 152 232 176 328 c 128,-1,1
EndSplineSet
Substitution2: "'case' Case-Sensitive Forms in Latin lookup 4 subtable" parenright.cap
EndChar

StartChar: asterisk
Encoding: 42 42 13
Width: 419
GlyphClass: 2
Flags: W
LayerCount: 2
Fore
SplineSet
503 504 m 1,0,-1
 376 504 l 1,1,-1
 415 382 l 1,2,-1
 353 363 l 1,3,-1
 312 486 l 1,4,-1
 207 407 l 1,5,-1
 167 458 l 1,6,-1
 273 537 l 1,7,-1
 170 611 l 1,8,-1
 209 665 l 1,9,-1
 312 590 l 1,10,-1
 352 713 l 1,11,-1
 416 692 l 1,12,-1
 377 568 l 1,13,-1
 503 568 l 1,14,-1
 503 504 l 1,0,-1
EndSplineSet
EndChar

StartChar: plus
Encoding: 43 43 14
Width: 560
GlyphClass: 2
Flags: W
LayerCount: 2
Fore
SplineSet
110 202 m 1,0,-1
 110 300 l 1,1,-1
 287 300 l 1,2,-1
 287 479 l 1,3,-1
 385 479 l 1,4,-1
 385 300 l 1,5,-1
 565 300 l 1,6,-1
 565 202 l 1,7,-1
 385 202 l 1,8,-1
 385 21 l 1,9,-1
 287 21 l 1,10,-1
 287 202 l 1,11,-1
 110 202 l 1,0,-1
EndSplineSet
EndChar

StartChar: comma
Encoding: 44 44 15
Width: 179
GlyphClass: 2
Flags: W
LayerCount: 2
Fore
SplineSet
54 -130 m 1,0,-1
 -35 -130 l 1,1,-1
 74 135 l 1,2,-1
 193 135 l 1,3,-1
 54 -130 l 1,0,-1
EndSplineSet
EndChar

StartChar: hyphen
Encoding: 45 45 16
Width: 297
GlyphClass: 2
Flags: W
LayerCount: 2
Fore
SplineSet
72 217 m 1,0,-1
 97 315 l 1,1,-1
 347 315 l 1,2,-1
 323 217 l 1,3,-1
 72 217 l 1,0,-1
EndSplineSet
EndChar

StartChar: period
Encoding: 46 46 17
Width: 159
GlyphClass: 2
Flags: W
LayerCount: 2
Fore
SplineSet
25 0 m 1,0,-1
 55 135 l 1,1,-1
 165 135 l 1,2,-1
 135 0 l 1,3,-1
 25 0 l 1,0,-1
EndSplineSet
EndChar

StartChar: slash
Encoding: 47 47 18
Width: 447
GlyphClass: 2
Flags: W
LayerCount: 2
Fore
SplineSet
141 -18 m 1,0,-1
 39 18 l 1,1,-1
 469 713 l 1,2,-1
 570 677 l 1,3,-1
 141 -18 l 1,0,-1
EndSplineSet
Substitution2: "'frac' Diagonal Fractions in Latin lookup 3 subtable" fraction
EndChar

StartChar: zero
Encoding: 48 48 19
Width: 560
GlyphClass: 2
Flags: W
LayerCount: 2
Fore
SplineSet
405 671 m 0,0,1
 614 671 614 671 614 466 c 128,-1,2
 614 261 614 261 527.5 125 c 128,-1,3
 441 -11 441 -11 306 -11 c 0,4,5
 98 -11 98 -11 98 192 c 0,6,7
 98 325 98 325 136 434 c 128,-1,8
 174 543 174 543 244.5 607 c 128,-1,9
 315 671 315 671 405 671 c 0,0,1
477.5 545.5 m 128,-1,11
 455 576 455 576 400 576 c 128,-1,12
 345 576 345 576 299.5 513.5 c 128,-1,13
 254 451 254 451 233 368.5 c 128,-1,14
 212 286 212 286 212 215 c 128,-1,15
 212 144 212 144 234.5 114.5 c 128,-1,16
 257 85 257 85 311.5 85 c 128,-1,17
 366 85 366 85 411.5 145.5 c 128,-1,18
 457 206 457 206 478.5 288.5 c 128,-1,19
 500 371 500 371 500 443 c 128,-1,10
 500 515 500 515 477.5 545.5 c 128,-1,11
EndSplineSet
Substitution2: "'frac' Diagonal Fractions in Latin lookup 1 subtable" zerosuperior
EndChar

StartChar: one
Encoding: 49 49 20
Width: 560
GlyphClass: 2
Flags: W
LayerCount: 2
Fore
SplineSet
210 520 m 1,0,-1
 458 660 l 1,1,-1
 555 660 l 1,2,-1
 403 0 l 1,3,-1
 292 0 l 1,4,-1
 414 528 l 1,5,-1
 240 432 l 1,6,-1
 210 520 l 1,0,-1
EndSplineSet
Substitution2: "'frac' Diagonal Fractions in Latin lookup 1 subtable" onesuperior
EndChar

StartChar: two
Encoding: 50 50 21
Width: 560
GlyphClass: 2
Flags: W
LayerCount: 2
Fore
SplineSet
446.5 410.5 m 128,-1,1
 487 457 487 457 487 498.5 c 128,-1,2
 487 540 487 540 462 558 c 128,-1,3
 437 576 437 576 391 576 c 0,4,5
 313 576 313 576 235 562 c 1,6,-1
 209 558 l 1,7,-1
 223 640 l 1,8,9
 321 672 321 672 414 672 c 0,10,11
 601 672 601 672 601 522 c 0,12,13
 601 443 601 443 558.5 385 c 128,-1,14
 516 327 516 327 426 257 c 2,15,-1
 218 96 l 1,16,-1
 512 96 l 1,17,-1
 489 0 l 1,18,-1
 65 0 l 1,19,-1
 87 91 l 1,20,-1
 310 282 l 2,21,0
 406 364 406 364 446.5 410.5 c 128,-1,1
EndSplineSet
Substitution2: "'frac' Diagonal Fractions in Latin lookup 1 subtable" twosuperior
EndChar

StartChar: three
Encoding: 51 51 22
Width: 560
GlyphClass: 2
Flags: W
LayerCount: 2
Fore
SplineSet
216 635 m 1,0,1
 308 671 308 671 406.5 671 c 128,-1,2
 505 671 505 671 551 637 c 128,-1,3
 597 603 597 603 597 533 c 128,-1,4
 597 463 597 463 566.5 421 c 128,-1,5
 536 379 536 379 470 349 c 1,6,7
 508 329 508 329 524 301.5 c 128,-1,8
 540 274 540 274 540 221 c 0,9,10
 540 116 540 116 463 52.5 c 128,-1,11
 386 -11 386 -11 263 -11 c 0,12,13
 219 -11 219 -11 169.5 -2.5 c 128,-1,14
 120 6 120 6 92 15 c 2,15,-1
 64 24 l 1,16,-1
 88 102 l 1,17,18
 200 85 200 85 268.5 85 c 128,-1,19
 337 85 337 85 382 120 c 128,-1,20
 427 155 427 155 427 216 c 0,21,22
 427 252 427 252 404 269.5 c 128,-1,23
 381 287 381 287 328 288 c 2,24,-1
 200 289 l 1,25,-1
 221 373 l 1,26,-1
 350 378 l 2,27,28
 395 379 395 379 439 416 c 128,-1,29
 483 453 483 453 483 502 c 0,30,31
 483 576 483 576 383 576 c 0,32,33
 309 576 309 576 231 564 c 2,34,-1
 205 560 l 1,35,-1
 216 635 l 1,0,1
EndSplineSet
Substitution2: "'frac' Diagonal Fractions in Latin lookup 1 subtable" threesuperior
EndChar

StartChar: four
Encoding: 52 52 23
Width: 560
GlyphClass: 2
Flags: W
LayerCount: 2
Fore
SplineSet
338 -4 m 1,0,-1
 366 117 l 1,1,-1
 73 117 l 1,2,-1
 92 199 l 1,3,-1
 385 660 l 1,4,-1
 506 660 l 1,5,-1
 211 210 l 1,6,-1
 387 210 l 1,7,-1
 432 404 l 1,8,-1
 542 404 l 1,9,-1
 497 210 l 1,10,-1
 566 210 l 1,11,-1
 544 117 l 1,12,-1
 476 117 l 1,13,-1
 448 -4 l 1,14,-1
 338 -4 l 1,0,-1
EndSplineSet
Substitution2: "'frac' Diagonal Fractions in Latin lookup 1 subtable" foursuperior
EndChar

StartChar: five
Encoding: 53 53 24
Width: 560
GlyphClass: 2
Flags: W
LayerCount: 2
Fore
SplineSet
385 416 m 0,0,1
 558 416 558 416 558 262 c 0,2,3
 558 144 558 144 481.5 66.5 c 128,-1,4
 405 -11 405 -11 290 -11 c 0,5,6
 241 -11 241 -11 185 -1.5 c 128,-1,7
 129 8 129 8 98 18 c 2,8,-1
 66 28 l 1,9,-1
 91 114 l 1,10,11
 205 85 205 85 277.5 85 c 128,-1,12
 350 85 350 85 397 130.5 c 128,-1,13
 444 176 444 176 444 240 c 0,14,15
 444 320 444 320 351 320 c 0,16,17
 298 320 298 320 242 298 c 1,18,-1
 224 290 l 1,19,-1
 142 308 l 1,20,-1
 250 661 l 1,21,-1
 636 661 l 1,22,-1
 614 565 l 1,23,-1
 317 565 l 1,24,-1
 252 380 l 1,25,26
 332 416 332 416 385 416 c 0,0,1
EndSplineSet
Substitution2: "'frac' Diagonal Fractions in Latin lookup 1 subtable" fivesuperior
EndChar

StartChar: six
Encoding: 54 54 25
Width: 560
GlyphClass: 2
Flags: W
LayerCount: 2
Fore
SplineSet
445 576 m 0,0,1
 307 576 307 576 244 382 c 1,2,3
 329 420 329 420 398 420 c 0,4,5
 577 420 577 420 577 252 c 0,6,7
 577 134 577 134 506.5 61.5 c 128,-1,8
 436 -11 436 -11 308 -11 c 0,9,10
 212 -11 212 -11 158.5 47 c 128,-1,11
 105 105 105 105 105 220 c 0,12,13
 105 294 105 294 129 371.5 c 128,-1,14
 153 449 153 449 197 517 c 128,-1,15
 241 585 241 585 313 628 c 128,-1,16
 385 671 385 671 471 671 c 0,17,18
 534 671 534 671 612 655 c 2,19,-1
 637 650 l 1,20,-1
 603 560 l 1,21,22
 524 576 524 576 445 576 c 0,0,1
463 239 m 0,23,24
 463 324 463 324 374 324 c 0,25,26
 302 324 302 324 246 300 c 1,27,-1
 228 293 l 1,28,29
 219 255 219 255 219 207.5 c 128,-1,30
 219 160 219 160 242.5 122.5 c 128,-1,31
 266 85 266 85 314 85 c 0,32,33
 387 85 387 85 425 126 c 128,-1,34
 463 167 463 167 463 239 c 0,23,24
EndSplineSet
Substitution2: "'frac' Diagonal Fractions in Latin lookup 1 subtable" sixsuperior
EndChar

StartChar: seven
Encoding: 55 55 26
Width: 560
GlyphClass: 2
Flags: W
LayerCount: 2
Fore
SplineSet
205 564 m 1,0,-1
 227 660 l 1,1,-1
 633 660 l 1,2,-1
 599 512 l 1,3,-1
 231 -16 l 1,4,-1
 130 15 l 1,5,-1
 492 525 l 1,6,-1
 500 564 l 1,7,-1
 205 564 l 1,0,-1
EndSplineSet
Substitution2: "'frac' Diagonal Fractions in Latin lookup 1 subtable" sevensuperior
EndChar

StartChar: eight
Encoding: 56 56 27
Width: 560
GlyphClass: 2
Flags: W
LayerCount: 2
Fore
SplineSet
441 672 m 0,0,1
 537 672 537 672 587.5 635 c 128,-1,2
 638 598 638 598 638 539 c 0,3,4
 638 408 638 408 506 342 c 1,5,6
 573 303 573 303 573 215 c 128,-1,7
 573 127 573 127 490.5 57 c 128,-1,8
 408 -13 408 -13 269 -13 c 0,9,10
 65 -13 65 -13 65 145 c 0,11,12
 65 210 65 210 108 260 c 128,-1,13
 151 310 151 310 210 342 c 1,14,15
 175 370 175 370 165 392.5 c 128,-1,16
 155 415 155 415 155 447 c 0,17,18
 155 537 155 537 230.5 604.5 c 128,-1,19
 306 672 306 672 441 672 c 0,0,1
212 103 m 128,-1,21
 238 83 238 83 303 83 c 128,-1,22
 368 83 368 83 412 123.5 c 128,-1,23
 456 164 456 164 456 211 c 0,24,25
 456 243 456 243 441.5 260 c 128,-1,26
 427 277 427 277 391 289 c 1,27,-1
 298 289 l 1,28,29
 250 274 250 274 218 242.5 c 128,-1,30
 186 211 186 211 186 167 c 128,-1,20
 186 123 186 123 212 103 c 128,-1,21
416 576 m 0,31,32
 349 576 349 576 309 540 c 128,-1,33
 269 504 269 504 269 458 c 0,34,35
 269 431 269 431 280 414.5 c 128,-1,36
 291 398 291 398 321 382 c 1,37,-1
 414 382 l 1,38,39
 454 399 454 399 486.5 430.5 c 128,-1,40
 519 462 519 462 519 498 c 0,41,42
 519 576 519 576 416 576 c 0,31,32
EndSplineSet
Substitution2: "'frac' Diagonal Fractions in Latin lookup 1 subtable" eightsuperior
EndChar

StartChar: nine
Encoding: 57 57 28
Width: 560
GlyphClass: 2
Flags: W
LayerCount: 2
Fore
SplineSet
113 107 m 1,0,1
 178 91 178 91 254.5 91 c 128,-1,2
 331 91 331 91 387.5 139 c 128,-1,3
 444 187 444 187 466 274 c 1,4,5
 358 243 358 243 302 243 c 0,6,7
 134 243 134 243 134 403 c 0,8,9
 134 515 134 515 213.5 593 c 128,-1,10
 293 671 293 671 422 671 c 0,11,12
 521 671 521 671 564 599 c 0,13,14
 598 542 598 542 598 446 c 0,15,16
 598 422 598 422 596 395 c 0,17,18
 590 295 590 295 558.5 216.5 c 128,-1,19
 527 138 527 138 477 89 c 0,20,21
 375 -11 375 -11 231 -11 c 0,22,23
 165 -11 165 -11 100 6 c 1,24,-1
 79 11 l 1,25,-1
 113 107 l 1,0,1
499 447 m 0,26,27
 499 570 499 570 397 570 c 0,28,29
 338 570 338 570 293.5 533 c 128,-1,30
 249 496 249 496 244 436 c 0,31,32
 243 425 243 425 243 416 c 0,33,34
 243 381 243 381 263 362 c 128,-1,35
 283 343 283 343 336 343 c 128,-1,36
 389 343 389 343 464 360 c 1,37,-1
 489 365 l 1,38,39
 499 410 499 410 499 447 c 0,26,27
EndSplineSet
Substitution2: "'frac' Diagonal Fractions in Latin lookup 1 subtable" ninesuperior
EndChar

StartChar: colon
Encoding: 58 58 29
Width: 163
GlyphClass: 2
Flags: W
LayerCount: 2
Fore
SplineSet
99 311 m 1,0,-1
 129 446 l 1,1,-1
 239 446 l 1,2,-1
 209 311 l 1,3,-1
 99 311 l 1,0,-1
26 0 m 1,4,-1
 56 135 l 1,5,-1
 166 135 l 1,6,-1
 136 0 l 1,7,-1
 26 0 l 1,4,-1
EndSplineSet
EndChar

StartChar: semicolon
Encoding: 59 59 30
Width: 186
GlyphClass: 2
Flags: W
LayerCount: 2
Fore
SplineSet
-31 -130 m 1,0,-1
 78 135 l 1,1,-1
 197 135 l 1,2,-1
 58 -130 l 1,3,-1
 -31 -130 l 1,0,-1
116 311 m 1,4,-1
 146 446 l 1,5,-1
 256 446 l 1,6,-1
 226 311 l 1,7,-1
 116 311 l 1,4,-1
EndSplineSet
EndChar

StartChar: less
Encoding: 60 60 31
Width: 560
GlyphClass: 2
Flags: W
LayerCount: 2
Fore
SplineSet
521 377 m 1,0,-1
 226 253 l 1,1,-1
 521 123 l 1,2,-1
 521 11 l 1,3,-1
 111 206 l 1,4,-1
 111 296 l 1,5,-1
 521 488 l 1,6,-1
 521 377 l 1,0,-1
EndSplineSet
EndChar

StartChar: equal
Encoding: 61 61 32
Width: 560
GlyphClass: 2
Flags: W
LayerCount: 2
Fore
SplineSet
119 301 m 1,0,-1
 119 399 l 1,1,-1
 557 399 l 1,2,-1
 557 301 l 1,3,-1
 119 301 l 1,0,-1
119 103 m 1,4,-1
 119 201 l 1,5,-1
 557 201 l 1,6,-1
 557 103 l 1,7,-1
 119 103 l 1,4,-1
EndSplineSet
EndChar

StartChar: greater
Encoding: 62 62 33
Width: 560
GlyphClass: 2
Flags: W
LayerCount: 2
Fore
SplineSet
448 253 m 1,0,-1
 153 377 l 1,1,-1
 153 488 l 1,2,-1
 563 296 l 1,3,-1
 563 206 l 1,4,-1
 153 11 l 1,5,-1
 153 123 l 1,6,-1
 448 253 l 1,0,-1
EndSplineSet
EndChar

StartChar: question
Encoding: 63 63 34
Width: 424
GlyphClass: 2
Flags: W
LayerCount: 2
Fore
SplineSet
514 551 m 0,0,1
 514 481 514 481 482 438 c 128,-1,2
 450 395 450 395 357 327 c 0,3,4
 297 282 297 282 289 243 c 2,5,-1
 280 203 l 1,6,-1
 178 203 l 1,7,8
 178 245 178 245 185 281 c 0,9,10
 195 335 195 335 282 399 c 0,11,12
 350 449 350 449 374.5 477 c 128,-1,13
 399 505 399 505 399 540 c 128,-1,14
 399 575 399 575 378 587 c 128,-1,15
 357 599 357 599 321 599 c 0,16,17
 251 599 251 599 192 588 c 2,18,-1
 170 584 l 1,19,-1
 181 670 l 1,20,21
 270 696 270 696 339 696 c 0,22,23
 514 696 514 696 514 551 c 0,0,1
129 0 m 1,24,-1
 162 146 l 1,25,-1
 272 146 l 1,26,-1
 239 0 l 1,27,-1
 129 0 l 1,24,-1
EndSplineSet
EndChar

StartChar: at
Encoding: 64 64 35
Width: 948
GlyphClass: 2
Flags: W
LayerCount: 2
Fore
SplineSet
637 724 m 0,0,1
 920 724 920 724 985 546 c 0,2,3
 1004 495 1004 495 1004 438 c 0,4,5
 1004 374 1004 374 984 296 c 0,6,7
 941 124 941 124 885 57 c 128,-1,8
 829 -10 829 -10 740.5 -10 c 128,-1,9
 652 -10 652 -10 630 39 c 1,10,11
 595 21 595 21 538.5 5 c 128,-1,12
 482 -11 482 -11 437 -11 c 128,-1,13
 392 -11 392 -11 360.5 12 c 128,-1,14
 329 35 329 35 319 71 c 0,15,16
 307 115 307 115 307 156.5 c 128,-1,17
 307 198 307 198 315 231 c 1,18,19
 369 511 369 511 568 511 c 0,20,21
 621 511 621 511 791 482 c 1,22,23
 778 430 778 430 746.5 288.5 c 128,-1,24
 715 147 715 147 715 127.5 c 128,-1,25
 715 108 715 108 726 100.5 c 128,-1,26
 737 93 737 93 761 93 c 0,27,28
 799 93 799 93 827.5 139 c 128,-1,29
 856 185 856 185 885 307 c 0,30,31
 903 383 903 383 903 423.5 c 128,-1,32
 903 464 903 464 893 502.5 c 128,-1,33
 883 541 883 541 852 570 c 0,34,35
 786 632 786 632 615 632 c 128,-1,36
 444 632 444 632 343.5 542.5 c 128,-1,37
 243 453 243 453 199 268 c 0,38,39
 183 202 183 202 183 148.5 c 128,-1,40
 183 95 183 95 198.5 47.5 c 128,-1,41
 214 0 214 0 248 -36 c 0,42,43
 320 -112 320 -112 480 -112 c 1,44,-1
 617 -103 l 1,45,-1
 597 -195 l 1,46,47
 500 -204 500 -204 437.5 -204 c 128,-1,48
 375 -204 375 -204 310.5 -185.5 c 128,-1,49
 246 -167 246 -167 203 -134 c 0,50,51
 81 -39 81 -39 81 139 c 0,52,53
 81 202 81 202 97 268 c 0,54,55
 155 512 155 512 284.5 618 c 128,-1,56
 414 724 414 724 637 724 c 0,0,1
415 166 m 0,57,58
 415 83 415 83 468 82 c 1,59,60
 528 82 528 82 607 126 c 1,61,62
 611 172 611 172 666 404 c 1,63,64
 606 419 606 419 566 419 c 0,65,66
 509 419 509 419 476 369 c 128,-1,67
 443 319 443 319 424 230 c 1,68,69
 415 195 415 195 415 166 c 0,57,58
EndSplineSet
EndChar

StartChar: A
Encoding: 65 65 36
Width: 552
GlyphClass: 2
Flags: W
LayerCount: 2
Fore
SplineSet
423 0 m 1,0,-1
 423 143 l 1,1,-1
 199 143 l 1,2,-1
 130 0 l 1,3,-1
 18 0 l 1,4,-1
 341 685 l 1,5,-1
 540 685 l 1,6,-1
 534 0 l 1,7,-1
 423 0 l 1,0,-1
406 588 m 1,8,-1
 242 241 l 1,9,-1
 426 241 l 1,10,-1
 431 588 l 1,11,-1
 406 588 l 1,8,-1
EndSplineSet
Position2: "'cpsp' Capital Spacing in Latin lookup 0 subtable" dx=5 dy=0 dh=10 dv=0
EndChar

StartChar: B
Encoding: 66 66 37
Width: 575
GlyphClass: 2
Flags: W
LayerCount: 2
Fore
SplineSet
459 685 m 2,0,1
 632 685 632 685 632 543 c 0,2,3
 632 418 632 418 512 353 c 1,4,5
 553 333 553 333 569 305.5 c 128,-1,6
 585 278 585 278 585 235 c 0,7,8
 585 131 585 131 516.5 65.5 c 128,-1,9
 448 0 448 0 319 0 c 2,10,-1
 70 0 l 1,11,-1
 228 685 l 1,12,-1
 459 685 l 2,0,1
384 300 m 2,13,-1
 251 300 l 1,14,-1
 204 96 l 1,15,-1
 341 96 l 2,16,17
 401 96 401 96 435.5 133 c 128,-1,18
 470 170 470 170 470 232 c 0,19,20
 470 300 470 300 384 300 c 2,13,-1
441 589 m 2,21,-1
 318 589 l 1,22,-1
 272 394 l 1,23,-1
 397 394 l 2,24,25
 449 394 449 394 483.5 430 c 128,-1,26
 518 466 518 466 518 522 c 0,27,28
 518 557 518 557 499.5 573 c 128,-1,29
 481 589 481 589 441 589 c 2,21,-1
EndSplineSet
Position2: "'cpsp' Capital Spacing in Latin lookup 0 subtable" dx=5 dy=0 dh=10 dv=0
EndChar

StartChar: C
Encoding: 67 67 38
Width: 498
GlyphClass: 2
Flags: W
LayerCount: 2
Fore
SplineSet
305 -11 m 0,0,1
 105 -11 105 -11 105 186 c 0,2,3
 105 331 105 331 155 457 c 0,4,5
 182 525 182 525 221.5 577.5 c 128,-1,6
 261 630 261 630 321 663 c 128,-1,7
 381 696 381 696 454 696 c 0,8,9
 521 696 521 696 598 676 c 1,10,-1
 623 669 l 1,11,-1
 597 585 l 1,12,13
 529 599 529 599 454 599 c 128,-1,14
 379 599 379 599 325 537 c 128,-1,15
 271 475 271 475 245.5 384 c 128,-1,16
 220 293 220 293 220 194 c 0,17,18
 220 86 220 86 319 86 c 0,19,20
 382 86 382 86 458 98 c 1,21,-1
 481 101 l 1,22,-1
 473 13 l 1,23,24
 382 -11 382 -11 305 -11 c 0,0,1
EndSplineSet
Position2: "'cpsp' Capital Spacing in Latin lookup 0 subtable" dx=5 dy=0 dh=10 dv=0
EndChar

StartChar: D
Encoding: 68 68 39
Width: 606
GlyphClass: 2
Flags: W
LayerCount: 2
Fore
SplineSet
313 0 m 2,0,-1
 70 0 l 1,1,-1
 229 685 l 1,2,-1
 446 685 l 2,3,4
 656 685 656 685 656 479 c 0,5,6
 656 302 656 302 574 158 c 0,7,8
 534 87 534 87 466 43.5 c 128,-1,9
 398 0 398 0 313 0 c 2,0,-1
528 359 m 128,-1,11
 541 422 541 422 541 479.5 c 128,-1,12
 541 537 541 537 512.5 562.5 c 128,-1,13
 484 588 484 588 424 588 c 2,14,-1
 317 588 l 1,15,-1
 205 97 l 1,16,-1
 324 97 l 2,17,18
 378 97 378 97 422 136.5 c 128,-1,19
 466 176 466 176 490.5 236 c 128,-1,10
 515 296 515 296 528 359 c 128,-1,11
EndSplineSet
Position2: "'cpsp' Capital Spacing in Latin lookup 0 subtable" dx=5 dy=0 dh=10 dv=0
EndChar

StartChar: E
Encoding: 69 69 40
Width: 500
GlyphClass: 2
Flags: W
LayerCount: 2
Fore
SplineSet
70 0 m 1,0,-1
 228 685 l 1,1,-1
 621 685 l 1,2,-1
 598 588 l 1,3,-1
 317 588 l 1,4,-1
 273 394 l 1,5,-1
 499 394 l 1,6,-1
 476 296 l 1,7,-1
 251 296 l 1,8,-1
 205 97 l 1,9,-1
 487 97 l 1,10,-1
 464 0 l 1,11,-1
 70 0 l 1,0,-1
EndSplineSet
Position2: "'cpsp' Capital Spacing in Latin lookup 0 subtable" dx=5 dy=0 dh=10 dv=0
EndChar

StartChar: F
Encoding: 70 70 41
Width: 479
GlyphClass: 2
Flags: W
LayerCount: 2
Fore
SplineSet
70 0 m 1,0,-1
 229 685 l 1,1,-1
 614 685 l 1,2,-1
 591 588 l 1,3,-1
 317 588 l 1,4,-1
 264 353 l 1,5,-1
 494 353 l 1,6,-1
 470 256 l 1,7,-1
 241 256 l 1,8,-1
 182 0 l 1,9,-1
 70 0 l 1,0,-1
EndSplineSet
Position2: "'cpsp' Capital Spacing in Latin lookup 0 subtable" dx=5 dy=0 dh=10 dv=0
EndChar

StartChar: G
Encoding: 71 71 42
Width: 570
GlyphClass: 2
Flags: W
LayerCount: 2
Fore
SplineSet
325 -11 m 0,0,1
 107 -11 107 -11 107 195 c 0,2,3
 107 354 107 354 162 480 c 1,4,5
 223 616 223 616 334 668 c 0,6,7
 395 696 395 696 454 696 c 0,8,9
 561 696 561 696 644 669 c 2,10,-1
 671 660 l 1,11,-1
 645 579 l 1,12,13
 545 599 545 599 456 599 c 0,14,15
 396 599 396 599 349.5 560 c 128,-1,16
 303 521 303 521 276 459 c 0,17,18
 222 335 222 335 222 194 c 0,19,20
 222 86 222 86 338 86 c 0,21,22
 378 86 378 86 414 94 c 1,23,-1
 426 96 l 1,24,-1
 468 277 l 1,25,-1
 387 277 l 1,26,-1
 409 370 l 1,27,-1
 601 370 l 1,28,-1
 518 15 l 1,29,30
 442 -11 442 -11 325 -11 c 0,0,1
EndSplineSet
Position2: "'cpsp' Capital Spacing in Latin lookup 0 subtable" dx=5 dy=0 dh=10 dv=0
EndChar

StartChar: H
Encoding: 72 72 43
Width: 622
GlyphClass: 2
Flags: W
LayerCount: 2
Fore
SplineSet
440 0 m 1,0,-1
 508 300 l 1,1,-1
 251 300 l 1,2,-1
 182 0 l 1,3,-1
 70 0 l 1,4,-1
 229 685 l 1,5,-1
 340 685 l 1,6,-1
 274 397 l 1,7,-1
 531 397 l 1,8,-1
 598 685 l 1,9,-1
 709 685 l 1,10,-1
 551 0 l 1,11,-1
 440 0 l 1,0,-1
EndSplineSet
Position2: "'cpsp' Capital Spacing in Latin lookup 0 subtable" dx=5 dy=0 dh=10 dv=0
EndChar

StartChar: I
Encoding: 73 73 44
Width: 252
GlyphClass: 2
Flags: W
LayerCount: 2
Fore
SplineSet
70 0 m 1,0,-1
 229 685 l 1,1,-1
 340 685 l 1,2,-1
 182 0 l 1,3,-1
 70 0 l 1,0,-1
EndSplineSet
Position2: "'cpsp' Capital Spacing in Latin lookup 0 subtable" dx=5 dy=0 dh=10 dv=0
EndChar

StartChar: J
Encoding: 74 74 45
Width: 275
GlyphClass: 2
Flags: W
LayerCount: 2
Fore
SplineSet
366 685 m 1,0,-1
 237 128 l 1,1,2
 208 -3 208 -3 169 -36.5 c 128,-1,3
 130 -70 130 -70 6 -70 c 1,4,-1
 25 28 l 1,5,6
 76 29 76 29 93.5 45.5 c 128,-1,7
 111 62 111 62 126 130 c 2,8,-1
 255 685 l 1,9,-1
 366 685 l 1,0,-1
EndSplineSet
Position2: "'cpsp' Capital Spacing in Latin lookup 0 subtable" dx=5 dy=0 dh=10 dv=0
EndChar

StartChar: K
Encoding: 75 75 46
Width: 532
GlyphClass: 2
Flags: W
LayerCount: 2
Fore
SplineSet
401 0 m 1,0,-1
 333 288 l 1,1,-1
 247 282 l 1,2,-1
 182 0 l 1,3,-1
 70 0 l 1,4,-1
 229 685 l 1,5,-1
 340 685 l 1,6,-1
 269 380 l 1,7,-1
 345 386 l 1,8,-1
 551 685 l 1,9,-1
 674 685 l 1,10,-1
 434 341 l 1,11,-1
 518 0 l 1,12,-1
 401 0 l 1,0,-1
EndSplineSet
Position2: "'cpsp' Capital Spacing in Latin lookup 0 subtable" dx=5 dy=0 dh=10 dv=0
EndChar

StartChar: L
Encoding: 76 76 47
Width: 427
GlyphClass: 2
Flags: W
LayerCount: 2
Fore
SplineSet
422 0 m 1,0,-1
 70 0 l 1,1,-1
 229 685 l 1,2,-1
 340 685 l 1,3,-1
 205 97 l 1,4,-1
 444 97 l 1,5,-1
 422 0 l 1,0,-1
EndSplineSet
Position2: "'cpsp' Capital Spacing in Latin lookup 0 subtable" dx=5 dy=0 dh=10 dv=0
EndChar

StartChar: M
Encoding: 77 77 48
Width: 785
GlyphClass: 2
Flags: W
LayerCount: 2
Fore
SplineSet
70 0 m 1,0,-1
 229 685 l 1,1,-1
 406 685 l 1,2,-1
 426 151 l 1,3,-1
 693 685 l 1,4,-1
 873 685 l 1,5,-1
 715 0 l 1,6,-1
 603 0 l 1,7,-1
 740 588 l 1,8,-1
 732 588 l 1,9,-1
 453 28 l 1,10,-1
 345 28 l 1,11,-1
 324 588 l 1,12,-1
 317 588 l 1,13,-1
 182 0 l 1,14,-1
 70 0 l 1,0,-1
EndSplineSet
Position2: "'cpsp' Capital Spacing in Latin lookup 0 subtable" dx=5 dy=0 dh=10 dv=0
EndChar

StartChar: N
Encoding: 78 78 49
Width: 642
GlyphClass: 2
Flags: W
LayerCount: 2
Fore
SplineSet
70 0 m 1,0,-1
 229 685 l 1,1,-1
 412 685 l 1,2,-1
 478 117 l 1,3,-1
 493 117 l 1,4,-1
 622 685 l 1,5,-1
 730 685 l 1,6,-1
 572 0 l 1,7,-1
 397 0 l 1,8,-1
 325 575 l 1,9,-1
 310 575 l 1,10,-1
 176 0 l 1,11,-1
 70 0 l 1,0,-1
EndSplineSet
Position2: "'cpsp' Capital Spacing in Latin lookup 0 subtable" dx=5 dy=0 dh=10 dv=0
EndChar

StartChar: O
Encoding: 79 79 50
Width: 620
GlyphClass: 2
Flags: W
LayerCount: 2
Fore
SplineSet
247 113.5 m 128,-1,1
 273 86 273 86 333 86 c 128,-1,2
 393 86 393 86 435 123 c 0,3,4
 491 173 491 173 523 276 c 128,-1,5
 555 379 555 379 555 479 c 0,6,7
 555 543 555 543 529 571 c 128,-1,8
 503 599 503 599 443.5 599 c 128,-1,9
 384 599 384 599 347 566 c 0,10,11
 289 513 289 513 255 406.5 c 128,-1,12
 221 300 221 300 221 220.5 c 128,-1,0
 221 141 221 141 247 113.5 c 128,-1,1
506 48 m 1,13,14
 430 -11 430 -11 322 -11 c 128,-1,15
 214 -11 214 -11 160 39 c 128,-1,16
 106 89 106 89 106 196 c 0,17,18
 106 326 106 326 146.5 443 c 128,-1,19
 187 560 187 560 264 627 c 1,20,21
 341 696 341 696 452 696 c 0,22,23
 670 696 670 696 670 489 c 0,24,25
 670 353 670 353 628.5 233 c 128,-1,26
 587 113 587 113 506 48 c 1,13,14
EndSplineSet
Position2: "'cpsp' Capital Spacing in Latin lookup 0 subtable" dx=5 dy=0 dh=10 dv=0
EndChar

StartChar: P
Encoding: 80 80 51
Width: 547
GlyphClass: 2
Flags: W
LayerCount: 2
Fore
SplineSet
344 212 m 2,0,-1
 231 212 l 1,1,-1
 182 0 l 1,2,-1
 70 0 l 1,3,-1
 229 685 l 1,4,-1
 434 685 l 2,5,6
 535 685 535 685 581 642 c 128,-1,7
 627 599 627 599 627 505 c 0,8,9
 627 367 627 367 552 289.5 c 128,-1,10
 477 212 477 212 344 212 c 2,0,-1
360 309 m 2,11,12
 433 309 433 309 473 362 c 128,-1,13
 513 415 513 415 513 504 c 0,14,15
 513 547 513 547 492.5 567.5 c 128,-1,16
 472 588 472 588 425 588 c 2,17,-1
 317 588 l 1,18,-1
 253 309 l 1,19,-1
 360 309 l 2,11,12
EndSplineSet
Position2: "'cpsp' Capital Spacing in Latin lookup 0 subtable" dx=5 dy=0 dh=10 dv=0
EndChar

StartChar: Q
Encoding: 81 81 52
Width: 620
GlyphClass: 2
Flags: W
LayerCount: 2
Fore
SplineSet
320 -11 m 0,0,1
 214 -11 214 -11 160 39 c 128,-1,2
 106 89 106 89 106 196 c 0,3,4
 106 326 106 326 146.5 443 c 128,-1,5
 187 560 187 560 264 627 c 1,6,7
 341 696 341 696 452 696 c 0,8,9
 670 696 670 696 670 489 c 0,10,11
 670 353 670 353 628.5 233 c 128,-1,12
 587 113 587 113 506 48 c 0,13,14
 491 35 491 35 466 23 c 1,15,-1
 514 -115 l 1,16,-1
 409 -150 l 1,17,-1
 365 -8 l 1,18,19
 342 -11 342 -11 320 -11 c 0,0,1
247 113.5 m 128,-1,21
 273 86 273 86 333 86 c 128,-1,22
 393 86 393 86 435 123 c 0,23,24
 491 173 491 173 523 276 c 128,-1,25
 555 379 555 379 555 479 c 0,26,27
 555 543 555 543 529 571 c 128,-1,28
 503 599 503 599 443.5 599 c 128,-1,29
 384 599 384 599 347 566 c 0,30,31
 289 513 289 513 255 406.5 c 128,-1,32
 221 300 221 300 221 220.5 c 128,-1,20
 221 141 221 141 247 113.5 c 128,-1,21
EndSplineSet
Position2: "'cpsp' Capital Spacing in Latin lookup 0 subtable" dx=5 dy=0 dh=10 dv=0
EndChar

StartChar: R
Encoding: 82 82 53
Width: 561
GlyphClass: 2
Flags: W
LayerCount: 2
Fore
SplineSet
432 685 m 2,0,1
 532 685 532 685 580 642 c 128,-1,2
 628 599 628 599 628 501.5 c 128,-1,3
 628 404 628 404 580.5 338.5 c 128,-1,4
 533 273 533 273 465 250 c 1,5,-1
 529 0 l 1,6,-1
 418 0 l 1,7,-1
 362 235 l 1,8,-1
 236 235 l 1,9,-1
 182 0 l 1,10,-1
 70 0 l 1,11,-1
 229 685 l 1,12,-1
 432 685 l 2,0,1
475 379 m 128,-1,14
 513 427 513 427 513 487.5 c 128,-1,15
 513 548 513 548 493 568.5 c 128,-1,16
 473 589 473 589 424 589 c 2,17,-1
 318 589 l 1,18,-1
 258 331 l 1,19,-1
 373 331 l 2,20,13
 437 331 437 331 475 379 c 128,-1,14
EndSplineSet
Position2: "'cpsp' Capital Spacing in Latin lookup 0 subtable" dx=5 dy=0 dh=10 dv=0
EndChar

StartChar: S
Encoding: 83 83 54
Width: 497
GlyphClass: 2
Flags: W
LayerCount: 2
Fore
SplineSet
568 583 m 1,0,1
 460 601 460 601 396 601 c 128,-1,2
 332 601 332 601 299 571 c 128,-1,3
 266 541 266 541 266 487 c 0,4,5
 266 453 266 453 285.5 436.5 c 128,-1,6
 305 420 305 420 379.5 390 c 128,-1,7
 454 360 454 360 482.5 326 c 128,-1,8
 511 292 511 292 511 226 c 0,9,10
 511 113 511 113 442.5 51 c 128,-1,11
 374 -11 374 -11 257 -11 c 0,12,13
 212 -11 212 -11 161 -2.5 c 128,-1,14
 110 6 110 6 82 15 c 2,15,-1
 53 24 l 1,16,-1
 71 105 l 1,17,18
 186 86 186 86 258 86 c 0,19,20
 397 86 397 86 397 213 c 0,21,22
 397 248 397 248 378 264.5 c 128,-1,23
 359 281 359 281 287.5 310 c 128,-1,24
 216 339 216 339 184.5 374.5 c 128,-1,25
 153 410 153 410 153 475 c 0,26,27
 153 574 153 574 217 635 c 128,-1,28
 281 696 281 696 389 696 c 0,29,30
 434 696 434 696 483.5 688 c 128,-1,31
 533 680 533 680 560 672 c 2,32,-1
 588 663 l 1,33,-1
 568 583 l 1,0,1
EndSplineSet
Position2: "'cpsp' Capital Spacing in Latin lookup 0 subtable" dx=5 dy=0 dh=10 dv=0
EndChar

StartChar: T
Encoding: 84 84 55
Width: 461
GlyphClass: 2
Flags: W
LayerCount: 2
Fore
SplineSet
145 588 m 1,0,-1
 168 685 l 1,1,-1
 610 685 l 1,2,-1
 587 588 l 1,3,-1
 421 588 l 1,4,-1
 285 0 l 1,5,-1
 174 0 l 1,6,-1
 309 588 l 1,7,-1
 145 588 l 1,0,-1
EndSplineSet
Position2: "'cpsp' Capital Spacing in Latin lookup 0 subtable" dx=5 dy=0 dh=10 dv=0
EndChar

StartChar: U
Encoding: 85 85 56
Width: 594
GlyphClass: 2
Flags: W
LayerCount: 2
Fore
SplineSet
227 225 m 2,0,1
 218 185 218 185 218 151 c 0,2,3
 218 86 218 86 320 86 c 0,4,5
 389 86 389 86 420.5 118 c 128,-1,6
 452 150 452 150 469 222 c 2,7,-1
 576 685 l 1,8,-1
 688 685 l 1,9,-1
 581 222 l 2,10,11
 553 100 553 100 489.5 44.5 c 128,-1,12
 426 -11 426 -11 320 -11 c 0,13,14
 107 -11 107 -11 107 139 c 0,15,16
 107 181 107 181 119 241 c 1,17,-1
 222 685 l 1,18,-1
 334 685 l 1,19,-1
 227 225 l 2,0,1
EndSplineSet
Position2: "'cpsp' Capital Spacing in Latin lookup 0 subtable" dx=5 dy=0 dh=10 dv=0
EndChar

StartChar: V
Encoding: 86 86 57
Width: 551
GlyphClass: 2
Flags: W
LayerCount: 2
Fore
SplineSet
578 685 m 1,0,-1
 690 685 l 1,1,-1
 373 0 l 1,2,-1
 171 0 l 1,3,-1
 175 685 l 1,4,-1
 286 685 l 1,5,-1
 274 97 l 1,6,-1
 312 97 l 1,7,-1
 578 685 l 1,0,-1
EndSplineSet
Position2: "'cpsp' Capital Spacing in Latin lookup 0 subtable" dx=5 dy=0 dh=10 dv=0
EndChar

StartChar: W
Encoding: 87 87 58
Width: 849
GlyphClass: 2
Flags: W
LayerCount: 2
Fore
SplineSet
179 685 m 1,0,-1
 291 685 l 1,1,-1
 253 103 l 1,2,-1
 273 103 l 1,3,-1
 518 675 l 1,4,-1
 640 675 l 1,5,-1
 613 103 l 1,6,-1
 632 103 l 1,7,-1
 873 685 l 1,8,-1
 984 685 l 1,9,-1
 690 0 l 1,10,-1
 519 0 l 1,11,-1
 546 527 l 1,12,-1
 326 0 l 1,13,-1
 150 0 l 1,14,-1
 179 685 l 1,0,-1
EndSplineSet
Position2: "'cpsp' Capital Spacing in Latin lookup 0 subtable" dx=5 dy=0 dh=10 dv=0
EndChar

StartChar: X
Encoding: 88 88 59
Width: 517
GlyphClass: 2
Flags: W
LayerCount: 2
Fore
SplineSet
291 685 m 1,0,-1
 357 425 l 1,1,-1
 547 685 l 1,2,-1
 666 685 l 1,3,-1
 404 343 l 1,4,-1
 506 0 l 1,5,-1
 390 0 l 1,6,-1
 319 262 l 1,7,-1
 125 0 l 1,8,-1
 6 0 l 1,9,-1
 272 345 l 1,10,-1
 173 685 l 1,11,-1
 291 685 l 1,0,-1
EndSplineSet
Position2: "'cpsp' Capital Spacing in Latin lookup 0 subtable" dx=5 dy=0 dh=10 dv=0
EndChar

StartChar: Y
Encoding: 89 89 60
Width: 499
GlyphClass: 2
Flags: W
LayerCount: 2
Fore
SplineSet
652 685 m 1,0,-1
 367 291 l 1,1,-1
 298 0 l 1,2,-1
 194 0 l 1,3,-1
 263 298 l 1,4,-1
 163 685 l 1,5,-1
 276 685 l 1,6,-1
 338 395 l 1,7,-1
 534 685 l 1,8,-1
 652 685 l 1,0,-1
EndSplineSet
Position2: "'cpsp' Capital Spacing in Latin lookup 0 subtable" dx=5 dy=0 dh=10 dv=0
EndChar

StartChar: Z
Encoding: 90 90 61
Width: 492
GlyphClass: 2
Flags: W
LayerCount: 2
Fore
SplineSet
173 588 m 1,0,-1
 196 685 l 1,1,-1
 613 685 l 1,2,-1
 585 562 l 1,3,-1
 190 122 l 1,4,-1
 184 97 l 1,5,-1
 477 97 l 1,6,-1
 454 0 l 1,7,-1
 37 0 l 1,8,-1
 64 121 l 1,9,-1
 457 563 l 1,10,-1
 463 588 l 1,11,-1
 173 588 l 1,0,-1
EndSplineSet
Position2: "'cpsp' Capital Spacing in Latin lookup 0 subtable" dx=5 dy=0 dh=10 dv=0
EndChar

StartChar: bracketleft
Encoding: 91 91 62
Width: 259
GlyphClass: 2
Flags: W
LayerCount: 2
Fore
SplineSet
205 747 m 1,0,-1
 419 747 l 1,1,-1
 397 654 l 1,2,-1
 295 654 l 1,3,-1
 136 -29 l 1,4,-1
 237 -29 l 1,5,-1
 214 -122 l 1,6,-1
 2 -122 l 1,7,-1
 205 747 l 1,0,-1
EndSplineSet
Substitution2: "'case' Case-Sensitive Forms in Latin lookup 4 subtable" bracketleft.cap
EndChar

StartChar: backslash
Encoding: 92 92 63
Width: 459
GlyphClass: 2
Flags: W
LayerCount: 2
Fore
SplineSet
432 4 m 1,0,-1
 319 0 l 1,1,-1
 187 698 l 1,2,-1
 301 702 l 1,3,-1
 432 4 l 1,0,-1
EndSplineSet
EndChar

StartChar: bracketright
Encoding: 93 93 64
Width: 258
GlyphClass: 2
Flags: W
LayerCount: 2
Fore
SplineSet
198 -122 m 1,0,-1
 -16 -122 l 1,1,-1
 6 -29 l 1,2,-1
 108 -29 l 1,3,-1
 267 654 l 1,4,-1
 166 654 l 1,5,-1
 189 747 l 1,6,-1
 401 747 l 1,7,-1
 198 -122 l 1,0,-1
EndSplineSet
Substitution2: "'case' Case-Sensitive Forms in Latin lookup 4 subtable" bracketright.cap
EndChar

StartChar: asciicircum
Encoding: 94 94 65
Width: 560
GlyphClass: 2
Flags: W
LayerCount: 2
Fore
SplineSet
444 316 m 1,0,-1
 320 554 l 1,1,-1
 196 316 l 1,2,-1
 82 316 l 1,3,-1
 272 660 l 1,4,-1
 366 660 l 1,5,-1
 558 316 l 1,6,-1
 444 316 l 1,0,-1
EndSplineSet
EndChar

StartChar: underscore
Encoding: 95 95 66
Width: 521
GlyphClass: 2
Flags: W
LayerCount: 2
Fore
SplineSet
18 -80 m 1,0,-1
 466 -80 l 1,1,-1
 443 -182 l 1,2,-1
 -5 -182 l 1,3,-1
 18 -80 l 1,0,-1
EndSplineSet
EndChar

StartChar: grave
Encoding: 96 96 67
Width: 518
GlyphClass: 2
Flags: W
LayerCount: 2
Fore
SplineSet
312 759 m 1,0,-1
 517 667 l 1,1,-1
 471 588 l 1,2,-1
 260 671 l 1,3,-1
 312 759 l 1,0,-1
EndSplineSet
EndChar

StartChar: a
Encoding: 97 97 68
Width: 516
GlyphClass: 2
Flags: W
LayerCount: 2
Fore
SplineSet
219 -11 m 0,0,1
 150 -11 150 -11 117 33.5 c 128,-1,2
 84 78 84 78 84 145.5 c 128,-1,3
 84 213 84 213 99.5 273 c 128,-1,4
 115 333 115 333 144 387.5 c 128,-1,5
 173 442 173 442 223.5 476.5 c 128,-1,6
 274 511 274 511 337 511 c 0,7,8
 393 511 393 511 525 489 c 2,9,-1
 567 482 l 1,10,-1
 492 158 l 1,11,-1
 465 2 l 1,12,-1
 358 -2 l 1,13,14
 369 70 369 70 373 89 c 1,15,16
 326 27 326 27 266 0 c 0,17,18
 242 -11 242 -11 219 -11 c 0,0,1
443 404 m 1,19,20
 375 419 375 419 335 419 c 128,-1,21
 295 419 295 419 260 374 c 0,22,23
 194 291 194 291 194 156 c 0,24,25
 194 119 194 119 207.5 100.5 c 128,-1,26
 221 82 221 82 249.5 82 c 128,-1,27
 278 82 278 82 312 108.5 c 128,-1,28
 346 135 346 135 369 162 c 2,29,-1
 392 189 l 1,30,-1
 443 404 l 1,19,20
EndSplineSet
EndChar

StartChar: b
Encoding: 98 98 69
Width: 515
GlyphClass: 2
Flags: W
LayerCount: 2
Fore
SplineSet
403 511 m 0,0,1
 546 511 546 511 546 353 c 0,2,3
 546 261 546 261 518 180 c 128,-1,4
 490 99 490 99 430 44.5 c 128,-1,5
 370 -10 370 -10 288 -10 c 0,6,7
 198 -10 198 -10 98 12 c 1,8,-1
 63 19 l 1,9,-1
 221 708 l 1,10,-1
 330 708 l 1,11,-1
 270 449 l 1,12,13
 293 472 293 472 333 491.5 c 128,-1,14
 373 511 373 511 403 511 c 0,0,1
188 93 m 1,15,16
 243 82 243 82 284.5 82 c 128,-1,17
 326 82 326 82 356.5 111.5 c 128,-1,18
 387 141 387 141 403 184 c 0,19,20
 435 272 435 272 435 342 c 0,21,22
 435 377 435 377 422 397.5 c 128,-1,23
 409 418 409 418 378.5 418 c 128,-1,24
 348 418 348 418 317 402 c 128,-1,25
 286 386 286 386 267 370 c 2,26,-1
 248 353 l 1,27,-1
 188 93 l 1,15,16
EndSplineSet
EndChar

StartChar: c
Encoding: 99 99 70
Width: 407
GlyphClass: 2
Flags: W
LayerCount: 2
Fore
SplineSet
348 511 m 0,0,1
 405 511 405 511 466 492 c 1,2,-1
 487 485 l 1,3,-1
 459 405 l 1,4,5
 387 417 387 417 344 417 c 0,6,7
 273 417 273 417 235 344.5 c 128,-1,8
 197 272 197 272 197 177.5 c 128,-1,9
 197 83 197 83 284 83 c 0,10,11
 327 83 327 83 375 91 c 2,12,-1
 393 94 l 1,13,-1
 385 12 l 1,14,15
 314 -11 314 -11 242.5 -11 c 128,-1,16
 171 -11 171 -11 128.5 32 c 128,-1,17
 86 75 86 75 86 153 c 0,18,19
 86 307 86 307 154 409 c 128,-1,20
 222 511 222 511 348 511 c 0,0,1
EndSplineSet
EndChar

StartChar: d
Encoding: 100 100 71
Width: 516
GlyphClass: 2
Flags: W
LayerCount: 2
Fore
SplineSet
220 -11 m 0,0,1
 153 -11 153 -11 118.5 31 c 128,-1,2
 84 73 84 73 84 156 c 128,-1,3
 84 239 84 239 111.5 318.5 c 128,-1,4
 139 398 139 398 198 454 c 128,-1,5
 257 510 257 510 335 510 c 0,6,7
 374 510 374 510 440 496 c 1,8,-1
 461 491 l 1,9,-1
 511 708 l 1,10,-1
 620 708 l 1,11,-1
 456 0 l 1,12,-1
 351 0 l 1,13,-1
 364 68 l 1,14,15
 357 59 357 59 344 46 c 128,-1,16
 331 33 331 33 293 11 c 128,-1,17
 255 -11 255 -11 220 -11 c 0,0,1
441 404 m 1,18,19
 380 418 380 418 336 418 c 128,-1,20
 292 418 292 418 258.5 373 c 128,-1,21
 225 328 225 328 209.5 268.5 c 128,-1,22
 194 209 194 209 194 153 c 0,23,24
 194 81 194 81 255 81 c 0,25,26
 277 81 277 81 310.5 104 c 128,-1,27
 344 127 344 127 366 150 c 2,28,-1
 388 173 l 1,29,-1
 441 404 l 1,18,19
EndSplineSet
EndChar

StartChar: e
Encoding: 101 101 72
Width: 470
GlyphClass: 2
Flags: W
LayerCount: 2
Fore
SplineSet
217 101 m 128,-1,1
 240 82 240 82 274 82 c 0,2,3
 346 82 346 82 416 94 c 1,4,-1
 442 99 l 1,5,-1
 431 17 l 1,6,7
 340 -11 340 -11 247 -11 c 0,8,9
 85 -11 85 -11 85 151 c 0,10,11
 85 293 85 293 148 396 c 0,12,13
 180 448 180 448 234 479 c 128,-1,14
 288 510 288 510 357 510 c 0,15,16
 521 510 521 510 521 373 c 0,17,18
 521 281 521 281 455.5 245 c 128,-1,19
 390 209 390 209 242 209 c 2,20,-1
 200 209 l 1,21,22
 194 187 194 187 194 153.5 c 128,-1,0
 194 120 194 120 217 101 c 128,-1,1
260 291 m 2,23,24
 344 291 344 291 379 309 c 128,-1,25
 414 327 414 327 414 372 c 0,26,27
 414 422 414 422 352 422 c 0,28,29
 248 422 248 422 213 291 c 1,30,-1
 260 291 l 2,23,24
EndSplineSet
EndChar

StartChar: f
Encoding: 102 102 73
Width: 320
GlyphClass: 2
Flags: W
LayerCount: 2
Fore
SplineSet
379 719 m 0,0,1
 420 719 420 719 456 705 c 2,2,-1
 469 700 l 1,3,-1
 449 619 l 1,4,5
 412 626 412 626 382 626 c 128,-1,6
 352 626 352 626 337.5 603 c 128,-1,7
 323 580 323 580 310 529 c 2,8,-1
 303 500 l 1,9,-1
 421 500 l 1,10,-1
 398 407 l 1,11,-1
 283 407 l 1,12,-1
 188 0 l 1,13,-1
 126 -216 l 1,14,-1
 29 -216 l 1,15,-1
 174 406 l 1,16,-1
 124 406 l 1,17,-1
 146 500 l 1,18,-1
 195 500 l 1,19,-1
 202 530 l 2,20,21
 226 634 226 634 264.5 676.5 c 128,-1,22
 303 719 303 719 379 719 c 0,0,1
EndSplineSet
EndChar

StartChar: g
Encoding: 103 103 74
Width: 477
GlyphClass: 2
Flags: W
LayerCount: 2
Fore
SplineSet
392 -178 m 128,-1,1
 326 -232 326 -232 222 -232 c 0,2,3
 13 -232 13 -232 13 -98 c 0,4,5
 13 -49 13 -49 48 -16 c 128,-1,6
 83 17 83 17 139 45 c 1,7,8
 121 63 121 63 121 88.5 c 128,-1,9
 121 114 121 114 135.5 138 c 128,-1,10
 150 162 150 162 164 176 c 2,11,-1
 179 190 l 1,12,13
 110 227 110 227 110 311 c 128,-1,14
 110 395 110 395 166 453 c 128,-1,15
 222 511 222 511 315 511 c 0,16,17
 355 511 355 511 408 498 c 2,18,-1
 425 494 l 1,19,-1
 572 500 l 1,20,-1
 551 411 l 1,21,-1
 480 411 l 1,22,23
 489 388 489 388 489 352 c 0,24,25
 489 276 489 276 431 219 c 128,-1,26
 373 162 373 162 279 162 c 1,27,-1
 241 167 l 1,28,29
 219 138 219 138 219 121 c 128,-1,30
 219 104 219 104 237.5 97.5 c 128,-1,31
 256 91 256 91 319 82.5 c 128,-1,32
 382 74 382 74 420 46.5 c 128,-1,33
 458 19 458 19 458 -40 c 0,34,0
 458 -124 458 -124 392 -178 c 128,-1,1
136.5 -25 m 128,-1,36
 113 -49 113 -49 113 -76 c 128,-1,37
 113 -103 113 -103 137.5 -122 c 128,-1,38
 162 -141 162 -141 217 -141 c 128,-1,39
 272 -141 272 -141 313.5 -119 c 128,-1,40
 355 -97 355 -97 355 -52 c 0,41,42
 355 -28 355 -28 337 -18.5 c 128,-1,43
 319 -9 319 -9 262.5 -0.5 c 128,-1,44
 206 8 206 8 188 13 c 1,45,35
 160 -1 160 -1 136.5 -25 c 128,-1,36
287 251 m 0,46,47
 333 251 333 251 361 283 c 128,-1,48
 389 315 389 315 389 354 c 0,49,50
 389 422 389 422 310 422 c 0,51,52
 266 422 266 422 238.5 390.5 c 128,-1,53
 211 359 211 359 211 318 c 0,54,55
 211 251 211 251 287 251 c 0,46,47
EndSplineSet
EndChar

StartChar: h
Encoding: 104 104 75
Width: 507
GlyphClass: 2
Flags: W
LayerCount: 2
Fore
SplineSet
410 511 m 0,0,1
 471 511 471 511 500.5 474.5 c 128,-1,2
 530 438 530 438 530 386.5 c 128,-1,3
 530 335 530 335 509 248 c 2,4,-1
 452 0 l 1,5,-1
 344 0 l 1,6,-1
 400 241 l 1,7,8
 418 313 418 313 418 349 c 128,-1,9
 418 385 418 385 406.5 401 c 128,-1,10
 395 417 395 417 370.5 417 c 128,-1,11
 346 417 346 417 315.5 396.5 c 128,-1,12
 285 376 285 376 265 355 c 2,13,-1
 245 334 l 1,14,-1
 168 0 l 1,15,-1
 60 0 l 1,16,-1
 223 708 l 1,17,-1
 331 708 l 1,18,-1
 269 435 l 1,19,20
 277 444 277 444 290 456.5 c 128,-1,21
 303 469 303 469 340 490 c 128,-1,22
 377 511 377 511 410 511 c 0,0,1
EndSplineSet
EndChar

StartChar: i
Encoding: 105 105 76
Width: 227
GlyphClass: 2
Flags: W
LayerCount: 2
Fore
SplineSet
60 0 m 1,0,-1
 175 500 l 1,1,-1
 283 500 l 1,2,-1
 168 0 l 1,3,-1
 60 0 l 1,0,-1
191 574 m 1,4,-1
 218 691 l 1,5,-1
 328 691 l 1,6,-1
 301 574 l 1,7,-1
 191 574 l 1,4,-1
EndSplineSet
EndChar

StartChar: j
Encoding: 106 106 77
Width: 227
GlyphClass: 2
Flags: W
LayerCount: 2
Fore
SplineSet
60 0 m 2,0,-1
 175 500 l 1,1,-1
 283 500 l 1,2,-1
 168 0 l 2,3,4
 150 -76 150 -76 133 -110 c 128,-1,5
 116 -144 116 -144 92 -160 c 0,6,7
 40 -196 40 -196 -43 -232 c 1,8,-1
 -78 -145 l 1,9,10
 5 -103 5 -103 25.5 -81 c 128,-1,11
 46 -59 46 -59 60 0 c 2,0,-1
190 569 m 1,12,-1
 217 685 l 1,13,-1
 326 685 l 1,14,-1
 300 569 l 1,15,-1
 190 569 l 1,12,-1
EndSplineSet
EndChar

StartChar: k
Encoding: 107 107 78
Width: 458
GlyphClass: 2
Flags: W
LayerCount: 2
Fore
SplineSet
168 0 m 1,0,-1
 60 0 l 1,1,-1
 223 708 l 1,2,-1
 331 708 l 1,3,-1
 238 306 l 1,4,-1
 285 311 l 1,5,-1
 436 499 l 1,6,-1
 557 499 l 1,7,-1
 366 263 l 1,8,-1
 445 0 l 1,9,-1
 333 0 l 1,10,-1
 269 221 l 1,11,-1
 218 217 l 1,12,-1
 168 0 l 1,0,-1
EndSplineSet
EndChar

StartChar: l
Encoding: 108 108 79
Width: 231
GlyphClass: 2
Flags: W
LayerCount: 2
Fore
SplineSet
61 0 m 1,0,-1
 225 708 l 1,1,-1
 333 708 l 1,2,-1
 170 0 l 1,3,-1
 61 0 l 1,0,-1
EndSplineSet
EndChar

StartChar: m
Encoding: 109 109 80
Width: 775
GlyphClass: 2
Flags: W
LayerCount: 2
Fore
SplineSet
417 352 m 0,0,1
 417 417 417 417 364 417 c 0,2,3
 344 417 344 417 314 396.5 c 128,-1,4
 284 376 284 376 264 355 c 2,5,-1
 245 334 l 1,6,-1
 168 0 l 1,7,-1
 60 0 l 1,8,-1
 175 500 l 1,9,-1
 279 500 l 1,10,-1
 268 435 l 1,11,12
 271 438 271 438 275.5 443 c 128,-1,13
 280 448 280 448 295.5 461.5 c 128,-1,14
 311 475 311 475 328 485 c 0,15,16
 370 511 370 511 411.5 511 c 128,-1,17
 453 511 453 511 479.5 491.5 c 128,-1,18
 506 472 506 472 512 452 c 2,19,-1
 519 432 l 1,20,21
 528 441 528 441 543.5 454 c 128,-1,22
 559 467 559 467 601 489 c 128,-1,23
 643 511 643 511 679 511 c 0,24,25
 740 511 740 511 769 474.5 c 128,-1,26
 798 438 798 438 798 388 c 128,-1,27
 798 338 798 338 779 248 c 1,28,-1
 722 0 l 1,29,-1
 613 0 l 1,30,-1
 671 241 l 1,31,32
 689 325 689 325 689 349 c 0,33,34
 689 417 689 417 639 417 c 0,35,36
 618 417 618 417 589 399 c 128,-1,37
 560 381 560 381 542 363 c 2,38,-1
 524 345 l 1,39,40
 519 291 519 291 508 248 c 1,41,-1
 451 0 l 1,42,-1
 343 0 l 1,43,-1
 399 241 l 1,44,45
 417 325 417 325 417 352 c 0,0,1
EndSplineSet
EndChar

StartChar: n
Encoding: 110 110 81
Width: 506
GlyphClass: 2
Flags: W
LayerCount: 2
Fore
SplineSet
410 511 m 0,0,1
 471 511 471 511 500.5 474.5 c 128,-1,2
 530 438 530 438 530 385.5 c 128,-1,3
 530 333 530 333 509 249 c 1,4,-1
 452 0 l 1,5,-1
 344 0 l 1,6,-1
 400 241 l 1,7,8
 418 325 418 325 418 355 c 128,-1,9
 418 385 418 385 406.5 401 c 128,-1,10
 395 417 395 417 369.5 417 c 128,-1,11
 344 417 344 417 314 396.5 c 128,-1,12
 284 376 284 376 264 355 c 2,13,-1
 245 334 l 1,14,-1
 168 0 l 1,15,-1
 60 0 l 1,16,-1
 175 500 l 1,17,-1
 279 500 l 1,18,-1
 268 434 l 1,19,20
 276 443 276 443 289 455.5 c 128,-1,21
 302 468 302 468 339.5 489.5 c 128,-1,22
 377 511 377 511 410 511 c 0,0,1
EndSplineSet
EndChar

StartChar: o
Encoding: 111 111 82
Width: 495
GlyphClass: 2
Flags: W
LayerCount: 2
Fore
SplineSet
337 510 m 0,0,1
 524 510 524 510 524 330 c 0,2,3
 524 244 524 244 496 167.5 c 128,-1,4
 468 91 468 91 408.5 40 c 128,-1,5
 349 -11 349 -11 270 -11 c 0,6,7
 85 -11 85 -11 85 167 c 0,8,9
 85 253 85 253 115 330.5 c 128,-1,10
 145 408 145 408 204 459 c 128,-1,11
 263 510 263 510 337 510 c 0,0,1
270 81 m 0,12,13
 335 81 335 81 375.5 157 c 128,-1,14
 416 233 416 233 416 331 c 0,15,16
 416 372 416 372 396 395 c 128,-1,17
 376 418 376 418 337 418 c 0,18,19
 273 418 273 418 233 341 c 128,-1,20
 193 264 193 264 193 166 c 0,21,22
 193 81 193 81 270 81 c 0,12,13
EndSplineSet
EndChar

StartChar: p
Encoding: 112 112 83
Width: 515
GlyphClass: 2
Flags: W
LayerCount: 2
Fore
SplineSet
408 511 m 0,0,1
 478 511 478 511 512.5 468 c 128,-1,2
 547 425 547 425 547 344.5 c 128,-1,3
 547 264 547 264 519.5 183.5 c 128,-1,4
 492 103 492 103 433 46.5 c 128,-1,5
 374 -10 374 -10 296 -10 c 0,6,7
 245 -10 245 -10 189 4 c 2,8,-1
 169 9 l 1,9,-1
 117 -215 l 1,10,-1
 10 -215 l 1,11,-1
 175 500 l 1,12,-1
 281 500 l 1,13,-1
 267 432 l 1,14,15
 275 441 275 441 288 454 c 128,-1,16
 301 467 301 467 338.5 489 c 128,-1,17
 376 511 376 511 408 511 c 0,0,1
375 418 m 0,18,19
 354 418 354 418 320.5 395 c 128,-1,20
 287 372 287 372 264 350 c 1,21,-1
 242 327 l 1,22,-1
 190 97 l 1,23,24
 251 82 251 82 295 82 c 128,-1,25
 339 82 339 82 372.5 127.5 c 128,-1,26
 406 173 406 173 421.5 231.5 c 128,-1,27
 437 290 437 290 437 345 c 0,28,29
 437 418 437 418 375 418 c 0,18,19
EndSplineSet
EndChar

StartChar: q
Encoding: 113 113 84
Width: 514
GlyphClass: 2
Flags: W
LayerCount: 2
Fore
SplineSet
221 -11 m 0,0,1
 154 -11 154 -11 119 31.5 c 128,-1,2
 84 74 84 74 84 156.5 c 128,-1,3
 84 239 84 239 112 319 c 128,-1,4
 140 399 140 399 199 454.5 c 128,-1,5
 258 510 258 510 335 510 c 0,6,7
 411 510 411 510 526 488 c 1,8,-1
 566 481 l 1,9,-1
 407 -213 l 1,10,-1
 299 -213 l 1,11,-1
 364 69 l 1,12,13
 361 66 361 66 356.5 60.5 c 128,-1,14
 352 55 352 55 336.5 41 c 128,-1,15
 321 27 321 27 305 16 c 0,16,17
 263 -11 263 -11 221 -11 c 0,0,1
441 404 m 1,18,19
 380 418 380 418 336.5 418 c 128,-1,20
 293 418 293 418 260 374.5 c 128,-1,21
 227 331 227 331 210.5 271.5 c 128,-1,22
 194 212 194 212 194 155 c 0,23,24
 194 82 194 82 255 82 c 0,25,26
 277 82 277 82 310 104.5 c 128,-1,27
 343 127 343 127 366 150 c 2,28,-1
 388 173 l 1,29,-1
 441 404 l 1,18,19
EndSplineSet
EndChar

StartChar: r
Encoding: 114 114 85
Width: 326
GlyphClass: 2
Flags: W
LayerCount: 2
Fore
SplineSet
60 0 m 1,0,-1
 175 500 l 1,1,-1
 282 500 l 1,2,-1
 265 427 l 1,3,4
 299 454 299 454 347.5 479.5 c 128,-1,5
 396 505 396 505 432 511 c 1,6,-1
 401 399 l 1,7,8
 356 386 356 386 272 346 c 1,9,-1
 246 334 l 1,10,-1
 168 0 l 1,11,-1
 60 0 l 1,0,-1
EndSplineSet
EndChar

StartChar: s
Encoding: 115 115 86
Width: 431
GlyphClass: 2
Flags: W
LayerCount: 2
Fore
SplineSet
306 418 m 0,0,1
 267 418 267 418 244.5 398 c 128,-1,2
 222 378 222 378 222 353 c 128,-1,3
 222 328 222 328 238 318 c 128,-1,4
 254 308 254 308 297 295.5 c 128,-1,5
 340 283 340 283 360 275 c 128,-1,6
 380 267 380 267 400 254 c 0,7,8
 436 231 436 231 436 175 c 0,9,10
 436 84 436 84 375 36.5 c 128,-1,11
 314 -11 314 -11 215 -11 c 0,12,13
 139 -11 139 -11 70 11 c 2,14,-1
 48 18 l 1,15,-1
 68 99 l 1,16,17
 163 81 163 81 219 81 c 0,18,19
 326 81 326 81 326 154 c 0,20,21
 326 173 326 173 310 182 c 128,-1,22
 294 191 294 191 236.5 206 c 128,-1,23
 179 221 179 221 146 246.5 c 128,-1,24
 113 272 113 272 113 321 c 0,25,26
 113 408 113 408 172 459 c 128,-1,27
 231 510 231 510 317 510 c 0,28,29
 400 510 400 510 468 490 c 1,30,-1
 490 484 l 1,31,-1
 470 403 l 1,32,33
 371 418 371 418 306 418 c 0,0,1
EndSplineSet
EndChar

StartChar: t
Encoding: 116 116 87
Width: 324
GlyphClass: 2
Flags: W
LayerCount: 2
Fore
SplineSet
217 118 m 0,0,1
 217 81 217 81 256 81 c 1,2,-1
 328 87 l 1,3,-1
 319 8 l 1,4,5
 267 -11 267 -11 214.5 -11 c 128,-1,6
 162 -11 162 -11 133.5 17 c 128,-1,7
 105 45 105 45 105 88.5 c 128,-1,8
 105 132 105 132 120 194 c 2,9,-1
 170 407 l 1,10,-1
 112 407 l 1,11,-1
 136 500 l 1,12,-1
 193 500 l 1,13,-1
 224 637 l 1,14,-1
 333 637 l 1,15,-1
 301 500 l 1,16,-1
 421 500 l 1,17,-1
 398 407 l 1,18,-1
 279 407 l 1,19,-1
 227 185 l 2,20,21
 217 143 217 143 217 118 c 0,0,1
EndSplineSet
EndChar

StartChar: u
Encoding: 117 117 88
Width: 506
GlyphClass: 2
Flags: W
LayerCount: 2
Fore
SplineSet
212 -11 m 0,0,1
 151 -11 151 -11 121.5 25.5 c 128,-1,2
 92 62 92 62 92 123 c 0,3,4
 92 160 92 160 112 251 c 2,5,-1
 169 500 l 1,6,-1
 277 500 l 1,7,-1
 222 259 l 1,8,9
 204 187 204 187 204 148 c 0,10,11
 204 83 204 83 256 83 c 0,12,13
 277 83 277 83 307 103.5 c 128,-1,14
 337 124 337 124 357 145 c 2,15,-1
 377 166 l 1,16,-1
 454 500 l 1,17,-1
 562 500 l 1,18,-1
 447 0 l 1,19,-1
 343 0 l 1,20,-1
 354 66 l 1,21,22
 346 57 346 57 333 44.5 c 128,-1,23
 320 32 320 32 282.5 10.5 c 128,-1,24
 245 -11 245 -11 212 -11 c 0,0,1
EndSplineSet
EndChar

StartChar: v
Encoding: 118 118 89
Width: 459
GlyphClass: 2
Flags: W
LayerCount: 2
Fore
SplineSet
131 500 m 1,0,-1
 238 500 l 1,1,-1
 233 90 l 1,2,-1
 257 90 l 1,3,-1
 448 500 l 1,4,-1
 558 500 l 1,5,-1
 315 0 l 1,6,-1
 135 0 l 1,7,-1
 131 500 l 1,0,-1
EndSplineSet
EndChar

StartChar: w
Encoding: 119 119 90
Width: 748
GlyphClass: 2
Flags: W
LayerCount: 2
Fore
SplineSet
139 500 m 1,0,-1
 248 500 l 1,1,-1
 226 93 l 1,2,-1
 247 93 l 1,3,-1
 426 490 l 1,4,-1
 550 490 l 1,5,-1
 541 93 l 1,6,-1
 562 93 l 1,7,-1
 731 500 l 1,8,-1
 841 500 l 1,9,-1
 627 0 l 1,10,-1
 443 0 l 1,11,-1
 452 346 l 1,12,-1
 300 0 l 1,13,-1
 119 0 l 1,14,-1
 139 500 l 1,0,-1
EndSplineSet
EndChar

StartChar: x
Encoding: 120 120 91
Width: 425
GlyphClass: 2
Flags: W
LayerCount: 2
Fore
SplineSet
129 500 m 1,0,-1
 240 500 l 1,1,-1
 291 328 l 1,2,-1
 418 500 l 1,3,-1
 529 500 l 1,4,-1
 327 242 l 1,5,-1
 411 0 l 1,6,-1
 300 0 l 1,7,-1
 250 167 l 1,8,-1
 125 0 l 1,9,-1
 11 0 l 1,10,-1
 212 250 l 1,11,-1
 129 500 l 1,0,-1
EndSplineSet
EndChar

StartChar: y
Encoding: 121 121 92
Width: 460
GlyphClass: 2
Flags: W
LayerCount: 2
Fore
SplineSet
131 500 m 1,0,-1
 238 500 l 1,1,-1
 233 90 l 1,2,-1
 255 90 l 1,3,-1
 448 500 l 1,4,-1
 558 500 l 1,5,-1
 212 -215 l 1,6,-1
 103 -215 l 1,7,-1
 211 0 l 1,8,-1
 135 0 l 1,9,-1
 131 500 l 1,0,-1
EndSplineSet
EndChar

StartChar: z
Encoding: 122 122 93
Width: 416
GlyphClass: 2
Flags: W
LayerCount: 2
Fore
SplineSet
129 407 m 1,0,-1
 152 500 l 1,1,-1
 496 500 l 1,2,-1
 474 410 l 1,3,-1
 183 93 l 1,4,-1
 403 93 l 1,5,-1
 379 0 l 1,6,-1
 36 0 l 1,7,-1
 55 91 l 1,8,-1
 345 407 l 1,9,-1
 129 407 l 1,0,-1
EndSplineSet
EndChar

StartChar: braceleft
Encoding: 123 123 94
Width: 299
GlyphClass: 2
Flags: W
LayerCount: 2
Fore
SplineSet
188 312 m 1,0,1
 250 281 250 281 250 228 c 0,2,3
 250 202 250 202 227 122.5 c 128,-1,4
 204 43 204 43 204 21 c 0,5,6
 204 -36 204 -36 275 -36 c 1,7,-1
 249 -130 l 1,8,9
 177 -129 177 -129 137 -98 c 128,-1,10
 97 -67 97 -67 97 -10 c 0,11,12
 97 15 97 15 119 96 c 128,-1,13
 141 177 141 177 141 196 c 0,14,15
 141 247 141 247 72 279 c 1,16,-1
 91 359 l 1,17,18
 154 375 154 375 175 395.5 c 128,-1,19
 196 416 196 416 206 458 c 0,20,21
 210 473 210 473 221.5 535 c 128,-1,22
 233 597 233 597 234 601 c 0,23,24
 259 683 259 683 310.5 717.5 c 128,-1,25
 362 752 362 752 459 756 c 1,26,-1
 441 662 l 1,27,28
 390 658 390 658 365.5 635.5 c 128,-1,29
 341 613 341 613 331 571 c 1,30,-1
 308 448 l 1,31,32
 294 389 294 389 267.5 359.5 c 128,-1,33
 241 330 241 330 188 312 c 1,0,1
EndSplineSet
Substitution2: "'case' Case-Sensitive Forms in Latin lookup 4 subtable" braceleft.cap
EndChar

StartChar: bar
Encoding: 124 124 95
Width: 325
GlyphClass: 2
Flags: W
LayerCount: 2
Fore
SplineSet
165 -215 m 1,0,-1
 165 708 l 1,1,-1
 273 708 l 1,2,-1
 273 -215 l 1,3,-1
 165 -215 l 1,0,-1
EndSplineSet
EndChar

StartChar: braceright
Encoding: 125 125 96
Width: 298
GlyphClass: 2
Flags: W
LayerCount: 2
Fore
SplineSet
254 311 m 1,0,1
 192 342 192 342 192 394 c 0,2,3
 192 421 192 421 215 500.5 c 128,-1,4
 238 580 238 580 238 602 c 0,5,6
 238 659 238 659 167 659 c 1,7,-1
 193 753 l 1,8,9
 265 752 265 752 305 721 c 128,-1,10
 345 690 345 690 345 633 c 0,11,12
 345 608 345 608 323 527 c 128,-1,13
 301 446 301 446 301 427 c 0,14,15
 301 376 301 376 370 344 c 1,16,-1
 351 264 l 1,17,18
 288 248 288 248 267 227.5 c 128,-1,19
 246 207 246 207 236 165 c 0,20,21
 232 150 232 150 220.5 88 c 128,-1,22
 209 26 209 26 208 22 c 0,23,24
 183 -60 183 -60 131.5 -94.5 c 128,-1,25
 80 -129 80 -129 -17 -133 c 1,26,-1
 1 -39 l 1,27,28
 52 -35 52 -35 76.5 -12.5 c 128,-1,29
 101 10 101 10 111 52 c 1,30,-1
 134 175 l 1,31,32
 148 234 148 234 174.5 263.5 c 128,-1,33
 201 293 201 293 254 311 c 1,0,1
EndSplineSet
Substitution2: "'case' Case-Sensitive Forms in Latin lookup 4 subtable" braceright.cap
EndChar

StartChar: asciitilde
Encoding: 126 126 97
Width: 560
GlyphClass: 2
Flags: W
LayerCount: 2
Fore
SplineSet
440.5 181 m 128,-1,1
 413 181 413 181 335.5 206.5 c 128,-1,2
 258 232 258 232 239 232 c 128,-1,3
 220 232 220 232 193.5 221.5 c 128,-1,4
 167 211 167 211 150 200 c 2,5,-1
 133 190 l 1,6,-1
 123 278 l 1,7,8
 186 330 186 330 243 330 c 0,9,10
 272 330 272 330 347 304.5 c 128,-1,11
 422 279 422 279 442 279 c 0,12,13
 476 279 476 279 529 310 c 2,14,-1
 546 320 l 1,15,-1
 555 233 l 1,16,17
 537 215 537 215 502.5 198 c 128,-1,0
 468 181 468 181 440.5 181 c 128,-1,1
EndSplineSet
EndChar

StartChar: exclamdown
Encoding: 161 161 99
Width: 168
GlyphClass: 2
Flags: W
LayerCount: 2
Fore
SplineSet
195 254 m 1,0,-1
 95 -200 l 1,1,-1
 -19 -200 l 1,2,-1
 94 254 l 1,3,-1
 195 254 l 1,0,-1
254 500 m 1,4,-1
 223 365 l 1,5,-1
 113 365 l 1,6,-1
 144 500 l 1,7,-1
 254 500 l 1,4,-1
EndSplineSet
Substitution2: "'case' Case-Sensitive Forms in Latin lookup 4 subtable" exclamdown.cap
EndChar

StartChar: cent
Encoding: 162 162 100
Width: 560
GlyphClass: 2
Flags: W
LayerCount: 2
Fore
SplineSet
162.5 104.5 m 128,-1,1
 152 135 152 135 151 156.5 c 128,-1,2
 150 178 150 178 150 197 c 128,-1,3
 150 216 150 216 160 249 c 1,4,5
 186 352 186 352 243.5 406.5 c 128,-1,6
 301 461 301 461 382 466 c 1,7,-1
 407 575 l 1,8,-1
 495 575 l 1,9,-1
 468 464 l 1,10,-1
 547 454 l 1,11,-1
 520 362 l 1,12,13
 444 367 444 367 408 367 c 0,14,15
 346 367 346 367 313 338.5 c 128,-1,16
 280 310 280 310 265 249 c 0,17,18
 258 222 258 222 258 199 c 128,-1,19
 258 176 258 176 268 161 c 0,20,21
 286 133 286 133 355 133 c 1,22,-1
 470 138 l 1,23,-1
 452 46 l 1,24,25
 406 40 406 40 367 38 c 1,26,-1
 341 -77 l 1,27,-1
 254 -77 l 1,28,-1
 278 32 l 1,29,30
 233 34 233 34 203 54 c 128,-1,0
 173 74 173 74 162.5 104.5 c 128,-1,1
EndSplineSet
EndChar

StartChar: sterling
Encoding: 163 163 101
Width: 560
GlyphClass: 2
Flags: W
LayerCount: 2
Fore
SplineSet
592 575 m 1,0,1
 526 583 526 583 493 583 c 128,-1,2
 460 583 460 583 444.5 575.5 c 128,-1,3
 429 568 429 568 418 549 c 0,4,5
 402 520 402 520 389 463 c 2,6,-1
 382 433 l 1,7,-1
 555 433 l 1,8,-1
 533 340 l 1,9,-1
 361 340 l 1,10,-1
 304 93 l 1,11,-1
 416 93 l 1,12,-1
 487 110 l 1,13,-1
 485 17 l 1,14,-1
 409 0 l 1,15,-1
 77 0 l 1,16,-1
 98 93 l 1,17,-1
 194 93 l 1,18,-1
 250 340 l 1,19,-1
 172 340 l 1,20,-1
 194 433 l 1,21,-1
 271 433 l 1,22,-1
 282 476 l 1,23,24
 309 586 309 586 350.5 632.5 c 128,-1,25
 392 679 392 679 478 679 c 0,26,27
 518 679 518 679 594 663 c 2,28,-1
 617 658 l 1,29,-1
 592 575 l 1,0,1
EndSplineSet
EndChar

StartChar: currency
Encoding: 164 164 102
Width: 560
GlyphClass: 2
Flags: W
LayerCount: 2
Fore
SplineSet
338.5 62 m 128,-1,1
 290 62 290 62 247 86 c 1,2,-1
 176 14 l 1,3,-1
 101 89 l 1,4,-1
 172 160 l 1,5,6
 149 203 149 203 149 252 c 128,-1,7
 149 301 149 301 172 343 c 1,8,-1
 101 415 l 1,9,-1
 176 490 l 1,10,-1
 247 418 l 1,11,12
 290 441 290 441 338.5 441 c 128,-1,13
 387 441 387 441 430 418 c 1,14,-1
 501 490 l 1,15,-1
 576 415 l 1,16,-1
 504 343 l 1,17,18
 527 301 527 301 527 252 c 128,-1,19
 527 203 527 203 504 160 c 1,20,-1
 576 89 l 1,21,-1
 501 14 l 1,22,-1
 430 86 l 1,23,0
 387 62 387 62 338.5 62 c 128,-1,1
338.5 162 m 128,-1,25
 376 162 376 162 402 188 c 128,-1,26
 428 214 428 214 428 252 c 128,-1,27
 428 290 428 290 402 316 c 128,-1,28
 376 342 376 342 338.5 342 c 128,-1,29
 301 342 301 342 275 316 c 128,-1,30
 249 290 249 290 249 252 c 128,-1,31
 249 214 249 214 275 188 c 128,-1,24
 301 162 301 162 338.5 162 c 128,-1,25
EndSplineSet
EndChar

StartChar: yen
Encoding: 165 165 103
Width: 560
GlyphClass: 2
Flags: W
LayerCount: 2
Fore
SplineSet
140 291 m 1,0,-1
 161 386 l 1,1,-1
 255 386 l 1,2,-1
 145 660 l 1,3,-1
 265 660 l 1,4,-1
 369 408 l 1,5,-1
 570 660 l 1,6,-1
 714 660 l 1,7,-1
 489 386 l 1,8,-1
 582 386 l 1,9,-1
 560 291 l 1,10,-1
 416 291 l 1,11,-1
 405 277 l 1,12,-1
 395 236 l 1,13,-1
 548 236 l 1,14,-1
 526 140 l 1,15,-1
 373 140 l 1,16,-1
 340 0 l 1,17,-1
 229 0 l 1,18,-1
 263 140 l 1,19,-1
 104 140 l 1,20,-1
 127 236 l 1,21,-1
 284 236 l 1,22,-1
 294 278 l 1,23,-1
 290 291 l 1,24,-1
 140 291 l 1,0,-1
EndSplineSet
EndChar

StartChar: brokenbar
Encoding: 166 166 104
Width: 327
GlyphClass: 2
Flags: W
LayerCount: 2
Fore
SplineSet
166 708 m 1,0,-1
 275 708 l 1,1,-1
 275 335 l 1,2,-1
 166 335 l 1,3,-1
 166 708 l 1,0,-1
166 164 m 1,4,-1
 275 164 l 1,5,-1
 275 -215 l 1,6,-1
 166 -215 l 1,7,-1
 166 164 l 1,4,-1
EndSplineSet
EndChar

StartChar: section
Encoding: 167 167 105
Width: 480
GlyphClass: 2
Flags: W
LayerCount: 2
Fore
SplineSet
534 530 m 1,0,1
 432 545 432 545 380.5 545 c 128,-1,2
 329 545 329 545 298 522.5 c 128,-1,3
 267 500 267 500 267 460 c 0,4,5
 267 440 267 440 282 427.5 c 128,-1,6
 297 415 297 415 316 409 c 128,-1,7
 335 403 335 403 355 399 c 128,-1,8
 375 395 375 395 379 394 c 0,9,10
 499 368 499 368 499 274 c 0,11,12
 499 203 499 203 416 110 c 1,13,14
 433 84 433 84 433 57.5 c 128,-1,15
 433 31 433 31 428.5 6.5 c 128,-1,16
 424 -18 424 -18 408 -51 c 128,-1,17
 392 -84 392 -84 367.5 -109.5 c 128,-1,18
 343 -135 343 -135 296.5 -153 c 128,-1,19
 250 -171 250 -171 206 -171 c 0,20,21
 134 -171 134 -171 52 -156 c 2,22,-1
 24 -151 l 1,23,-1
 55 -60 l 1,24,25
 154 -74 154 -74 206.5 -74 c 128,-1,26
 259 -74 259 -74 292.5 -49 c 128,-1,27
 326 -24 326 -24 326 6 c 128,-1,28
 326 36 326 36 309 46 c 0,29,30
 290 58 290 58 217.5 77 c 128,-1,31
 145 96 145 96 117 124.5 c 128,-1,32
 89 153 89 153 89 195 c 128,-1,33
 89 237 89 237 108 274 c 0,34,35
 137 329 137 329 181 361 c 1,36,37
 161 381 161 381 161 427 c 128,-1,38
 161 473 161 473 176.5 507.5 c 128,-1,39
 192 542 192 542 220.5 573 c 128,-1,40
 249 604 249 604 297 623.5 c 128,-1,41
 345 643 345 643 388 643 c 0,42,43
 456 643 456 643 534 627 c 2,44,-1
 559 622 l 1,45,-1
 534 530 l 1,0,1
216 280.5 m 128,-1,47
 200 250 200 250 200 228.5 c 128,-1,48
 200 207 200 207 214.5 197 c 128,-1,49
 229 187 229 187 264 178 c 1,50,51
 322 160 322 160 345 150 c 1,52,53
 355 160 355 160 371 193 c 128,-1,54
 387 226 387 226 387 248 c 128,-1,55
 387 270 387 270 370 282 c 128,-1,56
 353 294 353 294 303.5 304.5 c 128,-1,57
 254 315 254 315 243 323 c 1,58,46
 232 311 232 311 216 280.5 c 128,-1,47
EndSplineSet
EndChar

StartChar: dieresis
Encoding: 168 168 106
Width: 586
GlyphClass: 2
Flags: W
LayerCount: 2
Fore
SplineSet
227 609 m 1,0,-1
 254 726 l 1,1,-1
 343 726 l 1,2,-1
 316 609 l 1,3,-1
 227 609 l 1,0,-1
416 609 m 1,4,-1
 442 726 l 1,5,-1
 532 726 l 1,6,-1
 504 609 l 1,7,-1
 416 609 l 1,4,-1
EndSplineSet
EndChar

StartChar: copyright
Encoding: 169 169 107
Width: 642
GlyphClass: 2
Flags: W
LayerCount: 2
Fore
SplineSet
228 235.5 m 128,-1,1
 151 316 151 316 151 435 c 128,-1,2
 151 554 151 554 228 633.5 c 128,-1,3
 305 713 305 713 423 713 c 128,-1,4
 541 713 541 713 616.5 632 c 128,-1,5
 692 551 692 551 692 432.5 c 128,-1,6
 692 314 692 314 616.5 234.5 c 128,-1,7
 541 155 541 155 423 155 c 128,-1,0
 305 155 305 155 228 235.5 c 128,-1,1
205 434 m 128,-1,9
 205 340 205 340 266.5 274 c 128,-1,10
 328 208 328 208 420.5 208 c 128,-1,11
 513 208 513 208 575 273.5 c 128,-1,12
 637 339 637 339 637 433.5 c 128,-1,13
 637 528 637 528 575 594.5 c 128,-1,14
 513 661 513 661 421 661 c 128,-1,15
 329 661 329 661 267 594.5 c 128,-1,8
 205 528 205 528 205 434 c 128,-1,9
430 595 m 0,16,17
 468 595 468 595 509 582 c 1,18,-1
 503 510 l 1,19,20
 467 517 467 517 437.5 517 c 128,-1,21
 408 517 408 517 398.5 499.5 c 128,-1,22
 389 482 389 482 389 436.5 c 128,-1,23
 389 391 389 391 399 371 c 128,-1,24
 409 351 409 351 435 351 c 1,25,-1
 503 357 l 1,26,-1
 509 288 l 1,27,28
 477 272 477 272 418.5 272 c 128,-1,29
 360 272 360 272 332 308.5 c 128,-1,30
 304 345 304 345 304 434 c 128,-1,31
 304 523 304 523 333 559 c 128,-1,32
 362 595 362 595 430 595 c 0,16,17
EndSplineSet
EndChar

StartChar: ordfeminine
Encoding: 170 170 108
Width: 335
GlyphClass: 2
Flags: W
LayerCount: 2
Fore
SplineSet
294 362 m 1,0,1
 239 333 239 333 191.5 333 c 128,-1,2
 144 333 144 333 125 360 c 0,3,4
 113 378 113 378 113 398 c 0,5,6
 113 470 113 470 158 504 c 1,7,8
 189 526 189 526 250 529 c 2,9,-1
 324 533 l 1,10,-1
 330 556 l 2,11,12
 333 569 333 569 324 575.5 c 128,-1,13
 315 582 315 582 292 582 c 1,14,-1
 166 575 l 1,15,-1
 177 638 l 1,16,17
 253 659 253 659 318 659 c 128,-1,18
 383 659 383 659 410 636 c 0,19,20
 429 620 429 620 429 596 c 128,-1,21
 429 572 429 572 424 551 c 2,22,-1
 392 411 l 1,23,24
 398 402 398 402 412 400 c 1,25,-1
 395 332 l 1,26,27
 340 332 340 332 321.5 339 c 128,-1,28
 303 346 303 346 294 362 c 1,0,1
208 428 m 0,29,30
 208 406 208 406 236 406 c 0,31,32
 259 406 259 406 289 418 c 2,33,-1
 299 422 l 1,34,-1
 311 474 l 1,35,-1
 253 470 l 2,36,37
 216 467 216 467 209 437 c 0,38,39
 208 432 208 432 208 428 c 0,29,30
EndSplineSet
EndChar

StartChar: guillemotleft
Encoding: 171 171 109
Width: 466
GlyphClass: 2
Flags: W
LayerCount: 2
Fore
SplineSet
542 424 m 1,0,-1
 511 317 l 1,1,-1
 390 242 l 1,2,-1
 474 157 l 1,3,-1
 447 59 l 1,4,-1
 289 220 l 1,5,-1
 308 270 l 1,6,-1
 542 424 l 1,0,-1
318 424 m 1,7,-1
 287 317 l 1,8,-1
 166 242 l 1,9,-1
 250 157 l 1,10,-1
 223 59 l 1,11,-1
 65 220 l 1,12,-1
 84 270 l 1,13,-1
 318 424 l 1,7,-1
EndSplineSet
EndChar

StartChar: logicalnot
Encoding: 172 172 110
Width: 560
GlyphClass: 2
Flags: W
LayerCount: 2
Fore
SplineSet
117 351 m 1,0,-1
 550 351 l 1,1,-1
 550 110 l 1,2,-1
 452 110 l 1,3,-1
 452 254 l 1,4,-1
 117 254 l 1,5,-1
 117 351 l 1,0,-1
EndSplineSet
EndChar

StartChar: registered
Encoding: 174 174 111
Width: 642
GlyphClass: 2
Flags: W
LayerCount: 2
Fore
SplineSet
228 235.5 m 128,-1,1
 151 316 151 316 151 435 c 128,-1,2
 151 554 151 554 227.5 633.5 c 128,-1,3
 304 713 304 713 422.5 713 c 128,-1,4
 541 713 541 713 616.5 632 c 128,-1,5
 692 551 692 551 692 432.5 c 128,-1,6
 692 314 692 314 616.5 234.5 c 128,-1,7
 541 155 541 155 423 155 c 128,-1,0
 305 155 305 155 228 235.5 c 128,-1,1
205 434 m 128,-1,9
 205 340 205 340 267.5 274 c 128,-1,10
 330 208 330 208 422 208 c 128,-1,11
 514 208 514 208 575.5 273.5 c 128,-1,12
 637 339 637 339 637 433.5 c 128,-1,13
 637 528 637 528 575 594.5 c 128,-1,14
 513 661 513 661 421.5 661 c 128,-1,15
 330 661 330 661 267.5 594.5 c 128,-1,8
 205 528 205 528 205 434 c 128,-1,9
385 378 m 1,16,-1
 385 279 l 1,17,-1
 305 279 l 1,18,-1
 305 588 l 1,19,-1
 430 588 l 2,20,21
 544 588 544 588 544 488 c 0,22,23
 544 450 544 450 534.5 428.5 c 128,-1,24
 525 407 525 407 501 391 c 1,25,-1
 548 279 l 1,26,-1
 464 279 l 1,27,-1
 427 378 l 1,28,-1
 385 378 l 1,16,-1
384 527 m 1,29,-1
 384 438 l 1,30,-1
 426 438 l 2,31,32
 467 438 467 438 467 482.5 c 128,-1,33
 467 527 467 527 420 527 c 2,34,-1
 384 527 l 1,29,-1
EndSplineSet
EndChar

StartChar: macron
Encoding: 175 175 112
Width: 452
GlyphClass: 2
Flags: W
LayerCount: 2
Fore
SplineSet
222 632 m 1,0,-1
 242 720 l 1,1,-1
 537 720 l 1,2,-1
 516 632 l 1,3,-1
 222 632 l 1,0,-1
EndSplineSet
EndChar

StartChar: degree
Encoding: 176 176 113
Width: 560
GlyphClass: 2
Flags: W
LayerCount: 2
Fore
SplineSet
260 550 m 128,-1,1
 260 615 260 615 301 655.5 c 128,-1,2
 342 696 342 696 407 696 c 128,-1,3
 472 696 472 696 512.5 655.5 c 128,-1,4
 553 615 553 615 553 550 c 128,-1,5
 553 485 553 485 512.5 445 c 128,-1,6
 472 405 472 405 407 405 c 128,-1,7
 342 405 342 405 301 445 c 128,-1,0
 260 485 260 485 260 550 c 128,-1,1
325 550 m 128,-1,9
 325 513 325 513 347.5 490 c 128,-1,10
 370 467 370 467 407 467 c 128,-1,11
 444 467 444 467 467.5 490 c 128,-1,12
 491 513 491 513 491 550 c 128,-1,13
 491 587 491 587 467.5 610.5 c 128,-1,14
 444 634 444 634 407 634 c 128,-1,15
 370 634 370 634 347.5 610.5 c 128,-1,8
 325 587 325 587 325 550 c 128,-1,9
EndSplineSet
EndChar

StartChar: plusminus
Encoding: 177 177 114
Width: 560
GlyphClass: 2
Flags: W
LayerCount: 2
Fore
SplineSet
101 280 m 1,0,-1
 101 378 l 1,1,-1
 278 378 l 1,2,-1
 278 493 l 1,3,-1
 376 493 l 1,4,-1
 376 378 l 1,5,-1
 556 378 l 1,6,-1
 556 280 l 1,7,-1
 376 280 l 1,8,-1
 376 168 l 1,9,-1
 278 168 l 1,10,-1
 278 280 l 1,11,-1
 101 280 l 1,0,-1
101 125 m 1,12,-1
 556 125 l 1,13,-1
 556 27 l 1,14,-1
 101 27 l 1,15,-1
 101 125 l 1,12,-1
EndSplineSet
EndChar

StartChar: twosuperior
Encoding: 178 178 115
Width: 280
GlyphClass: 2
Flags: W
LayerCount: 2
Fore
SplineSet
216 790 m 1,0,1
 286 800 286 800 336 800 c 0,2,3
 417 800 417 800 417 741 c 0,4,5
 417 658 417 658 328 599 c 1,6,-1
 269 557 l 1,7,-1
 377 557 l 1,8,-1
 358 478 l 1,9,-1
 137 478 l 1,10,-1
 155 553 l 1,11,-1
 252 624 l 1,12,13
 311 665 311 665 317 692 c 1,14,15
 321 705 321 705 311.5 710.5 c 128,-1,16
 302 716 302 716 281 716 c 1,17,-1
 199 709 l 1,18,-1
 216 790 l 1,0,1
EndSplineSet
Substitution2: "Single Substitution lookup 5 subtable" twoinferior
EndChar

StartChar: threesuperior
Encoding: 179 179 116
Width: 280
GlyphClass: 2
Flags: W
LayerCount: 2
Fore
SplineSet
215 791 m 1,0,1
 281 800 281 800 331 800 c 128,-1,2
 381 800 381 800 400 782.5 c 128,-1,3
 419 765 419 765 419 747 c 0,4,5
 419 671 419 671 364 642 c 1,6,7
 390 630 390 630 390 597 c 0,8,9
 390 584 390 584 386 567 c 0,10,11
 361 468 361 468 248 468 c 0,12,13
 204 468 204 468 150 474 c 2,14,-1
 132 476 l 1,15,-1
 157 553 l 1,16,17
 215 547 215 547 252.5 547 c 128,-1,18
 290 547 290 547 297 574 c 0,19,20
 298 578 298 578 298 582 c 0,21,22
 298 600 298 600 268 600 c 2,23,-1
 202 600 l 1,24,-1
 220 672 l 1,25,-1
 284 672 l 2,26,27
 312 672 312 672 319 698 c 0,28,29
 322 710 322 710 315 715.5 c 128,-1,30
 308 721 308 721 290 721 c 1,31,-1
 201 715 l 1,32,-1
 215 791 l 1,0,1
EndSplineSet
Substitution2: "Single Substitution lookup 5 subtable" threeinferior
EndChar

StartChar: acute
Encoding: 180 180 117
Width: 553
GlyphClass: 2
Flags: W
LayerCount: 2
Fore
SplineSet
265 585 m 1,0,-1
 256 671 l 1,1,-1
 504 763 l 1,2,-1
 513 666 l 1,3,-1
 265 585 l 1,0,-1
EndSplineSet
EndChar

StartChar: mu
Encoding: 181 181 118
Width: 560
GlyphClass: 2
Flags: W
LayerCount: 2
Fore
SplineSet
233 148 m 0,0,1
 233 83 233 83 285 83 c 0,2,3
 306 83 306 83 336 103.5 c 128,-1,4
 366 124 366 124 386 145 c 2,5,-1
 406 166 l 1,6,-1
 483 500 l 1,7,-1
 591 500 l 1,8,-1
 476 0 l 1,9,-1
 372 0 l 1,10,-1
 383 66 l 1,11,12
 375 57 375 57 362 44.5 c 128,-1,13
 349 32 349 32 311.5 10.5 c 128,-1,14
 274 -11 274 -11 243 -11 c 128,-1,15
 212 -11 212 -11 191 -2 c 1,16,-1
 142 -215 l 1,17,-1
 34 -215 l 1,18,-1
 135 227 l 1,19,-1
 198 500 l 1,20,-1
 306 500 l 1,21,-1
 243 224 l 2,22,23
 233 179 233 179 233 148 c 0,0,1
EndSplineSet
EndChar

StartChar: paragraph
Encoding: 182 182 119
Width: 561
GlyphClass: 2
Flags: W
LayerCount: 2
Fore
SplineSet
142 465 m 0,0,1
 142 556 142 556 206.5 628 c 128,-1,2
 271 700 271 700 368 700 c 2,3,-1
 680 700 l 1,4,-1
 659 612 l 1,5,-1
 610 612 l 1,6,-1
 464 0 l 1,7,-1
 376 0 l 1,8,-1
 522 612 l 1,9,-1
 442 612 l 1,10,-1
 296 0 l 1,11,-1
 207 0 l 1,12,-1
 283 317 l 1,13,14
 210 318 210 318 176 360 c 128,-1,15
 142 402 142 402 142 465 c 0,0,1
EndSplineSet
EndChar

StartChar: periodcentered
Encoding: 183 183 120
Width: 159
GlyphClass: 2
Flags: W
LayerCount: 2
Fore
SplineSet
76 223 m 1,0,-1
 109 370 l 1,1,-1
 219 370 l 1,2,-1
 186 223 l 1,3,-1
 76 223 l 1,0,-1
EndSplineSet
Substitution2: "'case' Case-Sensitive Forms in Latin lookup 4 subtable" periodcentered.cap
EndChar

StartChar: cedilla
Encoding: 184 184 121
Width: 791
GlyphClass: 2
Flags: W
LayerCount: 2
Fore
SplineSet
383 -221 m 0,0,1
 351 -221 351 -221 312 -214 c 2,2,-1
 301 -212 l 1,3,-1
 318 -144 l 1,4,5
 351 -146 351 -146 371 -146 c 0,6,7
 409 -146 409 -146 416 -117 c 0,8,9
 420 -101 420 -101 411.5 -96 c 128,-1,10
 403 -91 403 -91 384 -91 c 2,11,-1
 355 -91 l 1,12,-1
 377 5 l 1,13,-1
 423 5 l 1,14,-1
 411 -38 l 1,15,-1
 417 -38 l 2,16,17
 506 -38 506 -38 506 -99 c 0,18,19
 506 -110 506 -110 503 -124 c 0,20,21
 480 -221 480 -221 383 -221 c 0,0,1
EndSplineSet
EndChar

StartChar: onesuperior
Encoding: 185 185 122
Width: 280
GlyphClass: 2
Flags: W
LayerCount: 2
Fore
SplineSet
195 717 m 1,0,-1
 316 790 l 1,1,-1
 397 790 l 1,2,-1
 320 478 l 1,3,-1
 232 478 l 1,4,-1
 285 693 l 1,5,-1
 220 655 l 1,6,-1
 195 717 l 1,0,-1
EndSplineSet
Substitution2: "Single Substitution lookup 5 subtable" oneinferior
EndChar

StartChar: ordmasculine
Encoding: 186 186 123
Width: 342
GlyphClass: 2
Flags: W
LayerCount: 2
Fore
SplineSet
321 659 m 0,0,1
 368 659 368 659 403 641.5 c 128,-1,2
 438 624 438 624 444 588 c 0,3,4
 447 573 447 573 447 551.5 c 128,-1,5
 447 530 447 530 439 499 c 0,6,7
 418 408 418 408 372.5 370 c 128,-1,8
 327 332 327 332 244 332 c 0,9,10
 185 332 185 332 154.5 361.5 c 128,-1,11
 124 391 124 391 124 441 c 0,12,13
 124 444 124 444 125 458 c 128,-1,14
 126 472 126 472 133 502 c 0,15,16
 153 587 153 587 198.5 623 c 128,-1,17
 244 659 244 659 321 659 c 0,0,1
229 422 m 128,-1,19
 239 412 239 412 267 412 c 128,-1,20
 295 412 295 412 313.5 431 c 128,-1,21
 332 450 332 450 341.5 485.5 c 128,-1,22
 351 521 351 521 351 540 c 0,23,24
 351 582 351 582 304 582 c 0,25,26
 273 582 273 582 255 564.5 c 128,-1,27
 237 547 237 547 228 510.5 c 128,-1,28
 219 474 219 474 219 453 c 128,-1,18
 219 432 219 432 229 422 c 128,-1,19
EndSplineSet
EndChar

StartChar: guillemotright
Encoding: 187 187 124
Width: 477
GlyphClass: 2
Flags: W
LayerCount: 2
Fore
SplineSet
271 59 m 1,0,-1
 302 166 l 1,1,-1
 423 241 l 1,2,-1
 339 326 l 1,3,-1
 366 424 l 1,4,-1
 524 263 l 1,5,-1
 505 213 l 1,6,-1
 271 59 l 1,0,-1
38 59 m 1,7,-1
 69 166 l 1,8,-1
 190 241 l 1,9,-1
 106 326 l 1,10,-1
 133 424 l 1,11,-1
 291 263 l 1,12,-1
 272 213 l 1,13,-1
 38 59 l 1,7,-1
EndSplineSet
EndChar

StartChar: onequarter
Encoding: 188 188 125
Width: 617
GlyphClass: 2
Flags: W
LayerCount: 2
Fore
SplineSet
167 717 m 1,0,-1
 288 790 l 1,1,-1
 369 790 l 1,2,-1
 292 478 l 1,3,-1
 204 478 l 1,4,-1
 257 693 l 1,5,-1
 192 655 l 1,6,-1
 167 717 l 1,0,-1
207 -18 m 1,7,-1
 105 18 l 1,8,-1
 535 713 l 1,9,-1
 636 677 l 1,10,-1
 207 -18 l 1,7,-1
502 0 m 1,11,-1
 512 41 l 1,12,-1
 374 41 l 1,13,-1
 392 114 l 1,14,-1
 496 312 l 1,15,-1
 593 312 l 1,16,-1
 485 120 l 1,17,-1
 532 120 l 1,18,-1
 565 209 l 1,19,-1
 641 209 l 1,20,-1
 619 120 l 1,21,-1
 636 120 l 1,22,-1
 617 41 l 1,23,-1
 599 41 l 1,24,-1
 589 0 l 1,25,-1
 502 0 l 1,11,-1
EndSplineSet
EndChar

StartChar: onehalf
Encoding: 189 189 126
Width: 634
GlyphClass: 2
Flags: W
LayerCount: 2
Fore
SplineSet
167 717 m 1,0,-1
 288 790 l 1,1,-1
 369 790 l 1,2,-1
 292 478 l 1,3,-1
 204 478 l 1,4,-1
 257 693 l 1,5,-1
 192 655 l 1,6,-1
 167 717 l 1,0,-1
207 -18 m 1,7,-1
 105 18 l 1,8,-1
 535 713 l 1,9,-1
 636 677 l 1,10,-1
 207 -18 l 1,7,-1
477 312 m 1,11,12
 547 322 547 322 598 322 c 0,13,14
 678 322 678 322 678 263 c 0,15,16
 678 180 678 180 589 121 c 1,17,-1
 530 79 l 1,18,-1
 638 79 l 1,19,-1
 619 0 l 1,20,-1
 398 0 l 1,21,-1
 416 75 l 1,22,-1
 513 146 l 1,23,24
 572 187 572 187 578 214 c 1,25,26
 582 227 582 227 572.5 232.5 c 128,-1,27
 563 238 563 238 542 238 c 1,28,-1
 460 231 l 1,29,-1
 477 312 l 1,11,12
EndSplineSet
EndChar

StartChar: threequarters
Encoding: 190 190 127
Width: 621
GlyphClass: 2
Flags: W
LayerCount: 2
Fore
SplineSet
202 791 m 1,0,1
 268 800 268 800 318 800 c 128,-1,2
 368 800 368 800 387 782.5 c 128,-1,3
 406 765 406 765 406 747 c 0,4,5
 406 671 406 671 351 642 c 1,6,7
 377 630 377 630 377 597 c 0,8,9
 377 584 377 584 373 567 c 0,10,11
 348 468 348 468 235 468 c 0,12,13
 191 468 191 468 137 474 c 2,14,-1
 119 476 l 1,15,-1
 144 553 l 1,16,17
 202 547 202 547 239 547 c 128,-1,18
 276 547 276 547 284 574 c 0,19,20
 288 588 288 588 280.5 594 c 128,-1,21
 273 600 273 600 255 600 c 2,22,-1
 189 600 l 1,23,-1
 207 672 l 1,24,-1
 271 672 l 2,25,26
 283 672 283 672 293 679 c 128,-1,27
 303 686 303 686 306 698 c 128,-1,28
 309 710 309 710 302 715.5 c 128,-1,29
 295 721 295 721 277 721 c 1,30,-1
 188 715 l 1,31,-1
 202 791 l 1,0,1
212 -18 m 1,32,-1
 110 18 l 1,33,-1
 540 713 l 1,34,-1
 641 677 l 1,35,-1
 212 -18 l 1,32,-1
507 0 m 1,36,-1
 517 41 l 1,37,-1
 379 41 l 1,38,-1
 397 114 l 1,39,-1
 501 312 l 1,40,-1
 598 312 l 1,41,-1
 490 120 l 1,42,-1
 537 120 l 1,43,-1
 570 209 l 1,44,-1
 646 209 l 1,45,-1
 624 120 l 1,46,-1
 641 120 l 1,47,-1
 622 41 l 1,48,-1
 604 41 l 1,49,-1
 594 0 l 1,50,-1
 507 0 l 1,36,-1
EndSplineSet
EndChar

StartChar: questiondown
Encoding: 191 191 128
Width: 421
GlyphClass: 2
Flags: W
LayerCount: 2
Fore
SplineSet
25 -51 m 0,0,1
 25 19 25 19 57 62 c 128,-1,2
 89 105 89 105 182 173 c 0,3,4
 242 218 242 218 250 257 c 2,5,-1
 259 297 l 1,6,-1
 361 297 l 1,7,8
 361 255 361 255 354 219 c 0,9,10
 344 165 344 165 257 101 c 0,11,12
 189 51 189 51 164.5 23 c 128,-1,13
 140 -5 140 -5 140 -40 c 128,-1,14
 140 -75 140 -75 161 -87 c 128,-1,15
 182 -99 182 -99 218 -99 c 0,16,17
 288 -99 288 -99 348 -88 c 2,18,-1
 369 -84 l 1,19,-1
 358 -170 l 1,20,21
 269 -196 269 -196 200 -196 c 0,22,23
 25 -196 25 -196 25 -51 c 0,0,1
410 500 m 1,24,-1
 377 354 l 1,25,-1
 267 354 l 1,26,-1
 300 500 l 1,27,-1
 410 500 l 1,24,-1
EndSplineSet
Substitution2: "'case' Case-Sensitive Forms in Latin lookup 4 subtable" questiondown.cap
EndChar

StartChar: Agrave
Encoding: 192 192 129
Width: 552
GlyphClass: 2
Flags: W
LayerCount: 2
Fore
SplineSet
374 941 m 1,0,-1
 580 849 l 1,1,-1
 531 765 l 1,2,-1
 321 846 l 1,3,-1
 374 941 l 1,0,-1
423 0 m 1,4,-1
 423 143 l 1,5,-1
 199 143 l 1,6,-1
 130 0 l 1,7,-1
 18 0 l 1,8,-1
 341 685 l 1,9,-1
 540 685 l 1,10,-1
 534 0 l 1,11,-1
 423 0 l 1,4,-1
406 588 m 1,12,-1
 242 241 l 1,13,-1
 426 241 l 1,14,-1
 431 588 l 1,15,-1
 406 588 l 1,12,-1
EndSplineSet
Position2: "'cpsp' Capital Spacing in Latin lookup 0 subtable" dx=5 dy=0 dh=10 dv=0
EndChar

StartChar: Aacute
Encoding: 193 193 130
Width: 552
GlyphClass: 2
Flags: W
LayerCount: 2
Fore
SplineSet
369 774 m 1,0,-1
 360 859 l 1,1,-1
 608 951 l 1,2,-1
 618 854 l 1,3,-1
 369 774 l 1,0,-1
423 0 m 1,4,-1
 423 143 l 1,5,-1
 199 143 l 1,6,-1
 130 0 l 1,7,-1
 18 0 l 1,8,-1
 341 685 l 1,9,-1
 540 685 l 1,10,-1
 534 0 l 1,11,-1
 423 0 l 1,4,-1
406 588 m 1,12,-1
 242 241 l 1,13,-1
 426 241 l 1,14,-1
 431 588 l 1,15,-1
 406 588 l 1,12,-1
EndSplineSet
Position2: "'cpsp' Capital Spacing in Latin lookup 0 subtable" dx=5 dy=0 dh=10 dv=0
EndChar

StartChar: Acircumflex
Encoding: 194 194 131
Width: 552
GlyphClass: 2
Flags: W
LayerCount: 2
Fore
SplineSet
287 785 m 1,0,-1
 457 931 l 1,1,-1
 520 931 l 1,2,-1
 616 785 l 1,3,-1
 517 785 l 1,4,-1
 479 851 l 1,5,-1
 402 785 l 1,6,-1
 287 785 l 1,0,-1
423 0 m 1,7,-1
 423 143 l 1,8,-1
 199 143 l 1,9,-1
 130 0 l 1,10,-1
 18 0 l 1,11,-1
 341 685 l 1,12,-1
 540 685 l 1,13,-1
 534 0 l 1,14,-1
 423 0 l 1,7,-1
406 588 m 1,15,-1
 242 241 l 1,16,-1
 426 241 l 1,17,-1
 431 588 l 1,18,-1
 406 588 l 1,15,-1
EndSplineSet
Position2: "'cpsp' Capital Spacing in Latin lookup 0 subtable" dx=5 dy=0 dh=10 dv=0
EndChar

StartChar: Atilde
Encoding: 195 195 132
Width: 552
GlyphClass: 2
Flags: W
LayerCount: 2
Fore
SplineSet
524 790 m 0,0,1
 499 790 499 790 446.5 814 c 128,-1,2
 394 838 394 838 381 838 c 0,3,4
 359 838 359 838 309 806 c 1,5,-1
 293 795 l 1,6,-1
 290 871 l 1,7,8
 357 934 357 934 401 934 c 0,9,10
 432 934 432 934 483.5 910 c 128,-1,11
 535 886 535 886 545 886 c 128,-1,12
 555 886 555 886 576.5 896 c 128,-1,13
 598 906 598 906 614 916 c 2,14,-1
 630 927 l 1,15,-1
 632 851 l 1,16,17
 569 790 569 790 524 790 c 0,0,1
423 0 m 1,18,-1
 423 143 l 1,19,-1
 199 143 l 1,20,-1
 130 0 l 1,21,-1
 18 0 l 1,22,-1
 341 685 l 1,23,-1
 540 685 l 1,24,-1
 534 0 l 1,25,-1
 423 0 l 1,18,-1
406 588 m 1,26,-1
 242 241 l 1,27,-1
 426 241 l 1,28,-1
 431 588 l 1,29,-1
 406 588 l 1,26,-1
EndSplineSet
Position2: "'cpsp' Capital Spacing in Latin lookup 0 subtable" dx=5 dy=0 dh=10 dv=0
EndChar

StartChar: Adieresis
Encoding: 196 196 133
Width: 552
GlyphClass: 2
Flags: W
LayerCount: 2
Fore
SplineSet
322 799 m 1,0,-1
 349 916 l 1,1,-1
 439 916 l 1,2,-1
 411 799 l 1,3,-1
 322 799 l 1,0,-1
516 799 m 1,4,-1
 543 916 l 1,5,-1
 633 916 l 1,6,-1
 604 799 l 1,7,-1
 516 799 l 1,4,-1
423 0 m 1,8,-1
 423 143 l 1,9,-1
 199 143 l 1,10,-1
 130 0 l 1,11,-1
 18 0 l 1,12,-1
 341 685 l 1,13,-1
 540 685 l 1,14,-1
 534 0 l 1,15,-1
 423 0 l 1,8,-1
406 588 m 1,16,-1
 242 241 l 1,17,-1
 426 241 l 1,18,-1
 431 588 l 1,19,-1
 406 588 l 1,16,-1
EndSplineSet
Position2: "'cpsp' Capital Spacing in Latin lookup 0 subtable" dx=5 dy=0 dh=10 dv=0
EndChar

StartChar: Aring
Encoding: 197 197 134
Width: 552
GlyphClass: 2
Flags: W
LayerCount: 2
Fore
SplineSet
326 694 m 128,-1,1
 326 710 326 710 331 727 c 0,2,3
 345 782 345 782 383.5 809.5 c 128,-1,4
 422 837 422 837 476 837 c 128,-1,5
 530 837 530 837 556 810 c 0,6,7
 574 792 574 792 574 769 c 0,8,9
 574 708 574 708 540 666 c 1,10,-1
 534 0 l 1,11,-1
 423 0 l 1,12,-1
 423 143 l 1,13,-1
 199 143 l 1,14,-1
 130 0 l 1,15,-1
 18 0 l 1,16,-1
 331 665 l 1,17,0
 326 678 326 678 326 694 c 128,-1,1
406 588 m 1,18,-1
 242 241 l 1,19,-1
 426 241 l 1,20,-1
 431 588 l 1,21,-1
 406 588 l 1,18,-1
400 720 m 0,22,23
 400 689 400 689 445 689 c 128,-1,24
 490 689 490 689 499 727 c 0,25,26
 500 732 500 732 500 740 c 128,-1,27
 500 748 500 748 489 757 c 128,-1,28
 478 766 478 766 459 766 c 0,29,30
 412 766 412 766 401 727 c 0,31,32
 400 723 400 723 400 720 c 0,22,23
EndSplineSet
Position2: "'cpsp' Capital Spacing in Latin lookup 0 subtable" dx=5 dy=0 dh=10 dv=0
EndChar

StartChar: AE
Encoding: 198 198 135
Width: 765
GlyphClass: 2
Flags: W
LayerCount: 2
Fore
SplineSet
328 0 m 1,0,-1
 362 144 l 1,1,-1
 194 144 l 1,2,-1
 125 0 l 1,3,-1
 19 0 l 1,4,-1
 343 693 l 1,5,-1
 889 693 l 1,6,-1
 866 587 l 1,7,-1
 572 589 l 1,8,-1
 526 395 l 1,9,-1
 763 395 l 1,10,-1
 740 294 l 1,11,-1
 502 294 l 1,12,-1
 457 105 l 1,13,-1
 750 105 l 1,14,-1
 727 0 l 1,15,-1
 328 0 l 1,0,-1
399 588 m 1,16,-1
 241 247 l 1,17,-1
 387 247 l 1,18,-1
 467 588 l 1,19,-1
 399 588 l 1,16,-1
EndSplineSet
Position2: "'cpsp' Capital Spacing in Latin lookup 0 subtable" dx=5 dy=0 dh=10 dv=0
EndChar

StartChar: Ccedilla
Encoding: 199 199 136
Width: 498
GlyphClass: 2
Flags: W
LayerCount: 2
Fore
SplineSet
305 -11 m 2,0,-1
 296 -11 l 1,1,-1
 289 -38 l 1,2,-1
 295 -38 l 2,3,4
 384 -38 384 -38 384 -99 c 0,5,6
 384 -110 384 -110 381 -124 c 0,7,8
 358 -221 358 -221 261 -221 c 0,9,10
 229 -221 229 -221 190 -214 c 2,11,-1
 179 -212 l 1,12,-1
 196 -144 l 1,13,14
 229 -146 229 -146 249 -146 c 0,15,16
 287 -146 287 -146 294 -117 c 0,17,18
 298 -101 298 -101 289.5 -96 c 128,-1,19
 281 -91 281 -91 262 -91 c 2,20,-1
 233 -91 l 1,21,-1
 252 -7 l 1,22,23
 105 17 105 17 105 186 c 0,24,25
 105 331 105 331 155 457 c 0,26,27
 182 525 182 525 221.5 577.5 c 128,-1,28
 261 630 261 630 321 663 c 128,-1,29
 381 696 381 696 454 696 c 0,30,31
 521 696 521 696 598 676 c 1,32,-1
 623 669 l 1,33,-1
 597 585 l 1,34,35
 529 599 529 599 454 599 c 128,-1,36
 379 599 379 599 325 537 c 128,-1,37
 271 475 271 475 245.5 384 c 128,-1,38
 220 293 220 293 220 194 c 0,39,40
 220 86 220 86 319 86 c 0,41,42
 382 86 382 86 458 98 c 1,43,-1
 481 101 l 1,44,-1
 473 13 l 1,45,46
 382 -11 382 -11 305 -11 c 2,0,-1
EndSplineSet
Position2: "'cpsp' Capital Spacing in Latin lookup 0 subtable" dx=5 dy=0 dh=10 dv=0
EndChar

StartChar: Egrave
Encoding: 200 200 137
Width: 500
GlyphClass: 2
Flags: W
LayerCount: 2
Fore
SplineSet
350 941 m 1,0,-1
 556 849 l 1,1,-1
 507 765 l 1,2,-1
 297 846 l 1,3,-1
 350 941 l 1,0,-1
70 0 m 1,4,-1
 228 685 l 1,5,-1
 621 685 l 1,6,-1
 598 588 l 1,7,-1
 317 588 l 1,8,-1
 273 394 l 1,9,-1
 499 394 l 1,10,-1
 476 296 l 1,11,-1
 251 296 l 1,12,-1
 205 97 l 1,13,-1
 487 97 l 1,14,-1
 464 0 l 1,15,-1
 70 0 l 1,4,-1
EndSplineSet
Position2: "'cpsp' Capital Spacing in Latin lookup 0 subtable" dx=5 dy=0 dh=10 dv=0
EndChar

StartChar: Eacute
Encoding: 201 201 138
Width: 500
GlyphClass: 2
Flags: W
LayerCount: 2
Fore
SplineSet
361 774 m 1,0,-1
 352 859 l 1,1,-1
 600 951 l 1,2,-1
 610 854 l 1,3,-1
 361 774 l 1,0,-1
70 0 m 1,4,-1
 228 685 l 1,5,-1
 621 685 l 1,6,-1
 598 588 l 1,7,-1
 317 588 l 1,8,-1
 273 394 l 1,9,-1
 499 394 l 1,10,-1
 476 296 l 1,11,-1
 251 296 l 1,12,-1
 205 97 l 1,13,-1
 487 97 l 1,14,-1
 464 0 l 1,15,-1
 70 0 l 1,4,-1
EndSplineSet
Position2: "'cpsp' Capital Spacing in Latin lookup 0 subtable" dx=5 dy=0 dh=10 dv=0
EndChar

StartChar: Ecircumflex
Encoding: 202 202 139
Width: 500
GlyphClass: 2
Flags: W
LayerCount: 2
Fore
SplineSet
296 786 m 1,0,-1
 466 932 l 1,1,-1
 529 932 l 1,2,-1
 625 786 l 1,3,-1
 526 786 l 1,4,-1
 488 852 l 1,5,-1
 411 786 l 1,6,-1
 296 786 l 1,0,-1
70 0 m 1,7,-1
 228 685 l 1,8,-1
 621 685 l 1,9,-1
 598 588 l 1,10,-1
 317 588 l 1,11,-1
 273 394 l 1,12,-1
 499 394 l 1,13,-1
 476 296 l 1,14,-1
 251 296 l 1,15,-1
 205 97 l 1,16,-1
 487 97 l 1,17,-1
 464 0 l 1,18,-1
 70 0 l 1,7,-1
EndSplineSet
Position2: "'cpsp' Capital Spacing in Latin lookup 0 subtable" dx=5 dy=0 dh=10 dv=0
EndChar

StartChar: Edieresis
Encoding: 203 203 140
Width: 500
GlyphClass: 2
Flags: W
LayerCount: 2
Fore
SplineSet
306 799 m 1,0,-1
 333 916 l 1,1,-1
 423 916 l 1,2,-1
 395 799 l 1,3,-1
 306 799 l 1,0,-1
500 799 m 1,4,-1
 527 916 l 1,5,-1
 617 916 l 1,6,-1
 588 799 l 1,7,-1
 500 799 l 1,4,-1
70 0 m 1,8,-1
 228 685 l 1,9,-1
 621 685 l 1,10,-1
 598 588 l 1,11,-1
 317 588 l 1,12,-1
 273 394 l 1,13,-1
 499 394 l 1,14,-1
 476 296 l 1,15,-1
 251 296 l 1,16,-1
 205 97 l 1,17,-1
 487 97 l 1,18,-1
 464 0 l 1,19,-1
 70 0 l 1,8,-1
EndSplineSet
Position2: "'cpsp' Capital Spacing in Latin lookup 0 subtable" dx=5 dy=0 dh=10 dv=0
EndChar

StartChar: Igrave
Encoding: 204 204 141
Width: 252
GlyphClass: 2
Flags: W
LayerCount: 2
Fore
SplineSet
199 941 m 1,0,-1
 405 849 l 1,1,-1
 356 765 l 1,2,-1
 146 846 l 1,3,-1
 199 941 l 1,0,-1
70 0 m 1,4,-1
 229 685 l 1,5,-1
 340 685 l 1,6,-1
 182 0 l 1,7,-1
 70 0 l 1,4,-1
EndSplineSet
Position2: "'cpsp' Capital Spacing in Latin lookup 0 subtable" dx=5 dy=0 dh=10 dv=0
EndChar

StartChar: Iacute
Encoding: 205 205 142
Width: 252
GlyphClass: 2
Flags: W
LayerCount: 2
Fore
SplineSet
233 774 m 1,0,-1
 224 859 l 1,1,-1
 472 951 l 1,2,-1
 482 854 l 1,3,-1
 233 774 l 1,0,-1
70 0 m 1,4,-1
 229 685 l 1,5,-1
 340 685 l 1,6,-1
 182 0 l 1,7,-1
 70 0 l 1,4,-1
EndSplineSet
Position2: "'cpsp' Capital Spacing in Latin lookup 0 subtable" dx=5 dy=0 dh=10 dv=0
EndChar

StartChar: Icircumflex
Encoding: 206 206 143
Width: 252
GlyphClass: 2
Flags: W
LayerCount: 2
Fore
SplineSet
137 786 m 1,0,-1
 307 932 l 1,1,-1
 370 932 l 1,2,-1
 466 786 l 1,3,-1
 367 786 l 1,4,-1
 329 852 l 1,5,-1
 252 786 l 1,6,-1
 137 786 l 1,0,-1
70 0 m 1,7,-1
 229 685 l 1,8,-1
 340 685 l 1,9,-1
 182 0 l 1,10,-1
 70 0 l 1,7,-1
EndSplineSet
Position2: "'cpsp' Capital Spacing in Latin lookup 0 subtable" dx=5 dy=0 dh=10 dv=0
EndChar

StartChar: Idieresis
Encoding: 207 207 144
Width: 252
GlyphClass: 2
Flags: W
LayerCount: 2
Fore
SplineSet
164 808 m 1,0,-1
 191 925 l 1,1,-1
 281 925 l 1,2,-1
 253 808 l 1,3,-1
 164 808 l 1,0,-1
358 808 m 1,4,-1
 385 925 l 1,5,-1
 475 925 l 1,6,-1
 446 808 l 1,7,-1
 358 808 l 1,4,-1
70 0 m 1,8,-1
 229 685 l 1,9,-1
 340 685 l 1,10,-1
 182 0 l 1,11,-1
 70 0 l 1,8,-1
EndSplineSet
Position2: "'cpsp' Capital Spacing in Latin lookup 0 subtable" dx=5 dy=0 dh=10 dv=0
EndChar

StartChar: Eth
Encoding: 208 208 145
Width: 612
GlyphClass: 2
Flags: W
LayerCount: 2
Fore
SplineSet
319 0 m 2,0,-1
 76 0 l 1,1,-1
 143 290 l 1,2,-1
 85 290 l 1,3,-1
 108 400 l 1,4,-1
 169 400 l 1,5,-1
 235 685 l 1,6,-1
 452 685 l 2,7,8
 662 685 662 685 662 479 c 0,9,10
 662 302 662 302 580 158 c 0,11,12
 540 87 540 87 472 43.5 c 128,-1,13
 404 0 404 0 319 0 c 2,0,-1
534 359 m 128,-1,15
 547 422 547 422 547 479.5 c 128,-1,16
 547 537 547 537 518.5 562.5 c 128,-1,17
 490 588 490 588 430 588 c 2,18,-1
 323 588 l 1,19,-1
 280 400 l 1,20,-1
 404 400 l 1,21,-1
 379 290 l 1,22,-1
 255 290 l 1,23,-1
 211 97 l 1,24,-1
 330 97 l 2,25,26
 384 97 384 97 428 136.5 c 128,-1,27
 472 176 472 176 496.5 236 c 128,-1,14
 521 296 521 296 534 359 c 128,-1,15
EndSplineSet
Position2: "'cpsp' Capital Spacing in Latin lookup 0 subtable" dx=5 dy=0 dh=10 dv=0
EndChar

StartChar: Ntilde
Encoding: 209 209 146
Width: 642
GlyphClass: 2
Flags: W
LayerCount: 2
Fore
SplineSet
565 788 m 0,0,1
 540 788 540 788 487.5 812 c 128,-1,2
 435 836 435 836 422 836 c 0,3,4
 400 836 400 836 350 804 c 1,5,-1
 334 793 l 1,6,-1
 331 869 l 1,7,8
 398 932 398 932 442 932 c 0,9,10
 473 932 473 932 524.5 908 c 128,-1,11
 576 884 576 884 586 884 c 128,-1,12
 596 884 596 884 617.5 894 c 128,-1,13
 639 904 639 904 655 914 c 2,14,-1
 671 925 l 1,15,-1
 673 849 l 1,16,17
 610 788 610 788 565 788 c 0,0,1
70 0 m 1,18,-1
 229 685 l 1,19,-1
 412 685 l 1,20,-1
 478 117 l 1,21,-1
 493 117 l 1,22,-1
 622 685 l 1,23,-1
 730 685 l 1,24,-1
 572 0 l 1,25,-1
 397 0 l 1,26,-1
 325 575 l 1,27,-1
 310 575 l 1,28,-1
 176 0 l 1,29,-1
 70 0 l 1,18,-1
EndSplineSet
Position2: "'cpsp' Capital Spacing in Latin lookup 0 subtable" dx=5 dy=0 dh=10 dv=0
EndChar

StartChar: Ograve
Encoding: 210 210 147
Width: 620
GlyphClass: 2
Flags: W
LayerCount: 2
Fore
SplineSet
403 941 m 1,0,-1
 609 849 l 1,1,-1
 560 765 l 1,2,-1
 350 846 l 1,3,-1
 403 941 l 1,0,-1
247 113.5 m 128,-1,5
 273 86 273 86 333 86 c 128,-1,6
 393 86 393 86 435 123 c 0,7,8
 491 173 491 173 523 276 c 128,-1,9
 555 379 555 379 555 479 c 0,10,11
 555 543 555 543 529 571 c 128,-1,12
 503 599 503 599 443.5 599 c 128,-1,13
 384 599 384 599 347 566 c 0,14,15
 289 513 289 513 255 406.5 c 128,-1,16
 221 300 221 300 221 220.5 c 128,-1,4
 221 141 221 141 247 113.5 c 128,-1,5
506 48 m 1,17,18
 430 -11 430 -11 322 -11 c 128,-1,19
 214 -11 214 -11 160 39 c 128,-1,20
 106 89 106 89 106 196 c 0,21,22
 106 326 106 326 146.5 443 c 128,-1,23
 187 560 187 560 264 627 c 1,24,25
 341 696 341 696 452 696 c 0,26,27
 670 696 670 696 670 489 c 0,28,29
 670 353 670 353 628.5 233 c 128,-1,30
 587 113 587 113 506 48 c 1,17,18
EndSplineSet
Position2: "'cpsp' Capital Spacing in Latin lookup 0 subtable" dx=5 dy=0 dh=10 dv=0
EndChar

StartChar: Oacute
Encoding: 211 211 148
Width: 620
GlyphClass: 2
Flags: W
LayerCount: 2
Fore
SplineSet
247 113.5 m 128,-1,1
 273 86 273 86 333 86 c 128,-1,2
 393 86 393 86 435 123 c 0,3,4
 491 173 491 173 523 276 c 128,-1,5
 555 379 555 379 555 479 c 0,6,7
 555 543 555 543 529 571 c 128,-1,8
 503 599 503 599 443.5 599 c 128,-1,9
 384 599 384 599 347 566 c 0,10,11
 289 513 289 513 255 406.5 c 128,-1,12
 221 300 221 300 221 220.5 c 128,-1,0
 221 141 221 141 247 113.5 c 128,-1,1
506 48 m 1,13,14
 430 -11 430 -11 322 -11 c 128,-1,15
 214 -11 214 -11 160 39 c 128,-1,16
 106 89 106 89 106 196 c 0,17,18
 106 326 106 326 146.5 443 c 128,-1,19
 187 560 187 560 264 627 c 1,20,21
 341 696 341 696 452 696 c 0,22,23
 670 696 670 696 670 489 c 0,24,25
 670 353 670 353 628.5 233 c 128,-1,26
 587 113 587 113 506 48 c 1,13,14
404 774 m 1,27,-1
 395 859 l 1,28,-1
 643 951 l 1,29,-1
 653 854 l 1,30,-1
 404 774 l 1,27,-1
EndSplineSet
Position2: "'cpsp' Capital Spacing in Latin lookup 0 subtable" dx=5 dy=0 dh=10 dv=0
EndChar

StartChar: Ocircumflex
Encoding: 212 212 149
Width: 620
GlyphClass: 2
Flags: W
LayerCount: 2
Fore
SplineSet
247 113.5 m 128,-1,1
 273 86 273 86 333 86 c 128,-1,2
 393 86 393 86 435 123 c 0,3,4
 491 173 491 173 523 276 c 128,-1,5
 555 379 555 379 555 479 c 0,6,7
 555 543 555 543 529 571 c 128,-1,8
 503 599 503 599 443.5 599 c 128,-1,9
 384 599 384 599 347 566 c 0,10,11
 289 513 289 513 255 406.5 c 128,-1,12
 221 300 221 300 221 220.5 c 128,-1,0
 221 141 221 141 247 113.5 c 128,-1,1
506 48 m 1,13,14
 430 -11 430 -11 322 -11 c 128,-1,15
 214 -11 214 -11 160 39 c 128,-1,16
 106 89 106 89 106 196 c 0,17,18
 106 326 106 326 146.5 443 c 128,-1,19
 187 560 187 560 264 627 c 1,20,21
 341 696 341 696 452 696 c 0,22,23
 670 696 670 696 670 489 c 0,24,25
 670 353 670 353 628.5 233 c 128,-1,26
 587 113 587 113 506 48 c 1,13,14
326 785 m 1,27,-1
 496 931 l 1,28,-1
 559 931 l 1,29,-1
 655 785 l 1,30,-1
 556 785 l 1,31,-1
 518 851 l 1,32,-1
 441 785 l 1,33,-1
 326 785 l 1,27,-1
EndSplineSet
Position2: "'cpsp' Capital Spacing in Latin lookup 0 subtable" dx=5 dy=0 dh=10 dv=0
EndChar

StartChar: Otilde
Encoding: 213 213 150
Width: 620
GlyphClass: 2
Flags: W
LayerCount: 2
Fore
SplineSet
572 788 m 0,0,1
 547 788 547 788 494.5 812 c 128,-1,2
 442 836 442 836 429 836 c 0,3,4
 407 836 407 836 357 804 c 1,5,-1
 341 793 l 1,6,-1
 338 869 l 1,7,8
 405 932 405 932 449 932 c 0,9,10
 480 932 480 932 531.5 908 c 128,-1,11
 583 884 583 884 593 884 c 128,-1,12
 603 884 603 884 624.5 894 c 128,-1,13
 646 904 646 904 662 914 c 2,14,-1
 678 925 l 1,15,-1
 680 849 l 1,16,17
 617 788 617 788 572 788 c 0,0,1
247 113.5 m 128,-1,19
 273 86 273 86 333 86 c 128,-1,20
 393 86 393 86 435 123 c 0,21,22
 491 173 491 173 523 276 c 128,-1,23
 555 379 555 379 555 479 c 0,24,25
 555 543 555 543 529 571 c 128,-1,26
 503 599 503 599 443.5 599 c 128,-1,27
 384 599 384 599 347 566 c 0,28,29
 289 513 289 513 255 406.5 c 128,-1,30
 221 300 221 300 221 220.5 c 128,-1,18
 221 141 221 141 247 113.5 c 128,-1,19
506 48 m 1,31,32
 430 -11 430 -11 322 -11 c 128,-1,33
 214 -11 214 -11 160 39 c 128,-1,34
 106 89 106 89 106 196 c 0,35,36
 106 326 106 326 146.5 443 c 128,-1,37
 187 560 187 560 264 627 c 1,38,39
 341 696 341 696 452 696 c 0,40,41
 670 696 670 696 670 489 c 0,42,43
 670 353 670 353 628.5 233 c 128,-1,44
 587 113 587 113 506 48 c 1,31,32
EndSplineSet
Position2: "'cpsp' Capital Spacing in Latin lookup 0 subtable" dx=5 dy=0 dh=10 dv=0
EndChar

StartChar: Odieresis
Encoding: 214 214 151
Width: 620
GlyphClass: 2
Flags: W
LayerCount: 2
Fore
SplineSet
343 795 m 1,0,-1
 369 911 l 1,1,-1
 468 911 l 1,2,-1
 440 795 l 1,3,-1
 343 795 l 1,0,-1
540 795 m 1,4,-1
 567 911 l 1,5,-1
 665 911 l 1,6,-1
 637 795 l 1,7,-1
 540 795 l 1,4,-1
247 113.5 m 128,-1,9
 273 86 273 86 333 86 c 128,-1,10
 393 86 393 86 435 123 c 0,11,12
 491 173 491 173 523 276 c 128,-1,13
 555 379 555 379 555 479 c 0,14,15
 555 543 555 543 529 571 c 128,-1,16
 503 599 503 599 443.5 599 c 128,-1,17
 384 599 384 599 347 566 c 0,18,19
 289 513 289 513 255 406.5 c 128,-1,20
 221 300 221 300 221 220.5 c 128,-1,8
 221 141 221 141 247 113.5 c 128,-1,9
506 48 m 1,21,22
 430 -11 430 -11 322 -11 c 128,-1,23
 214 -11 214 -11 160 39 c 128,-1,24
 106 89 106 89 106 196 c 0,25,26
 106 326 106 326 146.5 443 c 128,-1,27
 187 560 187 560 264 627 c 1,28,29
 341 696 341 696 452 696 c 0,30,31
 670 696 670 696 670 489 c 0,32,33
 670 353 670 353 628.5 233 c 128,-1,34
 587 113 587 113 506 48 c 1,21,22
EndSplineSet
Position2: "'cpsp' Capital Spacing in Latin lookup 0 subtable" dx=5 dy=0 dh=10 dv=0
EndChar

StartChar: multiply
Encoding: 215 215 152
Width: 560
GlyphClass: 2
Flags: W
LayerCount: 2
Fore
SplineSet
190 467 m 1,0,-1
 338 317 l 1,1,-1
 487 468 l 1,2,-1
 555 399 l 1,3,-1
 404 250 l 1,4,-1
 555 102 l 1,5,-1
 486 33 l 1,6,-1
 338 184 l 1,7,-1
 189 33 l 1,8,-1
 120 102 l 1,9,-1
 271 250 l 1,10,-1
 121 398 l 1,11,-1
 190 467 l 1,0,-1
EndSplineSet
EndChar

StartChar: Oslash
Encoding: 216 216 153
Width: 620
GlyphClass: 2
Flags: W
LayerCount: 2
Fore
SplineSet
106 196 m 0,0,1
 106 326 106 326 146.5 443 c 128,-1,2
 187 560 187 560 264 627 c 1,3,4
 341 696 341 696 452 696 c 0,5,6
 524 696 524 696 573 672 c 1,7,-1
 661 801 l 1,8,-1
 724 775 l 1,9,-1
 626 632 l 1,10,11
 670 579 670 579 670 489 c 0,12,13
 670 353 670 353 628.5 233 c 128,-1,14
 587 113 587 113 506 48 c 1,15,16
 430 -11 430 -11 320 -11 c 0,17,18
 250 -11 250 -11 203 10 c 1,19,-1
 116 -118 l 1,20,-1
 60 -84 l 1,21,-1
 150 49 l 1,22,23
 106 101 106 101 106 196 c 0,0,1
513 583 m 1,24,25
 487 599 487 599 435.5 599 c 128,-1,26
 384 599 384 599 347 566 c 0,27,28
 289 513 289 513 255 406.5 c 128,-1,29
 221 300 221 300 221 206 c 0,30,31
 221 177 221 177 225 160 c 1,32,-1
 513 583 l 1,24,25
264 100 m 1,33,34
 292 86 292 86 342.5 86 c 128,-1,35
 393 86 393 86 435 123 c 0,36,37
 491 173 491 173 523 276 c 128,-1,38
 555 379 555 379 555 479 c 0,39,40
 555 505 555 505 551 521 c 1,41,-1
 264 100 l 1,33,34
EndSplineSet
Position2: "'cpsp' Capital Spacing in Latin lookup 0 subtable" dx=5 dy=0 dh=10 dv=0
EndChar

StartChar: Ugrave
Encoding: 217 217 154
Width: 594
GlyphClass: 2
Flags: W
LayerCount: 2
Fore
SplineSet
390 941 m 1,0,-1
 596 849 l 1,1,-1
 547 765 l 1,2,-1
 337 846 l 1,3,-1
 390 941 l 1,0,-1
227 225 m 2,4,5
 218 185 218 185 218 151 c 0,6,7
 218 86 218 86 320 86 c 0,8,9
 389 86 389 86 420.5 118 c 128,-1,10
 452 150 452 150 469 222 c 2,11,-1
 576 685 l 1,12,-1
 688 685 l 1,13,-1
 581 222 l 2,14,15
 553 100 553 100 489.5 44.5 c 128,-1,16
 426 -11 426 -11 320 -11 c 0,17,18
 107 -11 107 -11 107 139 c 0,19,20
 107 181 107 181 119 241 c 1,21,-1
 222 685 l 1,22,-1
 334 685 l 1,23,-1
 227 225 l 2,4,5
EndSplineSet
Position2: "'cpsp' Capital Spacing in Latin lookup 0 subtable" dx=5 dy=0 dh=10 dv=0
EndChar

StartChar: Uacute
Encoding: 218 218 155
Width: 594
GlyphClass: 2
Flags: W
LayerCount: 2
Fore
SplineSet
227 225 m 2,0,1
 218 185 218 185 218 151 c 0,2,3
 218 86 218 86 320 86 c 0,4,5
 389 86 389 86 420.5 118 c 128,-1,6
 452 150 452 150 469 222 c 2,7,-1
 576 685 l 1,8,-1
 688 685 l 1,9,-1
 581 222 l 2,10,11
 553 100 553 100 489.5 44.5 c 128,-1,12
 426 -11 426 -11 320 -11 c 0,13,14
 107 -11 107 -11 107 139 c 0,15,16
 107 181 107 181 119 241 c 1,17,-1
 222 685 l 1,18,-1
 334 685 l 1,19,-1
 227 225 l 2,0,1
371 774 m 1,20,-1
 362 859 l 1,21,-1
 610 951 l 1,22,-1
 620 854 l 1,23,-1
 371 774 l 1,20,-1
EndSplineSet
Position2: "'cpsp' Capital Spacing in Latin lookup 0 subtable" dx=5 dy=0 dh=10 dv=0
EndChar

StartChar: Ucircumflex
Encoding: 219 219 156
Width: 594
GlyphClass: 2
Flags: W
LayerCount: 2
Fore
SplineSet
227 225 m 2,0,1
 218 185 218 185 218 151 c 0,2,3
 218 86 218 86 320 86 c 0,4,5
 389 86 389 86 420.5 118 c 128,-1,6
 452 150 452 150 469 222 c 2,7,-1
 576 685 l 1,8,-1
 688 685 l 1,9,-1
 581 222 l 2,10,11
 553 100 553 100 489.5 44.5 c 128,-1,12
 426 -11 426 -11 320 -11 c 0,13,14
 107 -11 107 -11 107 139 c 0,15,16
 107 181 107 181 119 241 c 1,17,-1
 222 685 l 1,18,-1
 334 685 l 1,19,-1
 227 225 l 2,0,1
307 785 m 1,20,-1
 477 931 l 1,21,-1
 540 931 l 1,22,-1
 636 785 l 1,23,-1
 537 785 l 1,24,-1
 499 851 l 1,25,-1
 422 785 l 1,26,-1
 307 785 l 1,20,-1
EndSplineSet
Position2: "'cpsp' Capital Spacing in Latin lookup 0 subtable" dx=5 dy=0 dh=10 dv=0
EndChar

StartChar: Udieresis
Encoding: 220 220 157
Width: 594
GlyphClass: 2
Flags: W
LayerCount: 2
Fore
SplineSet
322 795 m 1,0,-1
 349 911 l 1,1,-1
 447 911 l 1,2,-1
 420 795 l 1,3,-1
 322 795 l 1,0,-1
520 795 m 1,4,-1
 546 911 l 1,5,-1
 645 911 l 1,6,-1
 617 795 l 1,7,-1
 520 795 l 1,4,-1
227 225 m 2,8,9
 218 185 218 185 218 151 c 0,10,11
 218 86 218 86 320 86 c 0,12,13
 389 86 389 86 420.5 118 c 128,-1,14
 452 150 452 150 469 222 c 2,15,-1
 576 685 l 1,16,-1
 688 685 l 1,17,-1
 581 222 l 2,18,19
 553 100 553 100 489.5 44.5 c 128,-1,20
 426 -11 426 -11 320 -11 c 0,21,22
 107 -11 107 -11 107 139 c 0,23,24
 107 181 107 181 119 241 c 1,25,-1
 222 685 l 1,26,-1
 334 685 l 1,27,-1
 227 225 l 2,8,9
EndSplineSet
Position2: "'cpsp' Capital Spacing in Latin lookup 0 subtable" dx=5 dy=0 dh=10 dv=0
EndChar

StartChar: Yacute
Encoding: 221 221 158
Width: 499
GlyphClass: 2
Flags: W
LayerCount: 2
Fore
SplineSet
345 774 m 1,0,-1
 336 859 l 1,1,-1
 584 951 l 1,2,-1
 594 854 l 1,3,-1
 345 774 l 1,0,-1
652 685 m 1,4,-1
 367 291 l 1,5,-1
 298 0 l 1,6,-1
 194 0 l 1,7,-1
 263 298 l 1,8,-1
 163 685 l 1,9,-1
 276 685 l 1,10,-1
 338 395 l 1,11,-1
 534 685 l 1,12,-1
 652 685 l 1,4,-1
EndSplineSet
Position2: "'cpsp' Capital Spacing in Latin lookup 0 subtable" dx=5 dy=0 dh=10 dv=0
EndChar

StartChar: Thorn
Encoding: 222 222 159
Width: 543
GlyphClass: 2
Flags: W
LayerCount: 2
Fore
SplineSet
348 218 m 2,0,1
 458 218 458 218 491 353 c 0,2,3
 497 377 497 377 497 400 c 128,-1,4
 497 423 497 423 486 444 c 0,5,6
 468 479 468 479 409 480 c 2,7,-1
 288 482 l 1,8,-1
 225 218 l 1,9,-1
 348 218 l 2,0,1
434 589 m 2,10,11
 535 589 535 589 578 522 c 0,12,13
 606 478 606 478 606 419 c 0,14,15
 606 388 606 388 598 353 c 0,16,17
 574 239 574 239 502 173.5 c 128,-1,18
 430 108 430 108 326 108 c 0,19,20
 325 108 325 108 323 108 c 2,21,-1
 199 109 l 1,22,-1
 174 0 l 1,23,-1
 69 0 l 1,24,-1
 232 693 l 1,25,-1
 338 693 l 1,26,-1
 312 589 l 1,27,-1
 434 589 l 2,10,11
EndSplineSet
Position2: "'cpsp' Capital Spacing in Latin lookup 0 subtable" dx=5 dy=0 dh=10 dv=0
EndChar

StartChar: germandbls
Encoding: 223 223 160
Width: 553
GlyphClass: 2
Flags: W
LayerCount: 2
Fore
SplineSet
263 676.5 m 128,-1,1
 318 719 318 719 413.5 719 c 128,-1,2
 509 719 509 719 555.5 684 c 128,-1,3
 602 649 602 649 602 590 c 128,-1,4
 602 531 602 531 580 496 c 128,-1,5
 558 461 558 461 507.5 439.5 c 128,-1,6
 457 418 457 418 439 405 c 128,-1,7
 421 392 421 392 421 374.5 c 128,-1,8
 421 357 421 357 433 345 c 128,-1,9
 445 333 445 333 489.5 305 c 128,-1,10
 534 277 534 277 551 255 c 128,-1,11
 568 233 568 233 568 186 c 0,12,13
 568 95 568 95 511.5 42 c 128,-1,14
 455 -11 455 -11 356 -11 c 0,15,16
 298 -11 298 -11 232 7 c 2,17,-1
 210 13 l 1,18,-1
 233 94 l 1,19,20
 301 81 301 81 350.5 81 c 128,-1,21
 400 81 400 81 429 106.5 c 128,-1,22
 458 132 458 132 458 172 c 0,23,24
 458 194 458 194 446 207 c 128,-1,25
 434 220 434 220 389.5 246.5 c 128,-1,26
 345 273 345 273 328.5 295.5 c 128,-1,27
 312 318 312 318 312 361.5 c 128,-1,28
 312 405 312 405 336 434.5 c 128,-1,29
 360 464 360 464 410.5 488.5 c 128,-1,30
 461 513 461 513 476.5 529.5 c 128,-1,31
 492 546 492 546 492 573 c 0,32,33
 492 626 492 626 408 626 c 0,34,35
 353 626 353 626 324 599.5 c 128,-1,36
 295 573 295 573 281 510 c 2,37,-1
 161 0 l 1,38,-1
 59 0 l 1,39,-1
 182 524 l 2,40,0
 208 634 208 634 263 676.5 c 128,-1,1
EndSplineSet
EndChar

StartChar: agrave
Encoding: 224 224 161
Width: 516
GlyphClass: 2
Flags: W
LayerCount: 2
Fore
SplineSet
219 -11 m 0,0,1
 150 -11 150 -11 117 33.5 c 128,-1,2
 84 78 84 78 84 145.5 c 128,-1,3
 84 213 84 213 99.5 273 c 128,-1,4
 115 333 115 333 144 387.5 c 128,-1,5
 173 442 173 442 223.5 476.5 c 128,-1,6
 274 511 274 511 337 511 c 0,7,8
 393 511 393 511 525 489 c 2,9,-1
 567 482 l 1,10,-1
 492 158 l 1,11,-1
 465 2 l 1,12,-1
 358 -2 l 1,13,14
 369 70 369 70 373 89 c 1,15,16
 326 27 326 27 266 0 c 0,17,18
 242 -11 242 -11 219 -11 c 0,0,1
443 404 m 1,19,20
 375 419 375 419 335 419 c 128,-1,21
 295 419 295 419 260 374 c 0,22,23
 194 291 194 291 194 156 c 0,24,25
 194 119 194 119 207.5 100.5 c 128,-1,26
 221 82 221 82 249.5 82 c 128,-1,27
 278 82 278 82 312 108.5 c 128,-1,28
 346 135 346 135 369 162 c 2,29,-1
 392 189 l 1,30,-1
 443 404 l 1,19,20
347 759 m 1,31,-1
 552 667 l 1,32,-1
 506 588 l 1,33,-1
 295 671 l 1,34,-1
 347 759 l 1,31,-1
EndSplineSet
EndChar

StartChar: aacute
Encoding: 225 225 162
Width: 516
GlyphClass: 2
Flags: W
LayerCount: 2
Fore
SplineSet
219 -11 m 0,0,1
 150 -11 150 -11 117 33.5 c 128,-1,2
 84 78 84 78 84 145.5 c 128,-1,3
 84 213 84 213 99.5 273 c 128,-1,4
 115 333 115 333 144 387.5 c 128,-1,5
 173 442 173 442 223.5 476.5 c 128,-1,6
 274 511 274 511 337 511 c 0,7,8
 393 511 393 511 525 489 c 2,9,-1
 567 482 l 1,10,-1
 492 158 l 1,11,-1
 465 2 l 1,12,-1
 358 -2 l 1,13,14
 369 70 369 70 373 89 c 1,15,16
 326 27 326 27 266 0 c 0,17,18
 242 -11 242 -11 219 -11 c 0,0,1
443 404 m 1,19,20
 375 419 375 419 335 419 c 128,-1,21
 295 419 295 419 260 374 c 0,22,23
 194 291 194 291 194 156 c 0,24,25
 194 119 194 119 207.5 100.5 c 128,-1,26
 221 82 221 82 249.5 82 c 128,-1,27
 278 82 278 82 312 108.5 c 128,-1,28
 346 135 346 135 369 162 c 2,29,-1
 392 189 l 1,30,-1
 443 404 l 1,19,20
338 585 m 1,31,-1
 329 671 l 1,32,-1
 577 763 l 1,33,-1
 586 666 l 1,34,-1
 338 585 l 1,31,-1
EndSplineSet
EndChar

StartChar: acircumflex
Encoding: 226 226 163
Width: 516
GlyphClass: 2
Flags: W
LayerCount: 2
Fore
SplineSet
224 580 m 1,0,-1
 387 745 l 1,1,-1
 466 745 l 1,2,-1
 553 580 l 1,3,-1
 445 580 l 1,4,-1
 411 654 l 1,5,-1
 339 580 l 1,6,-1
 224 580 l 1,0,-1
219 -11 m 0,7,8
 150 -11 150 -11 117 33.5 c 128,-1,9
 84 78 84 78 84 145.5 c 128,-1,10
 84 213 84 213 99.5 273 c 128,-1,11
 115 333 115 333 144 387.5 c 128,-1,12
 173 442 173 442 223.5 476.5 c 128,-1,13
 274 511 274 511 337 511 c 0,14,15
 393 511 393 511 525 489 c 2,16,-1
 567 482 l 1,17,-1
 492 158 l 1,18,-1
 465 2 l 1,19,-1
 358 -2 l 1,20,21
 369 70 369 70 373 89 c 1,22,23
 326 27 326 27 266 0 c 0,24,25
 242 -11 242 -11 219 -11 c 0,7,8
443 404 m 1,26,27
 375 419 375 419 335 419 c 128,-1,28
 295 419 295 419 260 374 c 0,29,30
 194 291 194 291 194 156 c 0,31,32
 194 119 194 119 207.5 100.5 c 128,-1,33
 221 82 221 82 249.5 82 c 128,-1,34
 278 82 278 82 312 108.5 c 128,-1,35
 346 135 346 135 369 162 c 2,36,-1
 392 189 l 1,37,-1
 443 404 l 1,26,27
EndSplineSet
EndChar

StartChar: atilde
Encoding: 227 227 164
Width: 516
GlyphClass: 2
Flags: W
LayerCount: 2
Fore
SplineSet
219 -11 m 0,0,1
 150 -11 150 -11 117 33.5 c 128,-1,2
 84 78 84 78 84 145.5 c 128,-1,3
 84 213 84 213 99.5 273 c 128,-1,4
 115 333 115 333 144 387.5 c 128,-1,5
 173 442 173 442 223.5 476.5 c 128,-1,6
 274 511 274 511 337 511 c 0,7,8
 393 511 393 511 525 489 c 2,9,-1
 567 482 l 1,10,-1
 492 158 l 1,11,-1
 465 2 l 1,12,-1
 358 -2 l 1,13,14
 369 70 369 70 373 89 c 1,15,16
 326 27 326 27 266 0 c 0,17,18
 242 -11 242 -11 219 -11 c 0,0,1
443 404 m 1,19,20
 375 419 375 419 335 419 c 128,-1,21
 295 419 295 419 260 374 c 0,22,23
 194 291 194 291 194 156 c 0,24,25
 194 119 194 119 207.5 100.5 c 128,-1,26
 221 82 221 82 249.5 82 c 128,-1,27
 278 82 278 82 312 108.5 c 128,-1,28
 346 135 346 135 369 162 c 2,29,-1
 392 189 l 1,30,-1
 443 404 l 1,19,20
490 600 m 0,31,32
 466 600 466 600 420 623 c 128,-1,33
 374 646 374 646 362 646 c 0,34,35
 338 646 338 646 292 616 c 1,36,-1
 277 605 l 1,37,-1
 275 681 l 1,38,39
 339 741 339 741 383 741 c 0,40,41
 411 741 411 741 456.5 718.5 c 128,-1,42
 502 696 502 696 512 696 c 0,43,44
 530 696 530 696 576 726 c 1,45,-1
 592 736 l 1,46,-1
 596 659 l 1,47,48
 534 600 534 600 490 600 c 0,31,32
EndSplineSet
EndChar

StartChar: adieresis
Encoding: 228 228 165
Width: 516
GlyphClass: 2
Flags: W
LayerCount: 2
Fore
SplineSet
252 609 m 1,0,-1
 279 726 l 1,1,-1
 378 726 l 1,2,-1
 350 609 l 1,3,-1
 252 609 l 1,0,-1
450 609 m 1,4,-1
 476 726 l 1,5,-1
 575 726 l 1,6,-1
 547 609 l 1,7,-1
 450 609 l 1,4,-1
219 -11 m 0,8,9
 150 -11 150 -11 117 33.5 c 128,-1,10
 84 78 84 78 84 145.5 c 128,-1,11
 84 213 84 213 99.5 273 c 128,-1,12
 115 333 115 333 144 387.5 c 128,-1,13
 173 442 173 442 223.5 476.5 c 128,-1,14
 274 511 274 511 337 511 c 0,15,16
 393 511 393 511 525 489 c 2,17,-1
 567 482 l 1,18,-1
 492 158 l 1,19,-1
 465 2 l 1,20,-1
 358 -2 l 1,21,22
 369 70 369 70 373 89 c 1,23,24
 326 27 326 27 266 0 c 0,25,26
 242 -11 242 -11 219 -11 c 0,8,9
443 404 m 1,27,28
 375 419 375 419 335 419 c 128,-1,29
 295 419 295 419 260 374 c 0,30,31
 194 291 194 291 194 156 c 0,32,33
 194 119 194 119 207.5 100.5 c 128,-1,34
 221 82 221 82 249.5 82 c 128,-1,35
 278 82 278 82 312 108.5 c 128,-1,36
 346 135 346 135 369 162 c 2,37,-1
 392 189 l 1,38,-1
 443 404 l 1,27,28
EndSplineSet
EndChar

StartChar: aring
Encoding: 229 229 166
Width: 516
GlyphClass: 2
Flags: W
LayerCount: 2
Fore
SplineSet
219 -11 m 0,0,1
 150 -11 150 -11 117 33.5 c 128,-1,2
 84 78 84 78 84 145.5 c 128,-1,3
 84 213 84 213 99.5 273 c 128,-1,4
 115 333 115 333 144 387.5 c 128,-1,5
 173 442 173 442 223.5 476.5 c 128,-1,6
 274 511 274 511 337 511 c 0,7,8
 393 511 393 511 525 489 c 2,9,-1
 567 482 l 1,10,-1
 492 158 l 1,11,-1
 465 2 l 1,12,-1
 358 -2 l 1,13,14
 369 70 369 70 373 89 c 1,15,16
 326 27 326 27 266 0 c 0,17,18
 242 -11 242 -11 219 -11 c 0,0,1
443 404 m 1,19,20
 375 419 375 419 335 419 c 128,-1,21
 295 419 295 419 260 374 c 0,22,23
 194 291 194 291 194 156 c 0,24,25
 194 119 194 119 207.5 100.5 c 128,-1,26
 221 82 221 82 249.5 82 c 128,-1,27
 278 82 278 82 312 108.5 c 128,-1,28
 346 135 346 135 369 162 c 2,29,-1
 392 189 l 1,30,-1
 443 404 l 1,19,20
377.5 732.5 m 128,-1,32
 411 762 411 762 455.5 762 c 128,-1,33
 500 762 500 762 518 735 c 0,34,35
 530 717 530 717 530 698 c 128,-1,36
 530 679 530 679 527 664 c 0,37,38
 519 614 519 614 484.5 584.5 c 128,-1,39
 450 555 450 555 404 555 c 128,-1,40
 358 555 358 555 340 584 c 0,41,42
 329 601 329 601 329 621 c 128,-1,43
 329 641 329 641 334 659 c 0,44,31
 344 703 344 703 377.5 732.5 c 128,-1,32
411.5 684 m 128,-1,46
 399 674 399 674 396 664 c 128,-1,47
 393 654 393 654 393 647 c 128,-1,48
 393 640 393 640 399.5 630.5 c 128,-1,49
 406 621 406 621 421.5 621 c 128,-1,50
 437 621 437 621 450 632 c 0,51,52
 468 647 468 647 468 662 c 0,53,54
 468 694 468 694 440 694 c 0,55,45
 424 694 424 694 411.5 684 c 128,-1,46
EndSplineSet
EndChar

StartChar: ae
Encoding: 230 230 167
Width: 729
GlyphClass: 2
Flags: W
LayerCount: 2
Fore
SplineSet
448 157 m 0,0,1
 448 88 448 88 525 88 c 0,2,3
 597 88 597 88 670 94 c 1,4,-1
 698 97 l 1,5,-1
 679 12 l 1,6,7
 584 -11 584 -11 490.5 -11 c 128,-1,8
 397 -11 397 -11 361 40 c 1,9,10
 325 24 325 24 264 6.5 c 128,-1,11
 203 -11 203 -11 167 -11 c 0,12,13
 104 -11 104 -11 76 38 c 1,14,15
 56 70 56 70 56 99 c 128,-1,16
 56 128 56 128 61 149 c 0,17,18
 88 275 88 275 223 297 c 0,19,20
 295 309 295 309 368 309 c 1,21,22
 377 337 377 337 377 361 c 0,23,24
 377 408 377 408 334 408 c 0,25,26
 263 408 263 408 182 398 c 1,27,-1
 153 395 l 1,28,-1
 170 492 l 1,29,30
 291 510 291 510 362 510 c 0,31,32
 449 510 449 510 474 455 c 1,33,34
 530 510 530 510 621 510 c 0,35,36
 771 510 771 510 771 366 c 0,37,38
 771 320 771 320 757 275 c 1,39,-1
 738 203 l 1,40,-1
 453 205 l 1,41,42
 448 175 448 175 448 157 c 0,0,1
164 131 m 0,43,44
 164 83 164 83 204 83 c 0,45,46
 251 83 251 83 338 107 c 1,47,48
 336 119 336 119 336 145.5 c 128,-1,49
 336 172 336 172 349 226 c 1,50,51
 285 222 285 222 245 217 c 0,52,53
 180 210 180 210 167 152 c 0,54,55
 164 141 164 141 164 131 c 0,43,44
659 287 m 1,56,57
 668 319 668 319 668 336 c 128,-1,58
 668 353 668 353 667 361 c 0,59,60
 662 416 662 416 597 416 c 0,61,62
 546 416 546 416 517 384.5 c 128,-1,63
 488 353 488 353 472 289 c 1,64,-1
 659 287 l 1,56,57
EndSplineSet
EndChar

StartChar: ccedilla
Encoding: 231 231 168
Width: 408
GlyphClass: 2
Flags: W
LayerCount: 2
Fore
SplineSet
349 511 m 0,0,1
 406 511 406 511 468 492 c 1,2,-1
 488 485 l 1,3,-1
 460 405 l 1,4,5
 388 417 388 417 345 417 c 0,6,7
 274 417 274 417 236 344.5 c 128,-1,8
 198 272 198 272 198 177.5 c 128,-1,9
 198 83 198 83 285 83 c 0,10,11
 328 83 328 83 376 91 c 2,12,-1
 394 94 l 1,13,-1
 386 12 l 1,14,15
 320 -9 320 -9 255 -11 c 1,16,-1
 248 -38 l 1,17,-1
 254 -38 l 2,18,19
 343 -38 343 -38 343 -99 c 0,20,21
 343 -110 343 -110 340 -124 c 0,22,23
 317 -221 317 -221 220 -221 c 0,24,25
 188 -221 188 -221 149 -214 c 2,26,-1
 138 -212 l 1,27,-1
 155 -144 l 1,28,29
 188 -146 188 -146 208 -146 c 0,30,31
 246 -146 246 -146 253 -117 c 0,32,33
 257 -101 257 -101 248.5 -96 c 128,-1,34
 240 -91 240 -91 221 -91 c 2,35,-1
 192 -91 l 1,36,-1
 211 -8 l 1,37,38
 152 1 152 1 119.5 42.5 c 128,-1,39
 87 84 87 84 87 153 c 0,40,41
 87 307 87 307 155 409 c 128,-1,42
 223 511 223 511 349 511 c 0,0,1
EndSplineSet
EndChar

StartChar: egrave
Encoding: 232 232 169
Width: 470
GlyphClass: 2
Flags: W
LayerCount: 2
Fore
SplineSet
217 101 m 128,-1,1
 240 82 240 82 274 82 c 0,2,3
 346 82 346 82 416 94 c 1,4,-1
 442 99 l 1,5,-1
 431 17 l 1,6,7
 340 -11 340 -11 247 -11 c 0,8,9
 85 -11 85 -11 85 151 c 0,10,11
 85 293 85 293 148 396 c 0,12,13
 180 448 180 448 234 479 c 128,-1,14
 288 510 288 510 357 510 c 0,15,16
 521 510 521 510 521 373 c 0,17,18
 521 281 521 281 455.5 245 c 128,-1,19
 390 209 390 209 242 209 c 2,20,-1
 200 209 l 1,21,22
 194 187 194 187 194 153.5 c 128,-1,0
 194 120 194 120 217 101 c 128,-1,1
260 291 m 2,23,24
 344 291 344 291 379 309 c 128,-1,25
 414 327 414 327 414 372 c 0,26,27
 414 422 414 422 352 422 c 0,28,29
 248 422 248 422 213 291 c 1,30,-1
 260 291 l 2,23,24
260 759 m 1,31,-1
 465 667 l 1,32,-1
 419 588 l 1,33,-1
 208 671 l 1,34,-1
 260 759 l 1,31,-1
EndSplineSet
EndChar

StartChar: eacute
Encoding: 233 233 170
Width: 470
GlyphClass: 2
Flags: W
LayerCount: 2
Fore
SplineSet
217 101 m 128,-1,1
 240 82 240 82 274 82 c 0,2,3
 346 82 346 82 416 94 c 1,4,-1
 442 99 l 1,5,-1
 431 17 l 1,6,7
 340 -11 340 -11 247 -11 c 0,8,9
 85 -11 85 -11 85 151 c 0,10,11
 85 293 85 293 148 396 c 0,12,13
 180 448 180 448 234 479 c 128,-1,14
 288 510 288 510 357 510 c 0,15,16
 521 510 521 510 521 373 c 0,17,18
 521 281 521 281 455.5 245 c 128,-1,19
 390 209 390 209 242 209 c 2,20,-1
 200 209 l 1,21,22
 194 187 194 187 194 153.5 c 128,-1,0
 194 120 194 120 217 101 c 128,-1,1
260 291 m 2,23,24
 344 291 344 291 379 309 c 128,-1,25
 414 327 414 327 414 372 c 0,26,27
 414 422 414 422 352 422 c 0,28,29
 248 422 248 422 213 291 c 1,30,-1
 260 291 l 2,23,24
290 585 m 1,31,-1
 281 671 l 1,32,-1
 529 763 l 1,33,-1
 538 666 l 1,34,-1
 290 585 l 1,31,-1
EndSplineSet
EndChar

StartChar: ecircumflex
Encoding: 234 234 171
Width: 470
GlyphClass: 2
Flags: W
LayerCount: 2
Fore
SplineSet
200 580 m 1,0,-1
 362 745 l 1,1,-1
 442 745 l 1,2,-1
 528 580 l 1,3,-1
 421 580 l 1,4,-1
 386 654 l 1,5,-1
 315 580 l 1,6,-1
 200 580 l 1,0,-1
217 101 m 128,-1,8
 240 82 240 82 274 82 c 0,9,10
 346 82 346 82 416 94 c 1,11,-1
 442 99 l 1,12,-1
 431 17 l 1,13,14
 340 -11 340 -11 247 -11 c 0,15,16
 85 -11 85 -11 85 151 c 0,17,18
 85 293 85 293 148 396 c 0,19,20
 180 448 180 448 234 479 c 128,-1,21
 288 510 288 510 357 510 c 0,22,23
 521 510 521 510 521 373 c 0,24,25
 521 281 521 281 455.5 245 c 128,-1,26
 390 209 390 209 242 209 c 2,27,-1
 200 209 l 1,28,29
 194 187 194 187 194 153.5 c 128,-1,7
 194 120 194 120 217 101 c 128,-1,8
260 291 m 2,30,31
 344 291 344 291 379 309 c 128,-1,32
 414 327 414 327 414 372 c 0,33,34
 414 422 414 422 352 422 c 0,35,36
 248 422 248 422 213 291 c 1,37,-1
 260 291 l 2,30,31
EndSplineSet
EndChar

StartChar: edieresis
Encoding: 235 235 172
Width: 470
GlyphClass: 2
Flags: W
LayerCount: 2
Fore
SplineSet
229 609 m 1,0,-1
 256 726 l 1,1,-1
 354 726 l 1,2,-1
 327 609 l 1,3,-1
 229 609 l 1,0,-1
427 609 m 1,4,-1
 453 726 l 1,5,-1
 552 726 l 1,6,-1
 524 609 l 1,7,-1
 427 609 l 1,4,-1
217 101 m 128,-1,9
 240 82 240 82 274 82 c 0,10,11
 346 82 346 82 416 94 c 1,12,-1
 442 99 l 1,13,-1
 431 17 l 1,14,15
 340 -11 340 -11 247 -11 c 0,16,17
 85 -11 85 -11 85 151 c 0,18,19
 85 293 85 293 148 396 c 0,20,21
 180 448 180 448 234 479 c 128,-1,22
 288 510 288 510 357 510 c 0,23,24
 521 510 521 510 521 373 c 0,25,26
 521 281 521 281 455.5 245 c 128,-1,27
 390 209 390 209 242 209 c 2,28,-1
 200 209 l 1,29,30
 194 187 194 187 194 153.5 c 128,-1,8
 194 120 194 120 217 101 c 128,-1,9
260 291 m 2,31,32
 344 291 344 291 379 309 c 128,-1,33
 414 327 414 327 414 372 c 0,34,35
 414 422 414 422 352 422 c 0,36,37
 248 422 248 422 213 291 c 1,38,-1
 260 291 l 2,31,32
EndSplineSet
EndChar

StartChar: igrave
Encoding: 236 236 173
Width: 227
GlyphClass: 2
Flags: W
LayerCount: 2
Fore
SplineSet
60 0 m 1,0,-1
 175 500 l 1,1,-1
 283 500 l 1,2,-1
 168 0 l 1,3,-1
 60 0 l 1,0,-1
126 759 m 1,4,-1
 331 667 l 1,5,-1
 285 588 l 1,6,-1
 74 671 l 1,7,-1
 126 759 l 1,4,-1
EndSplineSet
EndChar

StartChar: iacute
Encoding: 237 237 174
Width: 227
GlyphClass: 2
Flags: W
LayerCount: 2
Fore
SplineSet
60 0 m 1,0,-1
 175 500 l 1,1,-1
 283 500 l 1,2,-1
 168 0 l 1,3,-1
 60 0 l 1,0,-1
187 585 m 1,4,-1
 178 671 l 1,5,-1
 426 763 l 1,6,-1
 435 666 l 1,7,-1
 187 585 l 1,4,-1
EndSplineSet
EndChar

StartChar: icircumflex
Encoding: 238 238 175
Width: 227
GlyphClass: 2
Flags: W
LayerCount: 2
Fore
SplineSet
75 580 m 1,0,-1
 238 745 l 1,1,-1
 317 745 l 1,2,-1
 404 580 l 1,3,-1
 296 580 l 1,4,-1
 262 654 l 1,5,-1
 190 580 l 1,6,-1
 75 580 l 1,0,-1
60 0 m 1,7,-1
 175 500 l 1,8,-1
 283 500 l 1,9,-1
 168 0 l 1,10,-1
 60 0 l 1,7,-1
EndSplineSet
EndChar

StartChar: idieresis
Encoding: 239 239 176
Width: 227
GlyphClass: 2
Flags: W
LayerCount: 2
Fore
SplineSet
95 609 m 1,0,-1
 122 726 l 1,1,-1
 220 726 l 1,2,-1
 193 609 l 1,3,-1
 95 609 l 1,0,-1
293 609 m 1,4,-1
 319 726 l 1,5,-1
 418 726 l 1,6,-1
 390 609 l 1,7,-1
 293 609 l 1,4,-1
60 0 m 1,8,-1
 175 500 l 1,9,-1
 283 500 l 1,10,-1
 168 0 l 1,11,-1
 60 0 l 1,8,-1
EndSplineSet
EndChar

StartChar: eth
Encoding: 240 240 177
Width: 523
GlyphClass: 2
Flags: W
LayerCount: 2
Fore
SplineSet
578 451 m 0,0,1
 578 406 578 406 565 355 c 0,2,3
 519 165 519 165 446 78 c 128,-1,4
 373 -9 373 -9 248 -9 c 0,5,6
 149 -9 149 -9 106 52 c 0,7,8
 76 94 76 94 76 149 c 0,9,10
 76 173 76 173 82 199 c 1,11,12
 100 304 100 304 170 369.5 c 128,-1,13
 240 435 240 435 339 435 c 0,14,15
 399 435 399 435 450 414 c 2,16,-1
 467 407 l 1,17,18
 470 423 470 423 470 438 c 0,19,20
 470 520 470 520 384 564 c 1,21,-1
 276 492 l 1,22,-1
 238 552 l 1,23,-1
 302 594 l 1,24,25
 253 607 253 607 225 613 c 1,26,-1
 262 708 l 1,27,28
 358 697 358 697 418 672 c 1,29,-1
 519 740 l 1,30,-1
 555 679 l 1,31,-1
 488 634 l 1,32,33
 578 568 578 568 578 451 c 0,0,1
323 336 m 0,34,35
 273 336 273 336 237 297.5 c 128,-1,36
 201 259 201 259 193 200 c 0,37,38
 190 182 190 182 190 168 c 0,39,40
 190 95 190 95 273 95 c 0,41,42
 393 95 393 95 445 308 c 1,43,44
 436 317 436 317 394.5 326.5 c 128,-1,45
 353 336 353 336 323 336 c 0,34,35
EndSplineSet
EndChar

StartChar: ntilde
Encoding: 241 241 178
Width: 506
GlyphClass: 2
Flags: W
LayerCount: 2
Fore
SplineSet
369.5 417 m 128,-1,1
 344 417 344 417 309 392 c 128,-1,2
 274 367 274 367 245 334 c 1,3,-1
 168 0 l 1,4,-1
 60 0 l 1,5,-1
 175 500 l 1,6,-1
 279 500 l 1,7,-1
 268 434 l 1,8,-1
 287 453 l 2,9,10
 306 472 306 472 341.5 491.5 c 128,-1,11
 377 511 377 511 410 511 c 0,12,13
 471 511 471 511 500.5 474.5 c 128,-1,14
 530 438 530 438 530 385.5 c 128,-1,15
 530 333 530 333 509 249 c 1,16,-1
 452 0 l 1,17,-1
 344 0 l 1,18,-1
 400 241 l 1,19,20
 418 325 418 325 418 355 c 128,-1,21
 418 385 418 385 406.5 401 c 128,-1,0
 395 417 395 417 369.5 417 c 128,-1,1
465 600 m 0,22,23
 441 600 441 600 395 623 c 128,-1,24
 349 646 349 646 337 646 c 0,25,26
 313 646 313 646 268 616 c 2,27,-1
 252 605 l 1,28,-1
 250 681 l 1,29,30
 314 741 314 741 358 741 c 0,31,32
 386 741 386 741 431 718.5 c 128,-1,33
 476 696 476 696 486 696 c 0,34,35
 505 696 505 696 552 726 c 1,36,-1
 567 736 l 1,37,-1
 571 659 l 1,38,39
 509 600 509 600 465 600 c 0,22,23
EndSplineSet
EndChar

StartChar: ograve
Encoding: 242 242 179
Width: 495
GlyphClass: 2
Flags: W
LayerCount: 2
Fore
SplineSet
337 510 m 0,0,1
 524 510 524 510 524 330 c 0,2,3
 524 244 524 244 496 167.5 c 128,-1,4
 468 91 468 91 408.5 40 c 128,-1,5
 349 -11 349 -11 270 -11 c 0,6,7
 85 -11 85 -11 85 167 c 0,8,9
 85 253 85 253 115 330.5 c 128,-1,10
 145 408 145 408 204 459 c 128,-1,11
 263 510 263 510 337 510 c 0,0,1
270 81 m 0,12,13
 335 81 335 81 375.5 157 c 128,-1,14
 416 233 416 233 416 331 c 0,15,16
 416 372 416 372 396 395 c 128,-1,17
 376 418 376 418 337 418 c 0,18,19
 273 418 273 418 233 341 c 128,-1,20
 193 264 193 264 193 166 c 0,21,22
 193 81 193 81 270 81 c 0,12,13
289 759 m 1,23,-1
 494 667 l 1,24,-1
 448 588 l 1,25,-1
 237 671 l 1,26,-1
 289 759 l 1,23,-1
EndSplineSet
EndChar

StartChar: oacute
Encoding: 243 243 180
Width: 495
GlyphClass: 2
Flags: W
LayerCount: 2
Fore
SplineSet
337 510 m 0,0,1
 524 510 524 510 524 330 c 0,2,3
 524 244 524 244 496 167.5 c 128,-1,4
 468 91 468 91 408.5 40 c 128,-1,5
 349 -11 349 -11 270 -11 c 0,6,7
 85 -11 85 -11 85 167 c 0,8,9
 85 253 85 253 115 330.5 c 128,-1,10
 145 408 145 408 204 459 c 128,-1,11
 263 510 263 510 337 510 c 0,0,1
270 81 m 0,12,13
 335 81 335 81 375.5 157 c 128,-1,14
 416 233 416 233 416 331 c 0,15,16
 416 372 416 372 396 395 c 128,-1,17
 376 418 376 418 337 418 c 0,18,19
 273 418 273 418 233 341 c 128,-1,20
 193 264 193 264 193 166 c 0,21,22
 193 81 193 81 270 81 c 0,12,13
291 585 m 1,23,-1
 282 671 l 1,24,-1
 530 763 l 1,25,-1
 539 666 l 1,26,-1
 291 585 l 1,23,-1
EndSplineSet
EndChar

StartChar: ocircumflex
Encoding: 244 244 181
Width: 495
GlyphClass: 2
Flags: W
LayerCount: 2
Fore
SplineSet
215 580 m 1,0,-1
 378 745 l 1,1,-1
 457 745 l 1,2,-1
 544 580 l 1,3,-1
 436 580 l 1,4,-1
 402 654 l 1,5,-1
 330 580 l 1,6,-1
 215 580 l 1,0,-1
337 510 m 0,7,8
 524 510 524 510 524 330 c 0,9,10
 524 244 524 244 496 167.5 c 128,-1,11
 468 91 468 91 408.5 40 c 128,-1,12
 349 -11 349 -11 270 -11 c 0,13,14
 85 -11 85 -11 85 167 c 0,15,16
 85 253 85 253 115 330.5 c 128,-1,17
 145 408 145 408 204 459 c 128,-1,18
 263 510 263 510 337 510 c 0,7,8
270 81 m 0,19,20
 335 81 335 81 375.5 157 c 128,-1,21
 416 233 416 233 416 331 c 0,22,23
 416 372 416 372 396 395 c 128,-1,24
 376 418 376 418 337 418 c 0,25,26
 273 418 273 418 233 341 c 128,-1,27
 193 264 193 264 193 166 c 0,28,29
 193 81 193 81 270 81 c 0,19,20
EndSplineSet
EndChar

StartChar: otilde
Encoding: 245 245 182
Width: 495
GlyphClass: 2
Flags: W
LayerCount: 2
Fore
SplineSet
337 510 m 0,0,1
 524 510 524 510 524 330 c 0,2,3
 524 244 524 244 496 167.5 c 128,-1,4
 468 91 468 91 408.5 40 c 128,-1,5
 349 -11 349 -11 270 -11 c 0,6,7
 85 -11 85 -11 85 167 c 0,8,9
 85 253 85 253 115 330.5 c 128,-1,10
 145 408 145 408 204 459 c 128,-1,11
 263 510 263 510 337 510 c 0,0,1
270 81 m 0,12,13
 335 81 335 81 375.5 157 c 128,-1,14
 416 233 416 233 416 331 c 0,15,16
 416 372 416 372 396 395 c 128,-1,17
 376 418 376 418 337 418 c 0,18,19
 273 418 273 418 233 341 c 128,-1,20
 193 264 193 264 193 166 c 0,21,22
 193 81 193 81 270 81 c 0,12,13
444 600 m 0,23,24
 420 600 420 600 374 623 c 128,-1,25
 328 646 328 646 316 646 c 0,26,27
 292 646 292 646 246 616 c 1,28,-1
 231 605 l 1,29,-1
 229 681 l 1,30,31
 293 741 293 741 337 741 c 0,32,33
 364 741 364 741 410 718.5 c 128,-1,34
 456 696 456 696 466 696 c 0,35,36
 484 696 484 696 530 726 c 1,37,-1
 546 736 l 1,38,-1
 550 659 l 1,39,40
 488 600 488 600 444 600 c 0,23,24
EndSplineSet
EndChar

StartChar: odieresis
Encoding: 246 246 183
Width: 495
GlyphClass: 2
Flags: W
LayerCount: 2
Fore
SplineSet
337 510 m 0,0,1
 524 510 524 510 524 330 c 0,2,3
 524 244 524 244 496 167.5 c 128,-1,4
 468 91 468 91 408.5 40 c 128,-1,5
 349 -11 349 -11 270 -11 c 0,6,7
 85 -11 85 -11 85 167 c 0,8,9
 85 253 85 253 115 330.5 c 128,-1,10
 145 408 145 408 204 459 c 128,-1,11
 263 510 263 510 337 510 c 0,0,1
270 81 m 0,12,13
 335 81 335 81 375.5 157 c 128,-1,14
 416 233 416 233 416 331 c 0,15,16
 416 372 416 372 396 395 c 128,-1,17
 376 418 376 418 337 418 c 0,18,19
 273 418 273 418 233 341 c 128,-1,20
 193 264 193 264 193 166 c 0,21,22
 193 81 193 81 270 81 c 0,12,13
243 609 m 1,23,-1
 270 726 l 1,24,-1
 359 726 l 1,25,-1
 332 609 l 1,26,-1
 243 609 l 1,23,-1
432 609 m 1,27,-1
 458 726 l 1,28,-1
 548 726 l 1,29,-1
 520 609 l 1,30,-1
 432 609 l 1,27,-1
EndSplineSet
EndChar

StartChar: divide
Encoding: 247 247 184
Width: 560
GlyphClass: 2
Flags: W
LayerCount: 2
Fore
SplineSet
163 241 m 1,0,-1
 163 351 l 1,1,-1
 231 351 l 1,2,-1
 231 428 l 1,3,-1
 444 428 l 1,4,-1
 444 351 l 1,5,-1
 513 351 l 1,6,-1
 513 241 l 1,7,-1
 163 241 l 1,0,-1
283 23 m 1,8,-1
 283 141 l 1,9,-1
 391 141 l 1,10,-1
 391 23 l 1,11,-1
 283 23 l 1,8,-1
EndSplineSet
EndChar

StartChar: oslash
Encoding: 248 248 185
Width: 495
GlyphClass: 2
Flags: W
LayerCount: 2
Fore
SplineSet
338 512 m 0,0,1
 383 512 383 512 424 499 c 1,2,-1
 489 605 l 1,3,-1
 548 579 l 1,4,-1
 477 468 l 1,5,6
 525 422 525 422 525 334 c 128,-1,7
 525 246 525 246 497 169.5 c 128,-1,8
 469 93 469 93 409.5 42 c 128,-1,9
 350 -9 350 -9 271 -9 c 0,10,11
 222 -9 222 -9 186 3 c 1,12,-1
 117 -109 l 1,13,-1
 58 -83 l 1,14,-1
 133 34 l 1,15,16
 86 78 86 78 86 166.5 c 128,-1,17
 86 255 86 255 116 332.5 c 128,-1,18
 146 410 146 410 205 461 c 128,-1,19
 264 512 264 512 338 512 c 0,0,1
271 83 m 0,20,21
 336 83 336 83 376.5 159 c 128,-1,22
 417 235 417 235 417 333 c 0,23,24
 417 350 417 350 412 367 c 1,25,-1
 329 237 l 1,26,-1
 238 88 l 1,27,28
 253 83 253 83 271 83 c 0,20,21
338 420 m 0,29,30
 274 420 274 420 234 343 c 128,-1,31
 194 266 194 266 194 168 c 0,32,33
 194 148 194 148 198 135 c 1,34,-1
 279 263 l 1,35,-1
 372 414 l 1,36,37
 357 420 357 420 338 420 c 0,29,30
EndSplineSet
EndChar

StartChar: ugrave
Encoding: 249 249 186
Width: 506
GlyphClass: 2
Flags: W
LayerCount: 2
Fore
SplineSet
292 759 m 1,0,-1
 497 667 l 1,1,-1
 451 588 l 1,2,-1
 240 671 l 1,3,-1
 292 759 l 1,0,-1
212 -11 m 0,4,5
 151 -11 151 -11 121.5 25.5 c 128,-1,6
 92 62 92 62 92 123 c 0,7,8
 92 160 92 160 112 251 c 2,9,-1
 169 500 l 1,10,-1
 277 500 l 1,11,-1
 222 259 l 1,12,13
 204 187 204 187 204 148 c 0,14,15
 204 83 204 83 256 83 c 0,16,17
 277 83 277 83 307 103.5 c 128,-1,18
 337 124 337 124 357 145 c 2,19,-1
 377 166 l 1,20,-1
 454 500 l 1,21,-1
 562 500 l 1,22,-1
 447 0 l 1,23,-1
 343 0 l 1,24,-1
 354 66 l 1,25,26
 346 57 346 57 333 44.5 c 128,-1,27
 320 32 320 32 282.5 10.5 c 128,-1,28
 245 -11 245 -11 212 -11 c 0,4,5
EndSplineSet
EndChar

StartChar: uacute
Encoding: 250 250 187
Width: 506
GlyphClass: 2
Flags: W
LayerCount: 2
Fore
SplineSet
212 -11 m 0,0,1
 151 -11 151 -11 121.5 25.5 c 128,-1,2
 92 62 92 62 92 123 c 0,3,4
 92 160 92 160 112 251 c 2,5,-1
 169 500 l 1,6,-1
 277 500 l 1,7,-1
 222 259 l 1,8,9
 204 187 204 187 204 148 c 0,10,11
 204 83 204 83 256 83 c 0,12,13
 277 83 277 83 307 103.5 c 128,-1,14
 337 124 337 124 357 145 c 2,15,-1
 377 166 l 1,16,-1
 454 500 l 1,17,-1
 562 500 l 1,18,-1
 447 0 l 1,19,-1
 343 0 l 1,20,-1
 354 66 l 1,21,22
 346 57 346 57 333 44.5 c 128,-1,23
 320 32 320 32 282.5 10.5 c 128,-1,24
 245 -11 245 -11 212 -11 c 0,0,1
298 585 m 1,25,-1
 289 671 l 1,26,-1
 537 763 l 1,27,-1
 546 666 l 1,28,-1
 298 585 l 1,25,-1
EndSplineSet
EndChar

StartChar: ucircumflex
Encoding: 251 251 188
Width: 506
GlyphClass: 2
Flags: W
LayerCount: 2
Fore
SplineSet
207 580 m 1,0,-1
 369 745 l 1,1,-1
 449 745 l 1,2,-1
 535 580 l 1,3,-1
 428 580 l 1,4,-1
 393 654 l 1,5,-1
 322 580 l 1,6,-1
 207 580 l 1,0,-1
212 -11 m 0,7,8
 151 -11 151 -11 121.5 25.5 c 128,-1,9
 92 62 92 62 92 123 c 0,10,11
 92 160 92 160 112 251 c 2,12,-1
 169 500 l 1,13,-1
 277 500 l 1,14,-1
 222 259 l 1,15,16
 204 187 204 187 204 148 c 0,17,18
 204 83 204 83 256 83 c 0,19,20
 277 83 277 83 307 103.5 c 128,-1,21
 337 124 337 124 357 145 c 2,22,-1
 377 166 l 1,23,-1
 454 500 l 1,24,-1
 562 500 l 1,25,-1
 447 0 l 1,26,-1
 343 0 l 1,27,-1
 354 66 l 1,28,29
 346 57 346 57 333 44.5 c 128,-1,30
 320 32 320 32 282.5 10.5 c 128,-1,31
 245 -11 245 -11 212 -11 c 0,7,8
EndSplineSet
EndChar

StartChar: udieresis
Encoding: 252 252 189
Width: 506
GlyphClass: 2
Flags: W
LayerCount: 2
Fore
SplineSet
230 609 m 1,0,-1
 257 726 l 1,1,-1
 355 726 l 1,2,-1
 328 609 l 1,3,-1
 230 609 l 1,0,-1
428 609 m 1,4,-1
 454 726 l 1,5,-1
 552 726 l 1,6,-1
 525 609 l 1,7,-1
 428 609 l 1,4,-1
212 -11 m 0,8,9
 151 -11 151 -11 121.5 25.5 c 128,-1,10
 92 62 92 62 92 123 c 0,11,12
 92 160 92 160 112 251 c 2,13,-1
 169 500 l 1,14,-1
 277 500 l 1,15,-1
 222 259 l 1,16,17
 204 187 204 187 204 148 c 0,18,19
 204 83 204 83 256 83 c 0,20,21
 277 83 277 83 307 103.5 c 128,-1,22
 337 124 337 124 357 145 c 2,23,-1
 377 166 l 1,24,-1
 454 500 l 1,25,-1
 562 500 l 1,26,-1
 447 0 l 1,27,-1
 343 0 l 1,28,-1
 354 66 l 1,29,30
 346 57 346 57 333 44.5 c 128,-1,31
 320 32 320 32 282.5 10.5 c 128,-1,32
 245 -11 245 -11 212 -11 c 0,8,9
EndSplineSet
EndChar

StartChar: yacute
Encoding: 253 253 190
Width: 460
GlyphClass: 2
Flags: W
LayerCount: 2
Fore
SplineSet
131 500 m 1,0,-1
 238 500 l 1,1,-1
 233 90 l 1,2,-1
 255 90 l 1,3,-1
 448 500 l 1,4,-1
 558 500 l 1,5,-1
 212 -215 l 1,6,-1
 103 -215 l 1,7,-1
 211 0 l 1,8,-1
 135 0 l 1,9,-1
 131 500 l 1,0,-1
280 585 m 1,10,-1
 271 671 l 1,11,-1
 519 763 l 1,12,-1
 528 666 l 1,13,-1
 280 585 l 1,10,-1
EndSplineSet
EndChar

StartChar: thorn
Encoding: 254 254 191
Width: 490
GlyphClass: 2
Flags: W
LayerCount: 2
Fore
SplineSet
270 461 m 1,0,1
 331 510 331 510 387 510 c 128,-1,2
 443 510 443 510 476 486 c 128,-1,3
 509 462 509 462 517.5 426 c 128,-1,4
 526 390 526 390 526 369 c 128,-1,5
 526 348 526 348 525 323.5 c 128,-1,6
 524 299 524 299 512 256 c 0,7,8
 473 110 473 110 410.5 49.5 c 128,-1,9
 348 -11 348 -11 241 -11 c 0,10,11
 207 -11 207 -11 183 -8 c 128,-1,12
 159 -5 159 -5 159 -4 c 2,13,-1
 110 -213 l 1,14,-1
 8 -213 l 1,15,-1
 225 706 l 1,16,-1
 327 706 l 1,17,-1
 270 461 l 1,0,1
404.5 384 m 128,-1,19
 390 410 390 410 355 410 c 0,20,21
 335 410 335 410 307 397.5 c 128,-1,22
 279 385 279 385 262 374 c 2,23,-1
 245 362 l 1,24,-1
 182 94 l 1,25,-1
 261 86 l 1,26,27
 317 86 317 86 351 128.5 c 128,-1,28
 385 171 385 171 408 257 c 0,29,30
 419 297 419 297 419 327.5 c 128,-1,18
 419 358 419 358 404.5 384 c 128,-1,19
EndSplineSet
EndChar

StartChar: ydieresis
Encoding: 255 255 192
Width: 460
GlyphClass: 2
Flags: W
LayerCount: 2
Fore
SplineSet
211 609 m 1,0,-1
 238 726 l 1,1,-1
 336 726 l 1,2,-1
 309 609 l 1,3,-1
 211 609 l 1,0,-1
409 609 m 1,4,-1
 435 726 l 1,5,-1
 533 726 l 1,6,-1
 506 609 l 1,7,-1
 409 609 l 1,4,-1
131 500 m 1,8,-1
 238 500 l 1,9,-1
 233 90 l 1,10,-1
 255 90 l 1,11,-1
 448 500 l 1,12,-1
 558 500 l 1,13,-1
 212 -215 l 1,14,-1
 103 -215 l 1,15,-1
 211 0 l 1,16,-1
 135 0 l 1,17,-1
 131 500 l 1,8,-1
EndSplineSet
EndChar

StartChar: Amacron
Encoding: 256 256 193
Width: 552
GlyphClass: 2
Flags: W
LayerCount: 2
Fore
SplineSet
299 817 m 1,0,-1
 319 904 l 1,1,-1
 632 904 l 1,2,-1
 611 817 l 1,3,-1
 299 817 l 1,0,-1
423 0 m 1,4,-1
 423 143 l 1,5,-1
 199 143 l 1,6,-1
 130 0 l 1,7,-1
 18 0 l 1,8,-1
 341 685 l 1,9,-1
 540 685 l 1,10,-1
 534 0 l 1,11,-1
 423 0 l 1,4,-1
406 588 m 1,12,-1
 242 241 l 1,13,-1
 426 241 l 1,14,-1
 431 588 l 1,15,-1
 406 588 l 1,12,-1
EndSplineSet
Position2: "'cpsp' Capital Spacing in Latin lookup 0 subtable" dx=5 dy=0 dh=10 dv=0
EndChar

StartChar: amacron
Encoding: 257 257 194
Width: 516
GlyphClass: 2
Flags: W
LayerCount: 2
Fore
SplineSet
219 -11 m 0,0,1
 150 -11 150 -11 117 33.5 c 128,-1,2
 84 78 84 78 84 145.5 c 128,-1,3
 84 213 84 213 99.5 273 c 128,-1,4
 115 333 115 333 144 387.5 c 128,-1,5
 173 442 173 442 223.5 476.5 c 128,-1,6
 274 511 274 511 337 511 c 0,7,8
 393 511 393 511 525 489 c 2,9,-1
 567 482 l 1,10,-1
 492 158 l 1,11,-1
 465 2 l 1,12,-1
 358 -2 l 1,13,14
 369 70 369 70 373 89 c 1,15,16
 326 27 326 27 266 0 c 0,17,18
 242 -11 242 -11 219 -11 c 0,0,1
443 404 m 1,19,20
 375 419 375 419 335 419 c 128,-1,21
 295 419 295 419 260 374 c 0,22,23
 194 291 194 291 194 156 c 0,24,25
 194 119 194 119 207.5 100.5 c 128,-1,26
 221 82 221 82 249.5 82 c 128,-1,27
 278 82 278 82 312 108.5 c 128,-1,28
 346 135 346 135 369 162 c 2,29,-1
 392 189 l 1,30,-1
 443 404 l 1,19,20
280 632 m 1,31,-1
 300 720 l 1,32,-1
 595 720 l 1,33,-1
 574 632 l 1,34,-1
 280 632 l 1,31,-1
EndSplineSet
EndChar

StartChar: Abreve
Encoding: 258 258 195
Width: 552
GlyphClass: 2
Flags: W
LayerCount: 2
Fore
SplineSet
431 913 m 0,0,1
 431 874 431 874 477 874 c 0,2,3
 501 874 501 874 519.5 888 c 128,-1,4
 538 902 538 902 546 925 c 1,5,-1
 644 925 l 1,6,7
 600 788 600 788 459 788 c 0,8,9
 389 788 389 788 360.5 819 c 128,-1,10
 332 850 332 850 332 895 c 0,11,12
 332 909 332 909 334 925 c 1,13,-1
 432 925 l 1,14,15
 431 918 431 918 431 913 c 0,0,1
423 0 m 1,16,-1
 423 143 l 1,17,-1
 199 143 l 1,18,-1
 130 0 l 1,19,-1
 18 0 l 1,20,-1
 341 685 l 1,21,-1
 540 685 l 1,22,-1
 534 0 l 1,23,-1
 423 0 l 1,16,-1
406 588 m 1,24,-1
 242 241 l 1,25,-1
 426 241 l 1,26,-1
 431 588 l 1,27,-1
 406 588 l 1,24,-1
EndSplineSet
Position2: "'cpsp' Capital Spacing in Latin lookup 0 subtable" dx=5 dy=0 dh=10 dv=0
EndChar

StartChar: abreve
Encoding: 259 259 196
Width: 516
GlyphClass: 2
Flags: W
LayerCount: 2
Fore
SplineSet
219 -11 m 0,0,1
 150 -11 150 -11 117 33.5 c 128,-1,2
 84 78 84 78 84 145.5 c 128,-1,3
 84 213 84 213 99.5 273 c 128,-1,4
 115 333 115 333 144 387.5 c 128,-1,5
 173 442 173 442 223.5 476.5 c 128,-1,6
 274 511 274 511 337 511 c 0,7,8
 393 511 393 511 525 489 c 2,9,-1
 567 482 l 1,10,-1
 492 158 l 1,11,-1
 465 2 l 1,12,-1
 358 -2 l 1,13,14
 369 70 369 70 373 89 c 1,15,16
 326 27 326 27 266 0 c 0,17,18
 242 -11 242 -11 219 -11 c 0,0,1
443 404 m 1,19,20
 375 419 375 419 335 419 c 128,-1,21
 295 419 295 419 260 374 c 0,22,23
 194 291 194 291 194 156 c 0,24,25
 194 119 194 119 207.5 100.5 c 128,-1,26
 221 82 221 82 249.5 82 c 128,-1,27
 278 82 278 82 312 108.5 c 128,-1,28
 346 135 346 135 369 162 c 2,29,-1
 392 189 l 1,30,-1
 443 404 l 1,19,20
391 739 m 1,31,32
 390 732 390 732 390 720.5 c 128,-1,33
 390 709 390 709 400 695 c 128,-1,34
 410 681 410 681 441 681 c 0,35,36
 500 681 500 681 519 739 c 1,37,-1
 616 739 l 1,38,39
 568 591 568 591 414 591 c 0,40,41
 343 591 343 591 313 630 c 0,42,43
 291 658 291 658 291 703 c 0,44,45
 291 720 291 720 294 739 c 1,46,-1
 391 739 l 1,31,32
EndSplineSet
EndChar

StartChar: Aogonek
Encoding: 260 260 197
Width: 552
GlyphClass: 2
Flags: W
LayerCount: 2
Fore
SplineSet
534 0 m 1,0,-1
 528 0 l 1,1,2
 503 -18 503 -18 477.5 -48.5 c 128,-1,3
 452 -79 452 -79 452 -96.5 c 128,-1,4
 452 -114 452 -114 470 -114 c 1,5,-1
 512 -110 l 1,6,-1
 501 -200 l 1,7,8
 450 -210 450 -210 413 -210 c 128,-1,9
 376 -210 376 -210 355.5 -191.5 c 128,-1,10
 335 -173 335 -173 335 -139 c 128,-1,11
 335 -105 335 -105 363.5 -67 c 128,-1,12
 392 -29 392 -29 428 0 c 1,13,-1
 423 0 l 1,14,-1
 423 143 l 1,15,-1
 199 143 l 1,16,-1
 130 0 l 1,17,-1
 18 0 l 1,18,-1
 341 685 l 1,19,-1
 540 685 l 1,20,-1
 534 4 l 1,21,-1
 534 0 l 1,0,-1
406 588 m 1,22,-1
 242 241 l 1,23,-1
 426 241 l 1,24,-1
 431 588 l 1,25,-1
 406 588 l 1,22,-1
EndSplineSet
Position2: "'cpsp' Capital Spacing in Latin lookup 0 subtable" dx=5 dy=0 dh=10 dv=0
EndChar

StartChar: aogonek
Encoding: 261 261 198
Width: 516
GlyphClass: 2
Flags: W
LayerCount: 2
Fore
SplineSet
339 -210 m 128,-1,1
 302 -210 302 -210 281.5 -191.5 c 128,-1,2
 261 -173 261 -173 261 -138 c 128,-1,3
 261 -103 261 -103 291 -64 c 128,-1,4
 321 -25 321 -25 358 4 c 1,5,6
 358 14 358 14 373 89 c 1,7,8
 326 27 326 27 266 0 c 0,9,10
 242 -11 242 -11 219 -11 c 0,11,12
 150 -11 150 -11 117 33.5 c 128,-1,13
 84 78 84 78 84 145.5 c 128,-1,14
 84 213 84 213 99.5 273 c 128,-1,15
 115 333 115 333 144 387.5 c 128,-1,16
 173 442 173 442 223.5 476.5 c 128,-1,17
 274 511 274 511 337 511 c 0,18,19
 393 511 393 511 525 489 c 2,20,-1
 567 482 l 1,21,-1
 492 158 l 1,22,-1
 465 2 l 1,23,-1
 456 1 l 1,24,25
 432 -15 432 -15 405 -46.5 c 128,-1,26
 378 -78 378 -78 378 -96 c 128,-1,27
 378 -114 378 -114 396 -114 c 1,28,-1
 438 -110 l 1,29,-1
 427 -200 l 1,30,0
 376 -210 376 -210 339 -210 c 128,-1,1
443 404 m 1,31,32
 375 419 375 419 335 419 c 128,-1,33
 295 419 295 419 260 374 c 0,34,35
 194 291 194 291 194 156 c 0,36,37
 194 119 194 119 207.5 100.5 c 128,-1,38
 221 82 221 82 249.5 82 c 128,-1,39
 278 82 278 82 312 108.5 c 128,-1,40
 346 135 346 135 369 162 c 2,41,-1
 392 189 l 1,42,-1
 443 404 l 1,31,32
EndSplineSet
EndChar

StartChar: Cacute
Encoding: 262 262 199
Width: 498
GlyphClass: 2
Flags: W
LayerCount: 2
Fore
SplineSet
305 -11 m 0,0,1
 105 -11 105 -11 105 186 c 0,2,3
 105 331 105 331 155 457 c 0,4,5
 182 525 182 525 221.5 577.5 c 128,-1,6
 261 630 261 630 321 663 c 128,-1,7
 381 696 381 696 454 696 c 0,8,9
 521 696 521 696 598 676 c 1,10,-1
 623 669 l 1,11,-1
 597 585 l 1,12,13
 529 599 529 599 454 599 c 128,-1,14
 379 599 379 599 325 537 c 128,-1,15
 271 475 271 475 245.5 384 c 128,-1,16
 220 293 220 293 220 194 c 0,17,18
 220 86 220 86 319 86 c 0,19,20
 382 86 382 86 458 98 c 1,21,-1
 481 101 l 1,22,-1
 473 13 l 1,23,24
 382 -11 382 -11 305 -11 c 0,0,1
395 774 m 1,25,-1
 386 859 l 1,26,-1
 634 951 l 1,27,-1
 644 854 l 1,28,-1
 395 774 l 1,25,-1
EndSplineSet
Position2: "'cpsp' Capital Spacing in Latin lookup 0 subtable" dx=5 dy=0 dh=10 dv=0
EndChar

StartChar: cacute
Encoding: 263 263 200
Width: 407
GlyphClass: 2
Flags: W
LayerCount: 2
Fore
SplineSet
348 511 m 0,0,1
 405 511 405 511 466 492 c 1,2,-1
 487 485 l 1,3,-1
 459 405 l 1,4,5
 387 417 387 417 344 417 c 0,6,7
 273 417 273 417 235 344.5 c 128,-1,8
 197 272 197 272 197 177.5 c 128,-1,9
 197 83 197 83 284 83 c 0,10,11
 327 83 327 83 375 91 c 2,12,-1
 393 94 l 1,13,-1
 385 12 l 1,14,15
 314 -11 314 -11 242.5 -11 c 128,-1,16
 171 -11 171 -11 128.5 32 c 128,-1,17
 86 75 86 75 86 153 c 0,18,19
 86 307 86 307 154 409 c 128,-1,20
 222 511 222 511 348 511 c 0,0,1
280 585 m 1,21,-1
 271 671 l 1,22,-1
 519 763 l 1,23,-1
 528 666 l 1,24,-1
 280 585 l 1,21,-1
EndSplineSet
EndChar

StartChar: Ccircumflex
Encoding: 264 264 201
Width: 498
GlyphClass: 2
Flags: W
LayerCount: 2
Fore
SplineSet
305 -11 m 0,0,1
 105 -11 105 -11 105 186 c 0,2,3
 105 331 105 331 155 457 c 0,4,5
 182 525 182 525 221.5 577.5 c 128,-1,6
 261 630 261 630 321 663 c 128,-1,7
 381 696 381 696 454 696 c 0,8,9
 521 696 521 696 598 676 c 1,10,-1
 623 669 l 1,11,-1
 597 585 l 1,12,13
 529 599 529 599 454 599 c 128,-1,14
 379 599 379 599 325 537 c 128,-1,15
 271 475 271 475 245.5 384 c 128,-1,16
 220 293 220 293 220 194 c 0,17,18
 220 86 220 86 319 86 c 0,19,20
 382 86 382 86 458 98 c 1,21,-1
 481 101 l 1,22,-1
 473 13 l 1,23,24
 382 -11 382 -11 305 -11 c 0,0,1
311 785 m 1,25,-1
 481 931 l 1,26,-1
 544 931 l 1,27,-1
 640 785 l 1,28,-1
 541 785 l 1,29,-1
 503 851 l 1,30,-1
 426 785 l 1,31,-1
 311 785 l 1,25,-1
EndSplineSet
Position2: "'cpsp' Capital Spacing in Latin lookup 0 subtable" dx=5 dy=0 dh=10 dv=0
EndChar

StartChar: ccircumflex
Encoding: 265 265 202
Width: 407
GlyphClass: 2
Flags: W
LayerCount: 2
Fore
SplineSet
348 511 m 0,0,1
 405 511 405 511 466 492 c 1,2,-1
 487 485 l 1,3,-1
 459 405 l 1,4,5
 387 417 387 417 344 417 c 0,6,7
 273 417 273 417 235 344.5 c 128,-1,8
 197 272 197 272 197 177.5 c 128,-1,9
 197 83 197 83 284 83 c 0,10,11
 327 83 327 83 375 91 c 2,12,-1
 393 94 l 1,13,-1
 385 12 l 1,14,15
 314 -11 314 -11 242.5 -11 c 128,-1,16
 171 -11 171 -11 128.5 32 c 128,-1,17
 86 75 86 75 86 153 c 0,18,19
 86 307 86 307 154 409 c 128,-1,20
 222 511 222 511 348 511 c 0,0,1
209 580 m 1,21,-1
 371 745 l 1,22,-1
 434 745 l 1,23,-1
 520 580 l 1,24,-1
 421 580 l 1,25,-1
 386 654 l 1,26,-1
 315 580 l 1,27,-1
 209 580 l 1,21,-1
EndSplineSet
EndChar

StartChar: Cdotaccent
Encoding: 266 266 203
Width: 498
GlyphClass: 2
Flags: W
LayerCount: 2
Fore
SplineSet
305 -11 m 0,0,1
 105 -11 105 -11 105 186 c 0,2,3
 105 331 105 331 155 457 c 0,4,5
 182 525 182 525 221.5 577.5 c 128,-1,6
 261 630 261 630 321 663 c 128,-1,7
 381 696 381 696 454 696 c 0,8,9
 521 696 521 696 598 676 c 1,10,-1
 623 669 l 1,11,-1
 597 585 l 1,12,13
 529 599 529 599 454 599 c 128,-1,14
 379 599 379 599 325 537 c 128,-1,15
 271 475 271 475 245.5 384 c 128,-1,16
 220 293 220 293 220 194 c 0,17,18
 220 86 220 86 319 86 c 0,19,20
 382 86 382 86 458 98 c 1,21,-1
 481 101 l 1,22,-1
 473 13 l 1,23,24
 382 -11 382 -11 305 -11 c 0,0,1
424 780 m 1,25,-1
 451 898 l 1,26,-1
 546 898 l 1,27,-1
 518 780 l 1,28,-1
 424 780 l 1,25,-1
EndSplineSet
Position2: "'cpsp' Capital Spacing in Latin lookup 0 subtable" dx=5 dy=0 dh=10 dv=0
EndChar

StartChar: cdotaccent
Encoding: 267 267 204
Width: 407
GlyphClass: 2
Flags: W
LayerCount: 2
Fore
SplineSet
348 511 m 0,0,1
 405 511 405 511 466 492 c 1,2,-1
 487 485 l 1,3,-1
 459 405 l 1,4,5
 387 417 387 417 344 417 c 0,6,7
 273 417 273 417 235 344.5 c 128,-1,8
 197 272 197 272 197 177.5 c 128,-1,9
 197 83 197 83 284 83 c 0,10,11
 327 83 327 83 375 91 c 2,12,-1
 393 94 l 1,13,-1
 385 12 l 1,14,15
 314 -11 314 -11 242.5 -11 c 128,-1,16
 171 -11 171 -11 128.5 32 c 128,-1,17
 86 75 86 75 86 153 c 0,18,19
 86 307 86 307 154 409 c 128,-1,20
 222 511 222 511 348 511 c 0,0,1
315 592 m 1,21,-1
 342 708 l 1,22,-1
 435 708 l 1,23,-1
 408 592 l 1,24,-1
 315 592 l 1,21,-1
EndSplineSet
EndChar

StartChar: Ccaron
Encoding: 268 268 205
Width: 498
GlyphClass: 2
Flags: W
LayerCount: 2
Fore
SplineSet
305 -11 m 0,0,1
 105 -11 105 -11 105 186 c 0,2,3
 105 331 105 331 155 457 c 0,4,5
 182 525 182 525 221.5 577.5 c 128,-1,6
 261 630 261 630 321 663 c 128,-1,7
 381 696 381 696 454 696 c 0,8,9
 521 696 521 696 598 676 c 1,10,-1
 623 669 l 1,11,-1
 597 585 l 1,12,13
 529 599 529 599 454 599 c 128,-1,14
 379 599 379 599 325 537 c 128,-1,15
 271 475 271 475 245.5 384 c 128,-1,16
 220 293 220 293 220 194 c 0,17,18
 220 86 220 86 319 86 c 0,19,20
 382 86 382 86 458 98 c 1,21,-1
 481 101 l 1,22,-1
 473 13 l 1,23,24
 382 -11 382 -11 305 -11 c 0,0,1
672 928 m 1,25,-1
 514 783 l 1,26,-1
 441 783 l 1,27,-1
 346 928 l 1,28,-1
 453 928 l 1,29,-1
 495 860 l 1,30,-1
 565 928 l 1,31,-1
 672 928 l 1,25,-1
EndSplineSet
Position2: "'cpsp' Capital Spacing in Latin lookup 0 subtable" dx=5 dy=0 dh=10 dv=0
EndChar

StartChar: ccaron
Encoding: 269 269 206
Width: 407
GlyphClass: 2
Flags: W
LayerCount: 2
Fore
SplineSet
404 580 m 1,0,-1
 337 580 l 1,1,-1
 254 745 l 1,2,-1
 353 745 l 1,3,-1
 392 669 l 1,4,-1
 461 745 l 1,5,-1
 567 745 l 1,6,-1
 404 580 l 1,0,-1
348 511 m 0,7,8
 405 511 405 511 466 492 c 1,9,-1
 487 485 l 1,10,-1
 459 405 l 1,11,12
 387 417 387 417 344 417 c 0,13,14
 273 417 273 417 235 344.5 c 128,-1,15
 197 272 197 272 197 177.5 c 128,-1,16
 197 83 197 83 284 83 c 0,17,18
 327 83 327 83 375 91 c 2,19,-1
 393 94 l 1,20,-1
 385 12 l 1,21,22
 314 -11 314 -11 242.5 -11 c 128,-1,23
 171 -11 171 -11 128.5 32 c 128,-1,24
 86 75 86 75 86 153 c 0,25,26
 86 307 86 307 154 409 c 128,-1,27
 222 511 222 511 348 511 c 0,7,8
EndSplineSet
EndChar

StartChar: Dcaron
Encoding: 270 270 207
Width: 606
GlyphClass: 2
Flags: W
LayerCount: 2
Fore
SplineSet
313 0 m 2,0,-1
 70 0 l 1,1,-1
 229 685 l 1,2,-1
 446 685 l 2,3,4
 656 685 656 685 656 479 c 0,5,6
 656 302 656 302 574 158 c 0,7,8
 534 87 534 87 466 43.5 c 128,-1,9
 398 0 398 0 313 0 c 2,0,-1
512.5 562.5 m 128,-1,11
 484 588 484 588 424 588 c 2,12,-1
 317 588 l 1,13,-1
 205 97 l 1,14,-1
 324 97 l 2,15,16
 378 97 378 97 422 136.5 c 128,-1,17
 466 176 466 176 490.5 236 c 128,-1,18
 515 296 515 296 528 359 c 128,-1,19
 541 422 541 422 541 479.5 c 128,-1,10
 541 537 541 537 512.5 562.5 c 128,-1,11
638 928 m 1,20,-1
 480 783 l 1,21,-1
 407 783 l 1,22,-1
 312 928 l 1,23,-1
 419 928 l 1,24,-1
 461 860 l 1,25,-1
 531 928 l 1,26,-1
 638 928 l 1,20,-1
EndSplineSet
Position2: "'cpsp' Capital Spacing in Latin lookup 0 subtable" dx=5 dy=0 dh=10 dv=0
EndChar

StartChar: dcaron
Encoding: 271 271 208
Width: 600
GlyphClass: 2
Flags: W
LayerCount: 2
Fore
SplineSet
768 685 m 1,0,-1
 710 442 l 1,1,-1
 611 442 l 1,2,-1
 670 685 l 1,3,-1
 768 685 l 1,0,-1
220 -11 m 0,4,5
 153 -11 153 -11 118.5 31 c 128,-1,6
 84 73 84 73 84 156 c 128,-1,7
 84 239 84 239 111.5 318.5 c 128,-1,8
 139 398 139 398 198 454 c 128,-1,9
 257 510 257 510 335 510 c 0,10,11
 374 510 374 510 440 496 c 1,12,-1
 461 491 l 1,13,-1
 511 708 l 1,14,-1
 620 708 l 1,15,-1
 456 0 l 1,16,-1
 351 0 l 1,17,-1
 364 68 l 1,18,19
 357 59 357 59 344 46 c 128,-1,20
 331 33 331 33 293 11 c 128,-1,21
 255 -11 255 -11 220 -11 c 0,4,5
441 404 m 1,22,23
 380 418 380 418 336 418 c 128,-1,24
 292 418 292 418 258.5 373 c 128,-1,25
 225 328 225 328 209.5 268.5 c 128,-1,26
 194 209 194 209 194 153 c 0,27,28
 194 81 194 81 255 81 c 0,29,30
 277 81 277 81 310.5 104 c 128,-1,31
 344 127 344 127 366 150 c 2,32,-1
 388 173 l 1,33,-1
 441 404 l 1,22,23
EndSplineSet
EndChar

StartChar: Dcroat
Encoding: 272 272 209
Width: 612
GlyphClass: 2
Flags: W
LayerCount: 2
Fore
SplineSet
319 0 m 2,0,-1
 76 0 l 1,1,-1
 143 290 l 1,2,-1
 84 290 l 1,3,-1
 107 400 l 1,4,-1
 169 400 l 1,5,-1
 235 685 l 1,6,-1
 452 685 l 2,7,8
 662 685 662 685 662 479 c 0,9,10
 662 302 662 302 580 158 c 0,11,12
 540 87 540 87 472 43.5 c 128,-1,13
 404 0 404 0 319 0 c 2,0,-1
534 359 m 128,-1,15
 547 422 547 422 547 479.5 c 128,-1,16
 547 537 547 537 518.5 562.5 c 128,-1,17
 490 588 490 588 430 588 c 2,18,-1
 323 588 l 1,19,-1
 280 400 l 1,20,-1
 403 400 l 1,21,-1
 379 290 l 1,22,-1
 255 290 l 1,23,-1
 211 97 l 1,24,-1
 330 97 l 2,25,26
 384 97 384 97 428 136.5 c 128,-1,27
 472 176 472 176 496.5 236 c 128,-1,14
 521 296 521 296 534 359 c 128,-1,15
EndSplineSet
Position2: "'cpsp' Capital Spacing in Latin lookup 0 subtable" dx=5 dy=0 dh=10 dv=0
EndChar

StartChar: dcroat
Encoding: 273 273 210
Width: 516
GlyphClass: 2
Flags: W
LayerCount: 2
Fore
SplineSet
220 -11 m 0,0,1
 153 -11 153 -11 118.5 31 c 128,-1,2
 84 73 84 73 84 156 c 128,-1,3
 84 239 84 239 111.5 318.5 c 128,-1,4
 139 398 139 398 198 454 c 128,-1,5
 257 510 257 510 335 510 c 0,6,7
 374 510 374 510 440 496 c 1,8,-1
 461 491 l 1,9,-1
 478 565 l 1,10,-1
 347 565 l 1,11,-1
 369 663 l 1,12,-1
 500 663 l 1,13,-1
 511 708 l 1,14,-1
 620 708 l 1,15,-1
 609 663 l 1,16,-1
 664 663 l 1,17,-1
 641 565 l 1,18,-1
 587 565 l 1,19,-1
 456 0 l 1,20,-1
 351 0 l 1,21,-1
 364 68 l 1,22,23
 357 59 357 59 344 46 c 128,-1,24
 331 33 331 33 293 11 c 128,-1,25
 255 -11 255 -11 220 -11 c 0,0,1
441 404 m 1,26,27
 380 418 380 418 336 418 c 128,-1,28
 292 418 292 418 258.5 373 c 128,-1,29
 225 328 225 328 209.5 268.5 c 128,-1,30
 194 209 194 209 194 153 c 0,31,32
 194 81 194 81 255 81 c 0,33,34
 277 81 277 81 310.5 104 c 128,-1,35
 344 127 344 127 366 150 c 2,36,-1
 388 173 l 1,37,-1
 441 404 l 1,26,27
EndSplineSet
EndChar

StartChar: Emacron
Encoding: 274 274 211
Width: 500
GlyphClass: 2
Flags: W
LayerCount: 2
Fore
SplineSet
289 814 m 1,0,-1
 309 901 l 1,1,-1
 622 901 l 1,2,-1
 601 814 l 1,3,-1
 289 814 l 1,0,-1
70 0 m 1,4,-1
 228 685 l 1,5,-1
 621 685 l 1,6,-1
 598 588 l 1,7,-1
 317 588 l 1,8,-1
 273 394 l 1,9,-1
 499 394 l 1,10,-1
 476 296 l 1,11,-1
 251 296 l 1,12,-1
 205 97 l 1,13,-1
 487 97 l 1,14,-1
 464 0 l 1,15,-1
 70 0 l 1,4,-1
EndSplineSet
Position2: "'cpsp' Capital Spacing in Latin lookup 0 subtable" dx=5 dy=0 dh=10 dv=0
EndChar

StartChar: emacron
Encoding: 275 275 212
Width: 470
GlyphClass: 2
Flags: W
LayerCount: 2
Fore
SplineSet
217 101 m 128,-1,1
 240 82 240 82 274 82 c 0,2,3
 346 82 346 82 416 94 c 1,4,-1
 442 99 l 1,5,-1
 431 17 l 1,6,7
 340 -11 340 -11 247 -11 c 0,8,9
 85 -11 85 -11 85 151 c 0,10,11
 85 293 85 293 148 396 c 0,12,13
 180 448 180 448 234 479 c 128,-1,14
 288 510 288 510 357 510 c 0,15,16
 521 510 521 510 521 373 c 0,17,18
 521 281 521 281 455.5 245 c 128,-1,19
 390 209 390 209 242 209 c 2,20,-1
 200 209 l 1,21,22
 194 187 194 187 194 153.5 c 128,-1,0
 194 120 194 120 217 101 c 128,-1,1
260 291 m 2,23,24
 344 291 344 291 379 309 c 128,-1,25
 414 327 414 327 414 372 c 0,26,27
 414 422 414 422 352 422 c 0,28,29
 248 422 248 422 213 291 c 1,30,-1
 260 291 l 2,23,24
234 632 m 1,31,-1
 254 720 l 1,32,-1
 549 720 l 1,33,-1
 528 632 l 1,34,-1
 234 632 l 1,31,-1
EndSplineSet
EndChar

StartChar: Ebreve
Encoding: 276 276 213
Width: 500
GlyphClass: 2
Flags: W
LayerCount: 2
Fore
SplineSet
409 913 m 0,0,1
 409 874 409 874 455 874 c 0,2,3
 479 874 479 874 497.5 888 c 128,-1,4
 516 902 516 902 524 925 c 1,5,-1
 622 925 l 1,6,7
 578 788 578 788 437 788 c 0,8,9
 367 788 367 788 338.5 819 c 128,-1,10
 310 850 310 850 310 895 c 0,11,12
 310 909 310 909 312 925 c 1,13,-1
 410 925 l 1,14,15
 409 918 409 918 409 913 c 0,0,1
70 0 m 1,16,-1
 228 685 l 1,17,-1
 621 685 l 1,18,-1
 598 588 l 1,19,-1
 317 588 l 1,20,-1
 273 394 l 1,21,-1
 499 394 l 1,22,-1
 476 296 l 1,23,-1
 251 296 l 1,24,-1
 205 97 l 1,25,-1
 487 97 l 1,26,-1
 464 0 l 1,27,-1
 70 0 l 1,16,-1
EndSplineSet
Position2: "'cpsp' Capital Spacing in Latin lookup 0 subtable" dx=5 dy=0 dh=10 dv=0
EndChar

StartChar: ebreve
Encoding: 277 277 214
Width: 470
GlyphClass: 2
Flags: W
LayerCount: 2
Fore
SplineSet
217 101 m 128,-1,1
 240 82 240 82 274 82 c 0,2,3
 346 82 346 82 416 94 c 1,4,-1
 442 99 l 1,5,-1
 431 17 l 1,6,7
 340 -11 340 -11 247 -11 c 0,8,9
 85 -11 85 -11 85 151 c 0,10,11
 85 293 85 293 148 396 c 0,12,13
 180 448 180 448 234 479 c 128,-1,14
 288 510 288 510 357 510 c 0,15,16
 521 510 521 510 521 373 c 0,17,18
 521 281 521 281 455.5 245 c 128,-1,19
 390 209 390 209 242 209 c 2,20,-1
 200 209 l 1,21,22
 194 187 194 187 194 153.5 c 128,-1,0
 194 120 194 120 217 101 c 128,-1,1
260 291 m 2,23,24
 344 291 344 291 379 309 c 128,-1,25
 414 327 414 327 414 372 c 0,26,27
 414 422 414 422 352 422 c 0,28,29
 248 422 248 422 213 291 c 1,30,-1
 260 291 l 2,23,24
353 739 m 1,31,32
 352 732 352 732 352 720.5 c 128,-1,33
 352 709 352 709 362 695 c 128,-1,34
 372 681 372 681 403 681 c 0,35,36
 462 681 462 681 481 739 c 1,37,-1
 578 739 l 1,38,39
 530 591 530 591 376 591 c 0,40,41
 305 591 305 591 275 630 c 0,42,43
 253 658 253 658 253 703 c 0,44,45
 253 720 253 720 256 739 c 1,46,-1
 353 739 l 1,31,32
EndSplineSet
EndChar

StartChar: Edotaccent
Encoding: 278 278 215
Width: 500
GlyphClass: 2
Flags: W
LayerCount: 2
Fore
SplineSet
389 796 m 1,0,-1
 416 914 l 1,1,-1
 511 914 l 1,2,-1
 483 796 l 1,3,-1
 389 796 l 1,0,-1
70 0 m 1,4,-1
 228 685 l 1,5,-1
 621 685 l 1,6,-1
 598 588 l 1,7,-1
 317 588 l 1,8,-1
 273 394 l 1,9,-1
 499 394 l 1,10,-1
 476 296 l 1,11,-1
 251 296 l 1,12,-1
 205 97 l 1,13,-1
 487 97 l 1,14,-1
 464 0 l 1,15,-1
 70 0 l 1,4,-1
EndSplineSet
Position2: "'cpsp' Capital Spacing in Latin lookup 0 subtable" dx=5 dy=0 dh=10 dv=0
EndChar

StartChar: edotaccent
Encoding: 279 279 216
Width: 470
GlyphClass: 2
Flags: W
LayerCount: 2
Fore
SplineSet
217 101 m 128,-1,1
 240 82 240 82 274 82 c 0,2,3
 346 82 346 82 416 94 c 1,4,-1
 442 99 l 1,5,-1
 431 17 l 1,6,7
 340 -11 340 -11 247 -11 c 0,8,9
 85 -11 85 -11 85 151 c 0,10,11
 85 293 85 293 148 396 c 0,12,13
 180 448 180 448 234 479 c 128,-1,14
 288 510 288 510 357 510 c 0,15,16
 521 510 521 510 521 373 c 0,17,18
 521 281 521 281 455.5 245 c 128,-1,19
 390 209 390 209 242 209 c 2,20,-1
 200 209 l 1,21,22
 194 187 194 187 194 153.5 c 128,-1,0
 194 120 194 120 217 101 c 128,-1,1
260 291 m 2,23,24
 344 291 344 291 379 309 c 128,-1,25
 414 327 414 327 414 372 c 0,26,27
 414 422 414 422 352 422 c 0,28,29
 248 422 248 422 213 291 c 1,30,-1
 260 291 l 2,23,24
320 592 m 1,31,-1
 347 708 l 1,32,-1
 440 708 l 1,33,-1
 413 592 l 1,34,-1
 320 592 l 1,31,-1
EndSplineSet
EndChar

StartChar: Eogonek
Encoding: 280 280 217
Width: 500
GlyphClass: 2
Flags: W
LayerCount: 2
Fore
SplineSet
398.5 -48.5 m 128,-1,1
 373 -79 373 -79 373 -96.5 c 128,-1,2
 373 -114 373 -114 391 -114 c 1,3,-1
 433 -110 l 1,4,-1
 422 -200 l 1,5,6
 371 -210 371 -210 334 -210 c 128,-1,7
 297 -210 297 -210 276.5 -191.5 c 128,-1,8
 256 -173 256 -173 256 -139 c 128,-1,9
 256 -105 256 -105 284.5 -67 c 128,-1,10
 313 -29 313 -29 349 0 c 1,11,-1
 70 0 l 1,12,-1
 228 685 l 1,13,-1
 621 685 l 1,14,-1
 598 588 l 1,15,-1
 317 588 l 1,16,-1
 273 394 l 1,17,-1
 499 394 l 1,18,-1
 476 296 l 1,19,-1
 251 296 l 1,20,-1
 205 97 l 1,21,-1
 487 97 l 1,22,-1
 464 0 l 1,23,-1
 449 0 l 1,24,0
 424 -18 424 -18 398.5 -48.5 c 128,-1,1
EndSplineSet
Position2: "'cpsp' Capital Spacing in Latin lookup 0 subtable" dx=5 dy=0 dh=10 dv=0
EndChar

StartChar: eogonek
Encoding: 281 281 218
Width: 470
GlyphClass: 2
Flags: W
LayerCount: 2
Fore
SplineSet
309 -190 m 128,-1,1
 272 -190 272 -190 251.5 -171.5 c 128,-1,2
 231 -153 231 -153 231 -119 c 0,3,4
 231 -70 231 -70 292 -9 c 1,5,6
 262 -11 262 -11 247 -11 c 0,7,8
 85 -11 85 -11 85 151 c 0,9,10
 85 293 85 293 148 396 c 0,11,12
 180 448 180 448 234 479 c 128,-1,13
 288 510 288 510 357 510 c 0,14,15
 521 510 521 510 521 373 c 0,16,17
 521 281 521 281 455.5 245 c 128,-1,18
 390 209 390 209 242 209 c 2,19,-1
 200 209 l 1,20,21
 194 187 194 187 194 153.5 c 128,-1,22
 194 120 194 120 217 101 c 128,-1,23
 240 82 240 82 274 82 c 0,24,25
 346 82 346 82 416 94 c 1,26,-1
 442 99 l 1,27,-1
 431 17 l 1,28,29
 424 15 424 15 415 12 c 1,30,31
 390 -8 390 -8 369 -34.5 c 128,-1,32
 348 -61 348 -61 348 -77.5 c 128,-1,33
 348 -94 348 -94 366 -94 c 1,34,-1
 408 -90 l 1,35,-1
 397 -180 l 1,36,0
 346 -190 346 -190 309 -190 c 128,-1,1
260 291 m 2,37,38
 344 291 344 291 379 309 c 128,-1,39
 414 327 414 327 414 372 c 0,40,41
 414 422 414 422 352 422 c 0,42,43
 248 422 248 422 213 291 c 1,44,-1
 260 291 l 2,37,38
EndSplineSet
EndChar

StartChar: Ecaron
Encoding: 282 282 219
Width: 500
GlyphClass: 2
Flags: W
LayerCount: 2
Fore
SplineSet
631 941 m 1,0,-1
 473 796 l 1,1,-1
 400 796 l 1,2,-1
 305 941 l 1,3,-1
 412 941 l 1,4,-1
 454 873 l 1,5,-1
 524 941 l 1,6,-1
 631 941 l 1,0,-1
70 0 m 1,7,-1
 228 685 l 1,8,-1
 621 685 l 1,9,-1
 598 588 l 1,10,-1
 317 588 l 1,11,-1
 273 394 l 1,12,-1
 499 394 l 1,13,-1
 476 296 l 1,14,-1
 251 296 l 1,15,-1
 205 97 l 1,16,-1
 487 97 l 1,17,-1
 464 0 l 1,18,-1
 70 0 l 1,7,-1
EndSplineSet
Position2: "'cpsp' Capital Spacing in Latin lookup 0 subtable" dx=5 dy=0 dh=10 dv=0
EndChar

StartChar: ecaron
Encoding: 283 283 220
Width: 470
GlyphClass: 2
Flags: W
LayerCount: 2
Fore
SplineSet
217 101 m 128,-1,1
 240 82 240 82 274 82 c 0,2,3
 346 82 346 82 416 94 c 1,4,-1
 442 99 l 1,5,-1
 431 17 l 1,6,7
 340 -11 340 -11 247 -11 c 0,8,9
 85 -11 85 -11 85 151 c 0,10,11
 85 293 85 293 148 396 c 0,12,13
 180 448 180 448 234 479 c 128,-1,14
 288 510 288 510 357 510 c 0,15,16
 521 510 521 510 521 373 c 0,17,18
 521 281 521 281 455.5 245 c 128,-1,19
 390 209 390 209 242 209 c 2,20,-1
 200 209 l 1,21,22
 194 187 194 187 194 153.5 c 128,-1,0
 194 120 194 120 217 101 c 128,-1,1
260 291 m 2,23,24
 344 291 344 291 379 309 c 128,-1,25
 414 327 414 327 414 372 c 0,26,27
 414 422 414 422 352 422 c 0,28,29
 248 422 248 422 213 291 c 1,30,-1
 260 291 l 2,23,24
405 580 m 1,31,-1
 338 580 l 1,32,-1
 255 745 l 1,33,-1
 354 745 l 1,34,-1
 393 669 l 1,35,-1
 462 745 l 1,36,-1
 568 745 l 1,37,-1
 405 580 l 1,31,-1
EndSplineSet
EndChar

StartChar: Gcircumflex
Encoding: 284 284 221
Width: 570
GlyphClass: 2
Flags: W
LayerCount: 2
Fore
SplineSet
317 765 m 1,0,-1
 479 930 l 1,1,-1
 559 930 l 1,2,-1
 645 765 l 1,3,-1
 538 765 l 1,4,-1
 503 839 l 1,5,-1
 432 765 l 1,6,-1
 317 765 l 1,0,-1
325 -11 m 0,7,8
 107 -11 107 -11 107 195 c 0,9,10
 107 354 107 354 162 480 c 1,11,12
 223 616 223 616 334 668 c 0,13,14
 395 696 395 696 454 696 c 0,15,16
 561 696 561 696 644 669 c 2,17,-1
 671 660 l 1,18,-1
 645 579 l 1,19,20
 545 599 545 599 456 599 c 0,21,22
 396 599 396 599 349.5 560 c 128,-1,23
 303 521 303 521 276 459 c 0,24,25
 222 335 222 335 222 194 c 0,26,27
 222 86 222 86 338 86 c 0,28,29
 378 86 378 86 414 94 c 1,30,-1
 426 96 l 1,31,-1
 468 277 l 1,32,-1
 387 277 l 1,33,-1
 409 370 l 1,34,-1
 601 370 l 1,35,-1
 518 15 l 1,36,37
 442 -11 442 -11 325 -11 c 0,7,8
EndSplineSet
Position2: "'cpsp' Capital Spacing in Latin lookup 0 subtable" dx=5 dy=0 dh=10 dv=0
EndChar

StartChar: gcircumflex
Encoding: 285 285 222
Width: 477
GlyphClass: 2
Flags: W
LayerCount: 2
Fore
SplineSet
392 -178 m 128,-1,1
 326 -232 326 -232 222 -232 c 0,2,3
 13 -232 13 -232 13 -98 c 0,4,5
 13 -49 13 -49 48 -16 c 128,-1,6
 83 17 83 17 139 45 c 1,7,8
 121 63 121 63 121 88.5 c 128,-1,9
 121 114 121 114 135.5 138 c 128,-1,10
 150 162 150 162 164 176 c 2,11,-1
 179 190 l 1,12,13
 110 227 110 227 110 311 c 128,-1,14
 110 395 110 395 166 453 c 128,-1,15
 222 511 222 511 315 511 c 0,16,17
 355 511 355 511 408 498 c 2,18,-1
 425 494 l 1,19,-1
 572 500 l 1,20,-1
 551 411 l 1,21,-1
 480 411 l 1,22,23
 489 388 489 388 489 352 c 0,24,25
 489 276 489 276 431 219 c 128,-1,26
 373 162 373 162 279 162 c 1,27,-1
 241 167 l 1,28,29
 219 138 219 138 219 121 c 128,-1,30
 219 104 219 104 237.5 97.5 c 128,-1,31
 256 91 256 91 319 82.5 c 128,-1,32
 382 74 382 74 420 46.5 c 128,-1,33
 458 19 458 19 458 -40 c 0,34,0
 458 -124 458 -124 392 -178 c 128,-1,1
136.5 -25 m 128,-1,36
 113 -49 113 -49 113 -76 c 128,-1,37
 113 -103 113 -103 137.5 -122 c 128,-1,38
 162 -141 162 -141 217 -141 c 128,-1,39
 272 -141 272 -141 313.5 -119 c 128,-1,40
 355 -97 355 -97 355 -52 c 0,41,42
 355 -28 355 -28 337 -18.5 c 128,-1,43
 319 -9 319 -9 262.5 -0.5 c 128,-1,44
 206 8 206 8 188 13 c 1,45,35
 160 -1 160 -1 136.5 -25 c 128,-1,36
287 251 m 0,46,47
 333 251 333 251 361 283 c 128,-1,48
 389 315 389 315 389 354 c 0,49,50
 389 422 389 422 310 422 c 0,51,52
 266 422 266 422 238.5 390.5 c 128,-1,53
 211 359 211 359 211 318 c 0,54,55
 211 251 211 251 287 251 c 0,46,47
194 580 m 1,56,-1
 356 745 l 1,57,-1
 419 745 l 1,58,-1
 505 580 l 1,59,-1
 406 580 l 1,60,-1
 371 654 l 1,61,-1
 300 580 l 1,62,-1
 194 580 l 1,56,-1
EndSplineSet
EndChar

StartChar: Gbreve
Encoding: 286 286 223
Width: 570
GlyphClass: 2
Flags: W
LayerCount: 2
Fore
SplineSet
510 867 m 0,0,1
 569 867 569 867 588 925 c 1,2,-1
 693 925 l 1,3,4
 671 853 671 853 617 810.5 c 128,-1,5
 563 768 563 768 491.5 768 c 128,-1,6
 420 768 420 768 387 800 c 0,7,8
 352 834 352 834 352 893 c 0,9,10
 352 908 352 908 354 925 c 1,11,-1
 460 925 l 1,12,13
 459 922 459 922 459 909 c 0,14,15
 461 867 461 867 510 867 c 0,0,1
325 -11 m 0,16,17
 107 -11 107 -11 107 195 c 0,18,19
 107 354 107 354 162 480 c 1,20,21
 223 616 223 616 334 668 c 0,22,23
 395 696 395 696 454 696 c 0,24,25
 561 696 561 696 644 669 c 2,26,-1
 671 660 l 1,27,-1
 645 579 l 1,28,29
 545 599 545 599 456 599 c 0,30,31
 396 599 396 599 349.5 560 c 128,-1,32
 303 521 303 521 276 459 c 0,33,34
 222 335 222 335 222 194 c 0,35,36
 222 86 222 86 338 86 c 0,37,38
 378 86 378 86 414 94 c 1,39,-1
 426 96 l 1,40,-1
 468 277 l 1,41,-1
 387 277 l 1,42,-1
 409 370 l 1,43,-1
 601 370 l 1,44,-1
 518 15 l 1,45,46
 442 -11 442 -11 325 -11 c 0,16,17
EndSplineSet
Position2: "'cpsp' Capital Spacing in Latin lookup 0 subtable" dx=5 dy=0 dh=10 dv=0
EndChar

StartChar: gbreve
Encoding: 287 287 224
Width: 477
GlyphClass: 2
Flags: W
LayerCount: 2
Fore
SplineSet
392 -178 m 128,-1,1
 326 -232 326 -232 222 -232 c 0,2,3
 13 -232 13 -232 13 -98 c 0,4,5
 13 -49 13 -49 48 -16 c 128,-1,6
 83 17 83 17 139 45 c 1,7,8
 121 63 121 63 121 88.5 c 128,-1,9
 121 114 121 114 135.5 138 c 128,-1,10
 150 162 150 162 164 176 c 2,11,-1
 179 190 l 1,12,13
 110 227 110 227 110 311 c 128,-1,14
 110 395 110 395 166 453 c 128,-1,15
 222 511 222 511 315 511 c 0,16,17
 355 511 355 511 408 498 c 2,18,-1
 425 494 l 1,19,-1
 572 500 l 1,20,-1
 551 411 l 1,21,-1
 480 411 l 1,22,23
 489 388 489 388 489 352 c 0,24,25
 489 276 489 276 431 219 c 128,-1,26
 373 162 373 162 279 162 c 1,27,-1
 241 167 l 1,28,29
 219 138 219 138 219 121 c 128,-1,30
 219 104 219 104 237.5 97.5 c 128,-1,31
 256 91 256 91 319 82.5 c 128,-1,32
 382 74 382 74 420 46.5 c 128,-1,33
 458 19 458 19 458 -40 c 0,34,0
 458 -124 458 -124 392 -178 c 128,-1,1
136.5 -25 m 128,-1,36
 113 -49 113 -49 113 -76 c 128,-1,37
 113 -103 113 -103 137.5 -122 c 128,-1,38
 162 -141 162 -141 217 -141 c 128,-1,39
 272 -141 272 -141 313.5 -119 c 128,-1,40
 355 -97 355 -97 355 -52 c 0,41,42
 355 -28 355 -28 337 -18.5 c 128,-1,43
 319 -9 319 -9 262.5 -0.5 c 128,-1,44
 206 8 206 8 188 13 c 1,45,35
 160 -1 160 -1 136.5 -25 c 128,-1,36
287 251 m 0,46,47
 333 251 333 251 361 283 c 128,-1,48
 389 315 389 315 389 354 c 0,49,50
 389 422 389 422 310 422 c 0,51,52
 266 422 266 422 238.5 390.5 c 128,-1,53
 211 359 211 359 211 318 c 0,54,55
 211 251 211 251 287 251 c 0,46,47
339 739 m 1,56,57
 338 732 338 732 338 720.5 c 128,-1,58
 338 709 338 709 348 695 c 128,-1,59
 358 681 358 681 389 681 c 0,60,61
 448 681 448 681 467 739 c 1,62,-1
 564 739 l 1,63,64
 516 591 516 591 362 591 c 0,65,66
 291 591 291 591 261 630 c 0,67,68
 239 658 239 658 239 703 c 0,69,70
 239 720 239 720 242 739 c 1,71,-1
 339 739 l 1,56,57
EndSplineSet
EndChar

StartChar: Gdotaccent
Encoding: 288 288 225
Width: 570
GlyphClass: 2
Flags: W
LayerCount: 2
Fore
SplineSet
439 760 m 1,0,-1
 466 877 l 1,1,-1
 568 877 l 1,2,-1
 541 760 l 1,3,-1
 439 760 l 1,0,-1
325 -11 m 0,4,5
 107 -11 107 -11 107 195 c 0,6,7
 107 354 107 354 162 480 c 1,8,9
 223 616 223 616 334 668 c 0,10,11
 395 696 395 696 454 696 c 0,12,13
 561 696 561 696 644 669 c 2,14,-1
 671 660 l 1,15,-1
 645 579 l 1,16,17
 545 599 545 599 456 599 c 0,18,19
 396 599 396 599 349.5 560 c 128,-1,20
 303 521 303 521 276 459 c 0,21,22
 222 335 222 335 222 194 c 0,23,24
 222 86 222 86 338 86 c 0,25,26
 378 86 378 86 414 94 c 1,27,-1
 426 96 l 1,28,-1
 468 277 l 1,29,-1
 387 277 l 1,30,-1
 409 370 l 1,31,-1
 601 370 l 1,32,-1
 518 15 l 1,33,34
 442 -11 442 -11 325 -11 c 0,4,5
EndSplineSet
Position2: "'cpsp' Capital Spacing in Latin lookup 0 subtable" dx=5 dy=0 dh=10 dv=0
EndChar

StartChar: gdotaccent
Encoding: 289 289 226
Width: 477
GlyphClass: 2
Flags: W
LayerCount: 2
Fore
SplineSet
392 -178 m 128,-1,1
 326 -232 326 -232 222 -232 c 0,2,3
 13 -232 13 -232 13 -98 c 0,4,5
 13 -49 13 -49 48 -16 c 128,-1,6
 83 17 83 17 139 45 c 1,7,8
 121 63 121 63 121 88.5 c 128,-1,9
 121 114 121 114 135.5 138 c 128,-1,10
 150 162 150 162 164 176 c 2,11,-1
 179 190 l 1,12,13
 110 227 110 227 110 311 c 128,-1,14
 110 395 110 395 166 453 c 128,-1,15
 222 511 222 511 315 511 c 0,16,17
 355 511 355 511 408 498 c 2,18,-1
 425 494 l 1,19,-1
 572 500 l 1,20,-1
 551 411 l 1,21,-1
 480 411 l 1,22,23
 489 388 489 388 489 352 c 0,24,25
 489 276 489 276 431 219 c 128,-1,26
 373 162 373 162 279 162 c 1,27,-1
 241 167 l 1,28,29
 219 138 219 138 219 121 c 128,-1,30
 219 104 219 104 237.5 97.5 c 128,-1,31
 256 91 256 91 319 82.5 c 128,-1,32
 382 74 382 74 420 46.5 c 128,-1,33
 458 19 458 19 458 -40 c 0,34,0
 458 -124 458 -124 392 -178 c 128,-1,1
136.5 -25 m 128,-1,36
 113 -49 113 -49 113 -76 c 128,-1,37
 113 -103 113 -103 137.5 -122 c 128,-1,38
 162 -141 162 -141 217 -141 c 128,-1,39
 272 -141 272 -141 313.5 -119 c 128,-1,40
 355 -97 355 -97 355 -52 c 0,41,42
 355 -28 355 -28 337 -18.5 c 128,-1,43
 319 -9 319 -9 262.5 -0.5 c 128,-1,44
 206 8 206 8 188 13 c 1,45,35
 160 -1 160 -1 136.5 -25 c 128,-1,36
287 251 m 0,46,47
 333 251 333 251 361 283 c 128,-1,48
 389 315 389 315 389 354 c 0,49,50
 389 422 389 422 310 422 c 0,51,52
 266 422 266 422 238.5 390.5 c 128,-1,53
 211 359 211 359 211 318 c 0,54,55
 211 251 211 251 287 251 c 0,46,47
307 592 m 1,56,-1
 334 708 l 1,57,-1
 427 708 l 1,58,-1
 400 592 l 1,59,-1
 307 592 l 1,56,-1
EndSplineSet
EndChar

StartChar: Gcommaaccent
Encoding: 290 290 227
Width: 570
GlyphClass: 2
Flags: W
LayerCount: 2
Fore
SplineSet
325 -11 m 0,0,1
 107 -11 107 -11 107 195 c 0,2,3
 107 354 107 354 162 480 c 1,4,5
 223 616 223 616 334 668 c 0,6,7
 395 696 395 696 454 696 c 0,8,9
 561 696 561 696 644 669 c 2,10,-1
 671 660 l 1,11,-1
 645 579 l 1,12,13
 545 599 545 599 456 599 c 0,14,15
 396 599 396 599 349.5 560 c 128,-1,16
 303 521 303 521 276 459 c 0,17,18
 222 335 222 335 222 194 c 0,19,20
 222 86 222 86 338 86 c 0,21,22
 378 86 378 86 414 94 c 1,23,-1
 426 96 l 1,24,-1
 468 277 l 1,25,-1
 387 277 l 1,26,-1
 409 370 l 1,27,-1
 601 370 l 1,28,-1
 518 15 l 1,29,30
 442 -11 442 -11 325 -11 c 0,0,1
244 -72 m 1,31,-1
 343 -72 l 1,32,-1
 241 -298 l 1,33,-1
 151 -298 l 1,34,-1
 244 -72 l 1,31,-1
EndSplineSet
Position2: "'cpsp' Capital Spacing in Latin lookup 0 subtable" dx=5 dy=0 dh=10 dv=0
EndChar

StartChar: gcommaaccent
Encoding: 291 291 228
Width: 477
GlyphClass: 2
Flags: W
LayerCount: 2
Fore
SplineSet
400 805 m 1,0,-1
 491 805 l 1,1,-1
 398 581 l 1,2,-1
 298 581 l 1,3,-1
 400 805 l 1,0,-1
392 -178 m 128,-1,5
 326 -232 326 -232 222 -232 c 0,6,7
 13 -232 13 -232 13 -98 c 0,8,9
 13 -49 13 -49 48 -16 c 128,-1,10
 83 17 83 17 139 45 c 1,11,12
 121 63 121 63 121 88.5 c 128,-1,13
 121 114 121 114 135.5 138 c 128,-1,14
 150 162 150 162 164 176 c 2,15,-1
 179 190 l 1,16,17
 110 227 110 227 110 311 c 128,-1,18
 110 395 110 395 166 453 c 128,-1,19
 222 511 222 511 315 511 c 0,20,21
 355 511 355 511 408 498 c 2,22,-1
 425 494 l 1,23,-1
 572 500 l 1,24,-1
 551 411 l 1,25,-1
 480 411 l 1,26,27
 489 388 489 388 489 352 c 0,28,29
 489 276 489 276 431 219 c 128,-1,30
 373 162 373 162 279 162 c 1,31,-1
 241 167 l 1,32,33
 219 138 219 138 219 121 c 128,-1,34
 219 104 219 104 237.5 97.5 c 128,-1,35
 256 91 256 91 319 82.5 c 128,-1,36
 382 74 382 74 420 46.5 c 128,-1,37
 458 19 458 19 458 -40 c 0,38,4
 458 -124 458 -124 392 -178 c 128,-1,5
136.5 -25 m 128,-1,40
 113 -49 113 -49 113 -76 c 128,-1,41
 113 -103 113 -103 137.5 -122 c 128,-1,42
 162 -141 162 -141 217 -141 c 128,-1,43
 272 -141 272 -141 313.5 -119 c 128,-1,44
 355 -97 355 -97 355 -52 c 0,45,46
 355 -28 355 -28 337 -18.5 c 128,-1,47
 319 -9 319 -9 262.5 -0.5 c 128,-1,48
 206 8 206 8 188 13 c 1,49,39
 160 -1 160 -1 136.5 -25 c 128,-1,40
287 251 m 0,50,51
 333 251 333 251 361 283 c 128,-1,52
 389 315 389 315 389 354 c 0,53,54
 389 422 389 422 310 422 c 0,55,56
 266 422 266 422 238.5 390.5 c 128,-1,57
 211 359 211 359 211 318 c 0,58,59
 211 251 211 251 287 251 c 0,50,51
EndSplineSet
EndChar

StartChar: Hcircumflex
Encoding: 292 292 229
Width: 622
GlyphClass: 2
Flags: W
LayerCount: 2
Fore
SplineSet
440 0 m 1,0,-1
 508 300 l 1,1,-1
 251 300 l 1,2,-1
 182 0 l 1,3,-1
 70 0 l 1,4,-1
 229 685 l 1,5,-1
 340 685 l 1,6,-1
 274 397 l 1,7,-1
 531 397 l 1,8,-1
 598 685 l 1,9,-1
 709 685 l 1,10,-1
 551 0 l 1,11,-1
 440 0 l 1,0,-1
320 785 m 1,12,-1
 490 931 l 1,13,-1
 553 931 l 1,14,-1
 649 785 l 1,15,-1
 550 785 l 1,16,-1
 512 851 l 1,17,-1
 435 785 l 1,18,-1
 320 785 l 1,12,-1
EndSplineSet
Position2: "'cpsp' Capital Spacing in Latin lookup 0 subtable" dx=5 dy=0 dh=10 dv=0
EndChar

StartChar: hcircumflex
Encoding: 293 293 230
Width: 507
GlyphClass: 2
Flags: W
LayerCount: 2
Fore
SplineSet
410 511 m 0,0,1
 471 511 471 511 500.5 474.5 c 128,-1,2
 530 438 530 438 530 386.5 c 128,-1,3
 530 335 530 335 509 248 c 2,4,-1
 452 0 l 1,5,-1
 344 0 l 1,6,-1
 400 241 l 1,7,8
 418 313 418 313 418 349 c 128,-1,9
 418 385 418 385 406.5 401 c 128,-1,10
 395 417 395 417 370.5 417 c 128,-1,11
 346 417 346 417 315.5 396.5 c 128,-1,12
 285 376 285 376 265 355 c 2,13,-1
 245 334 l 1,14,-1
 168 0 l 1,15,-1
 60 0 l 1,16,-1
 223 708 l 1,17,-1
 331 708 l 1,18,-1
 269 435 l 1,19,20
 277 444 277 444 290 456.5 c 128,-1,21
 303 469 303 469 340 490 c 128,-1,22
 377 511 377 511 410 511 c 0,0,1
281 755 m 1,23,-1
 451 901 l 1,24,-1
 514 901 l 1,25,-1
 610 755 l 1,26,-1
 511 755 l 1,27,-1
 473 821 l 1,28,-1
 396 755 l 1,29,-1
 281 755 l 1,23,-1
EndSplineSet
EndChar

StartChar: Hbar
Encoding: 294 294 231
Width: 632
GlyphClass: 2
Flags: W
LayerCount: 2
Fore
SplineSet
118 490 m 1,0,-1
 118 493 l 1,1,-1
 140 588 l 1,2,-1
 211 588 l 1,3,-1
 234 685 l 1,4,-1
 341 685 l 1,5,-1
 318 588 l 1,6,-1
 586 588 l 1,7,-1
 608 685 l 1,8,-1
 715 685 l 1,9,-1
 692 588 l 1,10,-1
 762 588 l 1,11,-1
 737 490 l 1,12,-1
 670 490 l 1,13,-1
 557 0 l 1,14,-1
 450 0 l 1,15,-1
 518 293 l 1,16,-1
 250 293 l 1,17,-1
 183 0 l 1,18,-1
 76 0 l 1,19,-1
 189 490 l 1,20,-1
 118 490 l 1,0,-1
274 397 m 1,21,-1
 542 397 l 1,22,-1
 563 490 l 1,23,-1
 295 490 l 1,24,-1
 274 397 l 1,21,-1
EndSplineSet
Position2: "'cpsp' Capital Spacing in Latin lookup 0 subtable" dx=5 dy=0 dh=10 dv=0
EndChar

StartChar: hbar
Encoding: 295 295 232
Width: 507
GlyphClass: 2
Flags: W
LayerCount: 2
Fore
SplineSet
410 511 m 0,0,1
 471 511 471 511 500.5 474.5 c 128,-1,2
 530 438 530 438 530 386.5 c 128,-1,3
 530 335 530 335 509 248 c 2,4,-1
 452 0 l 1,5,-1
 344 0 l 1,6,-1
 400 241 l 1,7,8
 418 313 418 313 418 349 c 128,-1,9
 418 385 418 385 406.5 401 c 128,-1,10
 395 417 395 417 370.5 417 c 128,-1,11
 346 417 346 417 315.5 396.5 c 128,-1,12
 285 376 285 376 265 355 c 2,13,-1
 245 334 l 1,14,-1
 168 0 l 1,15,-1
 60 0 l 1,16,-1
 187 551 l 1,17,-1
 134 551 l 1,18,-1
 155 645 l 1,19,-1
 208 645 l 1,20,-1
 223 708 l 1,21,-1
 331 708 l 1,22,-1
 317 645 l 1,23,-1
 450 645 l 1,24,-1
 427 551 l 1,25,-1
 295 551 l 1,26,-1
 269 435 l 1,27,28
 277 444 277 444 290 456.5 c 128,-1,29
 303 469 303 469 340 490 c 128,-1,30
 377 511 377 511 410 511 c 0,0,1
EndSplineSet
EndChar

StartChar: Itilde
Encoding: 296 296 233
Width: 252
GlyphClass: 2
Flags: W
LayerCount: 2
Fore
SplineSet
383 782 m 0,0,1
 358 782 358 782 305.5 806 c 128,-1,2
 253 830 253 830 240 830 c 0,3,4
 218 830 218 830 168 798 c 1,5,-1
 152 787 l 1,6,-1
 149 863 l 1,7,8
 216 926 216 926 260 926 c 0,9,10
 291 926 291 926 342.5 902 c 128,-1,11
 394 878 394 878 404 878 c 128,-1,12
 414 878 414 878 435.5 888 c 128,-1,13
 457 898 457 898 473 908 c 2,14,-1
 489 919 l 1,15,-1
 491 843 l 1,16,17
 428 782 428 782 383 782 c 0,0,1
70 0 m 1,18,-1
 229 685 l 1,19,-1
 340 685 l 1,20,-1
 182 0 l 1,21,-1
 70 0 l 1,18,-1
EndSplineSet
Position2: "'cpsp' Capital Spacing in Latin lookup 0 subtable" dx=5 dy=0 dh=10 dv=0
EndChar

StartChar: itilde
Encoding: 297 297 234
Width: 227
GlyphClass: 2
Flags: W
LayerCount: 2
Fore
SplineSet
60 0 m 1,0,-1
 175 500 l 1,1,-1
 283 500 l 1,2,-1
 168 0 l 1,3,-1
 60 0 l 1,0,-1
308 600 m 0,4,5
 284 600 284 600 238 623 c 128,-1,6
 192 646 192 646 180 646 c 0,7,8
 156 646 156 646 110 616 c 1,9,-1
 95 605 l 1,10,-1
 93 681 l 1,11,12
 157 741 157 741 201 741 c 0,13,14
 228 741 228 741 274 718.5 c 128,-1,15
 320 696 320 696 330 696 c 0,16,17
 348 696 348 696 394 726 c 1,18,-1
 410 736 l 1,19,-1
 414 659 l 1,20,21
 352 600 352 600 308 600 c 0,4,5
EndSplineSet
EndChar

StartChar: Imacron
Encoding: 298 298 235
Width: 252
GlyphClass: 2
Flags: W
LayerCount: 2
Fore
SplineSet
151 825 m 1,0,-1
 171 912 l 1,1,-1
 484 912 l 1,2,-1
 463 825 l 1,3,-1
 151 825 l 1,0,-1
70 0 m 1,4,-1
 229 685 l 1,5,-1
 340 685 l 1,6,-1
 182 0 l 1,7,-1
 70 0 l 1,4,-1
EndSplineSet
Position2: "'cpsp' Capital Spacing in Latin lookup 0 subtable" dx=5 dy=0 dh=10 dv=0
EndChar

StartChar: imacron
Encoding: 299 299 236
Width: 227
GlyphClass: 2
Flags: W
LayerCount: 2
Fore
SplineSet
60 0 m 1,0,-1
 175 500 l 1,1,-1
 283 500 l 1,2,-1
 168 0 l 1,3,-1
 60 0 l 1,0,-1
102 632 m 1,4,-1
 122 720 l 1,5,-1
 417 720 l 1,6,-1
 396 632 l 1,7,-1
 102 632 l 1,4,-1
EndSplineSet
EndChar

StartChar: Ibreve
Encoding: 300 300 237
Width: 252
GlyphClass: 2
Flags: W
LayerCount: 2
Fore
SplineSet
281 913 m 0,0,1
 281 874 281 874 327 874 c 0,2,3
 351 874 351 874 369.5 888 c 128,-1,4
 388 902 388 902 396 925 c 1,5,-1
 494 925 l 1,6,7
 450 788 450 788 309 788 c 0,8,9
 239 788 239 788 210.5 819 c 128,-1,10
 182 850 182 850 182 895 c 0,11,12
 182 909 182 909 184 925 c 1,13,-1
 282 925 l 1,14,15
 281 918 281 918 281 913 c 0,0,1
70 0 m 1,16,-1
 229 685 l 1,17,-1
 340 685 l 1,18,-1
 182 0 l 1,19,-1
 70 0 l 1,16,-1
EndSplineSet
Position2: "'cpsp' Capital Spacing in Latin lookup 0 subtable" dx=5 dy=0 dh=10 dv=0
EndChar

StartChar: ibreve
Encoding: 301 301 238
Width: 227
GlyphClass: 2
Flags: W
LayerCount: 2
Fore
SplineSet
60 0 m 1,0,-1
 175 500 l 1,1,-1
 283 500 l 1,2,-1
 168 0 l 1,3,-1
 60 0 l 1,0,-1
214 739 m 1,4,5
 213 732 213 732 213 720.5 c 128,-1,6
 213 709 213 709 223 695 c 128,-1,7
 233 681 233 681 264 681 c 0,8,9
 323 681 323 681 342 739 c 1,10,-1
 439 739 l 1,11,12
 391 591 391 591 237 591 c 0,13,14
 166 591 166 591 136 630 c 0,15,16
 114 658 114 658 114 703 c 0,17,18
 114 720 114 720 117 739 c 1,19,-1
 214 739 l 1,4,5
EndSplineSet
EndChar

StartChar: Iogonek
Encoding: 302 302 239
Width: 252
GlyphClass: 2
Flags: W
LayerCount: 2
Fore
SplineSet
125.5 -45.5 m 128,-1,1
 96 -77 96 -77 96 -95.5 c 128,-1,2
 96 -114 96 -114 114 -114 c 1,3,-1
 156 -110 l 1,4,-1
 146 -200 l 1,5,6
 94 -210 94 -210 57 -210 c 128,-1,7
 20 -210 20 -210 -0.5 -191.5 c 128,-1,8
 -21 -173 -21 -173 -21 -139 c 128,-1,9
 -21 -105 -21 -105 7.5 -67 c 128,-1,10
 36 -29 36 -29 72 0 c 1,11,-1
 70 0 l 1,12,-1
 229 685 l 1,13,-1
 340 685 l 1,14,-1
 182 0 l 1,15,0
 155 -14 155 -14 125.5 -45.5 c 128,-1,1
EndSplineSet
Position2: "'cpsp' Capital Spacing in Latin lookup 0 subtable" dx=5 dy=0 dh=10 dv=0
EndChar

StartChar: iogonek
Encoding: 303 303 240
Width: 227
GlyphClass: 2
Flags: W
LayerCount: 2
Fore
SplineSet
41 -210 m 128,-1,1
 4 -210 4 -210 -16 -191.5 c 128,-1,2
 -36 -173 -36 -173 -36 -139 c 0,3,4
 -36 -76 -36 -76 61 3 c 1,5,-1
 175 500 l 1,6,-1
 283 500 l 1,7,-1
 168 0 l 1,8,9
 138 -18 138 -18 109 -47.5 c 128,-1,10
 80 -77 80 -77 80 -95.5 c 128,-1,11
 80 -114 80 -114 98 -114 c 1,12,-1
 140 -110 l 1,13,-1
 130 -200 l 1,14,0
 78 -210 78 -210 41 -210 c 128,-1,1
191 574 m 1,15,-1
 219 691 l 1,16,-1
 328 691 l 1,17,-1
 301 574 l 1,18,-1
 191 574 l 1,15,-1
EndSplineSet
EndChar

StartChar: Idotaccent
Encoding: 304 304 241
Width: 252
GlyphClass: 2
Flags: W
LayerCount: 2
Fore
SplineSet
259 796 m 1,0,-1
 286 914 l 1,1,-1
 381 914 l 1,2,-1
 353 796 l 1,3,-1
 259 796 l 1,0,-1
70 0 m 1,4,-1
 229 685 l 1,5,-1
 340 685 l 1,6,-1
 182 0 l 1,7,-1
 70 0 l 1,4,-1
EndSplineSet
Position2: "'cpsp' Capital Spacing in Latin lookup 0 subtable" dx=5 dy=0 dh=10 dv=0
EndChar

StartChar: dotlessi
Encoding: 305 305 242
Width: 228
GlyphClass: 2
Flags: W
LayerCount: 2
Fore
SplineSet
60 0 m 1,0,-1
 175 500 l 1,1,-1
 283 500 l 1,2,-1
 168 0 l 1,3,-1
 60 0 l 1,0,-1
EndSplineSet
EndChar

StartChar: Jcircumflex
Encoding: 308 308 243
Width: 275
GlyphClass: 2
Flags: W
LayerCount: 2
Fore
SplineSet
366 685 m 1,0,-1
 237 128 l 1,1,2
 208 -3 208 -3 169 -36.5 c 128,-1,3
 130 -70 130 -70 6 -70 c 1,4,-1
 25 28 l 1,5,6
 76 29 76 29 93.5 45.5 c 128,-1,7
 111 62 111 62 126 130 c 2,8,-1
 255 685 l 1,9,-1
 366 685 l 1,0,-1
157 785 m 1,10,-1
 327 931 l 1,11,-1
 390 931 l 1,12,-1
 486 785 l 1,13,-1
 387 785 l 1,14,-1
 349 851 l 1,15,-1
 272 785 l 1,16,-1
 157 785 l 1,10,-1
EndSplineSet
Position2: "'cpsp' Capital Spacing in Latin lookup 0 subtable" dx=5 dy=0 dh=10 dv=0
EndChar

StartChar: jcircumflex
Encoding: 309 309 244
Width: 227
GlyphClass: 2
Flags: W
LayerCount: 2
Fore
SplineSet
60 0 m 2,0,-1
 175 500 l 1,1,-1
 283 500 l 1,2,-1
 168 0 l 2,3,4
 150 -76 150 -76 133 -110 c 128,-1,5
 116 -144 116 -144 92 -160 c 0,6,7
 40 -196 40 -196 -43 -232 c 1,8,-1
 -78 -145 l 1,9,10
 5 -103 5 -103 25.5 -81 c 128,-1,11
 46 -59 46 -59 60 0 c 2,0,-1
84 580 m 1,12,-1
 246 745 l 1,13,-1
 309 745 l 1,14,-1
 395 580 l 1,15,-1
 296 580 l 1,16,-1
 261 654 l 1,17,-1
 190 580 l 1,18,-1
 84 580 l 1,12,-1
EndSplineSet
EndChar

StartChar: Kcommaaccent
Encoding: 310 310 245
Width: 532
GlyphClass: 2
Flags: W
LayerCount: 2
Fore
SplineSet
222 -72 m 1,0,-1
 321 -72 l 1,1,-1
 219 -298 l 1,2,-1
 129 -298 l 1,3,-1
 222 -72 l 1,0,-1
401 0 m 1,4,-1
 333 288 l 1,5,-1
 247 282 l 1,6,-1
 182 0 l 1,7,-1
 70 0 l 1,8,-1
 229 685 l 1,9,-1
 340 685 l 1,10,-1
 269 380 l 1,11,-1
 345 386 l 1,12,-1
 551 685 l 1,13,-1
 674 685 l 1,14,-1
 434 341 l 1,15,-1
 518 0 l 1,16,-1
 401 0 l 1,4,-1
EndSplineSet
Position2: "'cpsp' Capital Spacing in Latin lookup 0 subtable" dx=5 dy=0 dh=10 dv=0
EndChar

StartChar: kcommaaccent
Encoding: 311 311 246
Width: 458
GlyphClass: 2
Flags: W
LayerCount: 2
Fore
SplineSet
81 -298 m 1,0,-1
 174 -72 l 1,1,-1
 273 -72 l 1,2,-1
 171 -298 l 1,3,-1
 81 -298 l 1,0,-1
168 0 m 1,4,-1
 60 0 l 1,5,-1
 223 708 l 1,6,-1
 331 708 l 1,7,-1
 238 306 l 1,8,-1
 285 311 l 1,9,-1
 436 499 l 1,10,-1
 557 499 l 1,11,-1
 366 263 l 1,12,-1
 445 0 l 1,13,-1
 333 0 l 1,14,-1
 269 221 l 1,15,-1
 218 217 l 1,16,-1
 168 0 l 1,4,-1
EndSplineSet
EndChar

StartChar: Lacute
Encoding: 313 313 247
Width: 427
GlyphClass: 2
Flags: W
LayerCount: 2
Fore
SplineSet
307 774 m 1,0,-1
 298 859 l 1,1,-1
 546 951 l 1,2,-1
 556 854 l 1,3,-1
 307 774 l 1,0,-1
422 0 m 1,4,-1
 70 0 l 1,5,-1
 229 685 l 1,6,-1
 340 685 l 1,7,-1
 205 97 l 1,8,-1
 444 97 l 1,9,-1
 422 0 l 1,4,-1
EndSplineSet
Position2: "'cpsp' Capital Spacing in Latin lookup 0 subtable" dx=5 dy=0 dh=10 dv=0
EndChar

StartChar: lacute
Encoding: 314 314 248
Width: 231
GlyphClass: 2
Flags: W
LayerCount: 2
Fore
SplineSet
61 0 m 1,0,-1
 225 708 l 1,1,-1
 333 708 l 1,2,-1
 170 0 l 1,3,-1
 61 0 l 1,0,-1
241 774 m 1,4,-1
 232 859 l 1,5,-1
 480 951 l 1,6,-1
 490 854 l 1,7,-1
 241 774 l 1,4,-1
EndSplineSet
EndChar

StartChar: Lcommaaccent
Encoding: 315 315 249
Width: 427
GlyphClass: 2
Flags: W
LayerCount: 2
Fore
SplineSet
184 -72 m 1,0,-1
 283 -72 l 1,1,-1
 181 -298 l 1,2,-1
 91 -298 l 1,3,-1
 184 -72 l 1,0,-1
422 0 m 1,4,-1
 70 0 l 1,5,-1
 229 685 l 1,6,-1
 340 685 l 1,7,-1
 205 97 l 1,8,-1
 444 97 l 1,9,-1
 422 0 l 1,4,-1
EndSplineSet
Position2: "'cpsp' Capital Spacing in Latin lookup 0 subtable" dx=5 dy=0 dh=10 dv=0
EndChar

StartChar: lcommaaccent
Encoding: 316 316 250
Width: 231
GlyphClass: 2
Flags: W
LayerCount: 2
Fore
SplineSet
51 -72 m 1,0,-1
 150 -72 l 1,1,-1
 48 -298 l 1,2,-1
 -42 -298 l 1,3,-1
 51 -72 l 1,0,-1
61 0 m 1,4,-1
 225 708 l 1,5,-1
 333 708 l 1,6,-1
 170 0 l 1,7,-1
 61 0 l 1,4,-1
EndSplineSet
EndChar

StartChar: Lcaron
Encoding: 317 317 251
Width: 459
GlyphClass: 2
Flags: W
LayerCount: 2
Fore
SplineSet
574 685 m 1,0,-1
 517 442 l 1,1,-1
 417 442 l 1,2,-1
 476 685 l 1,3,-1
 574 685 l 1,0,-1
422 0 m 1,4,-1
 70 0 l 1,5,-1
 229 685 l 1,6,-1
 340 685 l 1,7,-1
 205 97 l 1,8,-1
 444 97 l 1,9,-1
 422 0 l 1,4,-1
EndSplineSet
Position2: "'cpsp' Capital Spacing in Latin lookup 0 subtable" dx=5 dy=0 dh=10 dv=0
EndChar

StartChar: lcaron
Encoding: 318 318 252
Width: 313
GlyphClass: 2
Flags: W
LayerCount: 2
Fore
SplineSet
482 685 m 1,0,-1
 424 442 l 1,1,-1
 325 442 l 1,2,-1
 383 685 l 1,3,-1
 482 685 l 1,0,-1
61 0 m 1,4,-1
 225 708 l 1,5,-1
 333 708 l 1,6,-1
 170 0 l 1,7,-1
 61 0 l 1,4,-1
EndSplineSet
EndChar

StartChar: Lslash
Encoding: 321 321 253
Width: 428
GlyphClass: 2
Flags: W
LayerCount: 2
Fore
SplineSet
424 0 m 1,0,-1
 72 0 l 1,1,-1
 126 234 l 1,2,-1
 88 210 l 1,3,-1
 87 210 l 1,4,-1
 54 286 l 1,5,-1
 152 347 l 1,6,-1
 231 685 l 1,7,-1
 342 685 l 1,8,-1
 283 429 l 1,9,-1
 401 503 l 1,10,-1
 435 427 l 1,11,-1
 257 316 l 1,12,-1
 207 97 l 1,13,-1
 446 97 l 1,14,-1
 424 0 l 1,0,-1
EndSplineSet
Position2: "'cpsp' Capital Spacing in Latin lookup 0 subtable" dx=5 dy=0 dh=10 dv=0
EndChar

StartChar: lslash
Encoding: 322 322 254
Width: 283
GlyphClass: 2
Flags: W
LayerCount: 2
Fore
SplineSet
84 0 m 1,0,-1
 140 245 l 1,1,-1
 92 215 l 1,2,-1
 57 291 l 1,3,-1
 167 359 l 1,4,-1
 248 708 l 1,5,-1
 356 708 l 1,6,-1
 294 438 l 1,7,-1
 346 470 l 1,8,-1
 380 395 l 1,9,-1
 268 325 l 1,10,-1
 193 0 l 1,11,-1
 84 0 l 1,0,-1
EndSplineSet
EndChar

StartChar: Nacute
Encoding: 323 323 255
Width: 642
GlyphClass: 2
Flags: W
LayerCount: 2
Fore
SplineSet
395 774 m 1,0,-1
 386 859 l 1,1,-1
 634 951 l 1,2,-1
 644 854 l 1,3,-1
 395 774 l 1,0,-1
70 0 m 1,4,-1
 229 685 l 1,5,-1
 412 685 l 1,6,-1
 478 117 l 1,7,-1
 493 117 l 1,8,-1
 622 685 l 1,9,-1
 730 685 l 1,10,-1
 572 0 l 1,11,-1
 397 0 l 1,12,-1
 325 575 l 1,13,-1
 310 575 l 1,14,-1
 176 0 l 1,15,-1
 70 0 l 1,4,-1
EndSplineSet
Position2: "'cpsp' Capital Spacing in Latin lookup 0 subtable" dx=5 dy=0 dh=10 dv=0
EndChar

StartChar: nacute
Encoding: 324 324 256
Width: 506
GlyphClass: 2
Flags: W
LayerCount: 2
Fore
SplineSet
369.5 417 m 128,-1,1
 344 417 344 417 309 392 c 128,-1,2
 274 367 274 367 245 334 c 1,3,-1
 168 0 l 1,4,-1
 60 0 l 1,5,-1
 175 500 l 1,6,-1
 279 500 l 1,7,-1
 268 434 l 1,8,-1
 287 453 l 2,9,10
 306 472 306 472 341.5 491.5 c 128,-1,11
 377 511 377 511 410 511 c 0,12,13
 471 511 471 511 500.5 474.5 c 128,-1,14
 530 438 530 438 530 385.5 c 128,-1,15
 530 333 530 333 509 249 c 1,16,-1
 452 0 l 1,17,-1
 344 0 l 1,18,-1
 400 241 l 1,19,20
 418 325 418 325 418 355 c 128,-1,21
 418 385 418 385 406.5 401 c 128,-1,0
 395 417 395 417 369.5 417 c 128,-1,1
293 585 m 1,22,-1
 284 671 l 1,23,-1
 532 763 l 1,24,-1
 541 666 l 1,25,-1
 293 585 l 1,22,-1
EndSplineSet
EndChar

StartChar: Ncommaaccent
Encoding: 325 325 257
Width: 642
GlyphClass: 2
Flags: W
LayerCount: 2
Fore
SplineSet
281 -72 m 1,0,-1
 380 -72 l 1,1,-1
 278 -298 l 1,2,-1
 188 -298 l 1,3,-1
 281 -72 l 1,0,-1
70 0 m 1,4,-1
 229 685 l 1,5,-1
 412 685 l 1,6,-1
 478 117 l 1,7,-1
 493 117 l 1,8,-1
 622 685 l 1,9,-1
 730 685 l 1,10,-1
 572 0 l 1,11,-1
 397 0 l 1,12,-1
 325 575 l 1,13,-1
 310 575 l 1,14,-1
 176 0 l 1,15,-1
 70 0 l 1,4,-1
EndSplineSet
Position2: "'cpsp' Capital Spacing in Latin lookup 0 subtable" dx=5 dy=0 dh=10 dv=0
EndChar

StartChar: ncommaaccent
Encoding: 326 326 258
Width: 506
GlyphClass: 2
Flags: W
LayerCount: 2
Fore
SplineSet
410 511 m 0,0,1
 471 511 471 511 500.5 474.5 c 128,-1,2
 530 438 530 438 530 385.5 c 128,-1,3
 530 333 530 333 509 249 c 1,4,-1
 452 0 l 1,5,-1
 344 0 l 1,6,-1
 400 241 l 1,7,8
 418 325 418 325 418 355 c 128,-1,9
 418 385 418 385 406.5 401 c 128,-1,10
 395 417 395 417 369.5 417 c 128,-1,11
 344 417 344 417 314 396.5 c 128,-1,12
 284 376 284 376 264 355 c 2,13,-1
 245 334 l 1,14,-1
 168 0 l 1,15,-1
 60 0 l 1,16,-1
 175 500 l 1,17,-1
 279 500 l 1,18,-1
 268 434 l 1,19,20
 276 443 276 443 289 455.5 c 128,-1,21
 302 468 302 468 339.5 489.5 c 128,-1,22
 377 511 377 511 410 511 c 0,0,1
109 -298 m 1,23,-1
 202 -72 l 1,24,-1
 301 -72 l 1,25,-1
 199 -298 l 1,26,-1
 109 -298 l 1,23,-1
EndSplineSet
EndChar

StartChar: Ncaron
Encoding: 327 327 259
Width: 642
GlyphClass: 2
Flags: W
LayerCount: 2
Fore
SplineSet
680 926 m 1,0,-1
 522 781 l 1,1,-1
 449 781 l 1,2,-1
 354 926 l 1,3,-1
 461 926 l 1,4,-1
 503 858 l 1,5,-1
 573 926 l 1,6,-1
 680 926 l 1,0,-1
70 0 m 1,7,-1
 229 685 l 1,8,-1
 412 685 l 1,9,-1
 478 117 l 1,10,-1
 493 117 l 1,11,-1
 622 685 l 1,12,-1
 730 685 l 1,13,-1
 572 0 l 1,14,-1
 397 0 l 1,15,-1
 325 575 l 1,16,-1
 310 575 l 1,17,-1
 176 0 l 1,18,-1
 70 0 l 1,7,-1
EndSplineSet
Position2: "'cpsp' Capital Spacing in Latin lookup 0 subtable" dx=5 dy=0 dh=10 dv=0
EndChar

StartChar: ncaron
Encoding: 328 328 260
Width: 506
GlyphClass: 2
Flags: W
LayerCount: 2
Fore
SplineSet
410 511 m 0,0,1
 471 511 471 511 500.5 474.5 c 128,-1,2
 530 438 530 438 530 385.5 c 128,-1,3
 530 333 530 333 509 249 c 1,4,-1
 452 0 l 1,5,-1
 344 0 l 1,6,-1
 400 241 l 1,7,8
 418 325 418 325 418 355 c 128,-1,9
 418 385 418 385 406.5 401 c 128,-1,10
 395 417 395 417 369.5 417 c 128,-1,11
 344 417 344 417 314 396.5 c 128,-1,12
 284 376 284 376 264 355 c 2,13,-1
 245 334 l 1,14,-1
 168 0 l 1,15,-1
 60 0 l 1,16,-1
 175 500 l 1,17,-1
 279 500 l 1,18,-1
 268 434 l 1,19,20
 276 443 276 443 289 455.5 c 128,-1,21
 302 468 302 468 339.5 489.5 c 128,-1,22
 377 511 377 511 410 511 c 0,0,1
418 580 m 1,23,-1
 351 580 l 1,24,-1
 268 745 l 1,25,-1
 367 745 l 1,26,-1
 406 669 l 1,27,-1
 475 745 l 1,28,-1
 581 745 l 1,29,-1
 418 580 l 1,23,-1
EndSplineSet
EndChar

StartChar: Eng
Encoding: 330 330 261
Width: 642
GlyphClass: 2
Flags: W
LayerCount: 2
Fore
SplineSet
571 0 m 1,0,-1
 571 -3 l 1,1,2
 555 -73 555 -73 542.5 -107.5 c 128,-1,3
 530 -142 530 -142 504 -165.5 c 128,-1,4
 478 -189 478 -189 444 -194.5 c 128,-1,5
 410 -200 410 -200 345 -200 c 1,6,-1
 364 -102 l 1,7,8
 415 -101 415 -101 432.5 -84.5 c 128,-1,9
 450 -68 450 -68 465 0 c 1,10,-1
 397 0 l 1,11,-1
 325 575 l 1,12,-1
 310 575 l 1,13,-1
 176 0 l 1,14,-1
 70 0 l 1,15,-1
 229 685 l 1,16,-1
 412 685 l 1,17,-1
 478 117 l 1,18,-1
 492 117 l 1,19,-1
 622 685 l 1,20,-1
 730 685 l 1,21,-1
 572 0 l 1,22,-1
 571 0 l 1,0,-1
EndSplineSet
Position2: "'cpsp' Capital Spacing in Latin lookup 0 subtable" dx=5 dy=0 dh=10 dv=0
EndChar

StartChar: eng
Encoding: 331 331 262
Width: 498
GlyphClass: 2
Flags: W
LayerCount: 2
Fore
SplineSet
415 348 m 0,0,1
 415 409 415 409 360 409 c 0,2,3
 340 409 340 409 311 395 c 128,-1,4
 282 381 282 381 262 367 c 2,5,-1
 243 353 l 1,6,-1
 160 0 l 1,7,-1
 57 0 l 1,8,-1
 175 499 l 1,9,-1
 278 499 l 1,10,-1
 264 444 l 1,11,12
 343 510 343 510 403 510 c 0,13,14
 522 510 522 510 522 385 c 0,15,16
 522 335 522 335 504 260 c 2,17,-1
 443 4 l 2,18,19
 419 -93 419 -93 376 -142.5 c 128,-1,20
 333 -192 333 -192 225 -241 c 1,21,-1
 199 -148 l 1,22,23
 278 -107 278 -107 303 -80.5 c 128,-1,24
 328 -54 328 -54 342 7 c 2,25,-1
 402 260 l 2,26,27
 415 312 415 312 415 348 c 0,0,1
EndSplineSet
EndChar

StartChar: Omacron
Encoding: 332 332 263
Width: 620
GlyphClass: 2
Flags: W
LayerCount: 2
Fore
SplineSet
247 113.5 m 128,-1,1
 273 86 273 86 333 86 c 128,-1,2
 393 86 393 86 435 123 c 0,3,4
 491 173 491 173 523 276 c 128,-1,5
 555 379 555 379 555 479 c 0,6,7
 555 543 555 543 529 571 c 128,-1,8
 503 599 503 599 443.5 599 c 128,-1,9
 384 599 384 599 347 566 c 0,10,11
 289 513 289 513 255 406.5 c 128,-1,12
 221 300 221 300 221 220.5 c 128,-1,0
 221 141 221 141 247 113.5 c 128,-1,1
506 48 m 1,13,14
 430 -11 430 -11 322 -11 c 128,-1,15
 214 -11 214 -11 160 39 c 128,-1,16
 106 89 106 89 106 196 c 0,17,18
 106 326 106 326 146.5 443 c 128,-1,19
 187 560 187 560 264 627 c 1,20,21
 341 696 341 696 452 696 c 0,22,23
 670 696 670 696 670 489 c 0,24,25
 670 353 670 353 628.5 233 c 128,-1,26
 587 113 587 113 506 48 c 1,13,14
332 814 m 1,27,-1
 352 901 l 1,28,-1
 665 901 l 1,29,-1
 644 814 l 1,30,-1
 332 814 l 1,27,-1
EndSplineSet
Position2: "'cpsp' Capital Spacing in Latin lookup 0 subtable" dx=5 dy=0 dh=10 dv=0
EndChar

StartChar: omacron
Encoding: 333 333 264
Width: 495
GlyphClass: 2
Flags: W
LayerCount: 2
Fore
SplineSet
337 510 m 0,0,1
 524 510 524 510 524 330 c 0,2,3
 524 244 524 244 496 167.5 c 128,-1,4
 468 91 468 91 408.5 40 c 128,-1,5
 349 -11 349 -11 270 -11 c 0,6,7
 85 -11 85 -11 85 167 c 0,8,9
 85 253 85 253 115 330.5 c 128,-1,10
 145 408 145 408 204 459 c 128,-1,11
 263 510 263 510 337 510 c 0,0,1
270 81 m 0,12,13
 335 81 335 81 375.5 157 c 128,-1,14
 416 233 416 233 416 331 c 0,15,16
 416 372 416 372 396 395 c 128,-1,17
 376 418 376 418 337 418 c 0,18,19
 273 418 273 418 233 341 c 128,-1,20
 193 264 193 264 193 166 c 0,21,22
 193 81 193 81 270 81 c 0,12,13
233 632 m 1,23,-1
 253 720 l 1,24,-1
 548 720 l 1,25,-1
 527 632 l 1,26,-1
 233 632 l 1,23,-1
EndSplineSet
EndChar

StartChar: Obreve
Encoding: 334 334 265
Width: 620
GlyphClass: 2
Flags: W
LayerCount: 2
Fore
SplineSet
455 913 m 0,0,1
 455 874 455 874 501 874 c 0,2,3
 525 874 525 874 543.5 888 c 128,-1,4
 562 902 562 902 570 925 c 1,5,-1
 668 925 l 1,6,7
 624 788 624 788 483 788 c 0,8,9
 413 788 413 788 384.5 819 c 128,-1,10
 356 850 356 850 356 895 c 0,11,12
 356 909 356 909 358 925 c 1,13,-1
 456 925 l 1,14,15
 455 918 455 918 455 913 c 0,0,1
247 113.5 m 128,-1,17
 273 86 273 86 333 86 c 128,-1,18
 393 86 393 86 435 123 c 0,19,20
 491 173 491 173 523 276 c 128,-1,21
 555 379 555 379 555 479 c 0,22,23
 555 543 555 543 529 571 c 128,-1,24
 503 599 503 599 443.5 599 c 128,-1,25
 384 599 384 599 347 566 c 0,26,27
 289 513 289 513 255 406.5 c 128,-1,28
 221 300 221 300 221 220.5 c 128,-1,16
 221 141 221 141 247 113.5 c 128,-1,17
506 48 m 1,29,30
 430 -11 430 -11 322 -11 c 128,-1,31
 214 -11 214 -11 160 39 c 128,-1,32
 106 89 106 89 106 196 c 0,33,34
 106 326 106 326 146.5 443 c 128,-1,35
 187 560 187 560 264 627 c 1,36,37
 341 696 341 696 452 696 c 0,38,39
 670 696 670 696 670 489 c 0,40,41
 670 353 670 353 628.5 233 c 128,-1,42
 587 113 587 113 506 48 c 1,29,30
EndSplineSet
Position2: "'cpsp' Capital Spacing in Latin lookup 0 subtable" dx=5 dy=0 dh=10 dv=0
EndChar

StartChar: obreve
Encoding: 335 335 266
Width: 495
GlyphClass: 2
Flags: W
LayerCount: 2
Fore
SplineSet
337 510 m 0,0,1
 524 510 524 510 524 330 c 0,2,3
 524 244 524 244 496 167.5 c 128,-1,4
 468 91 468 91 408.5 40 c 128,-1,5
 349 -11 349 -11 270 -11 c 0,6,7
 85 -11 85 -11 85 167 c 0,8,9
 85 253 85 253 115 330.5 c 128,-1,10
 145 408 145 408 204 459 c 128,-1,11
 263 510 263 510 337 510 c 0,0,1
270 81 m 0,12,13
 335 81 335 81 375.5 157 c 128,-1,14
 416 233 416 233 416 331 c 0,15,16
 416 372 416 372 396 395 c 128,-1,17
 376 418 376 418 337 418 c 0,18,19
 273 418 273 418 233 341 c 128,-1,20
 193 264 193 264 193 166 c 0,21,22
 193 81 193 81 270 81 c 0,12,13
338 739 m 1,23,24
 337 732 337 732 337 720.5 c 128,-1,25
 337 709 337 709 347 695 c 128,-1,26
 357 681 357 681 388 681 c 0,27,28
 447 681 447 681 466 739 c 1,29,-1
 563 739 l 1,30,31
 515 591 515 591 361 591 c 0,32,33
 290 591 290 591 260 630 c 0,34,35
 238 658 238 658 238 703 c 0,36,37
 238 720 238 720 241 739 c 1,38,-1
 338 739 l 1,23,24
EndSplineSet
EndChar

StartChar: Ohungarumlaut
Encoding: 336 336 267
Width: 620
GlyphClass: 2
Flags: W
LayerCount: 2
Fore
SplineSet
603 753 m 1,0,-1
 529 789 l 1,1,-1
 662 958 l 1,2,-1
 745 919 l 1,3,-1
 603 753 l 1,0,-1
405 754 m 1,4,-1
 330 789 l 1,5,-1
 465 959 l 1,6,-1
 547 920 l 1,7,-1
 405 754 l 1,4,-1
247 113.5 m 128,-1,9
 273 86 273 86 333 86 c 128,-1,10
 393 86 393 86 435 123 c 0,11,12
 491 173 491 173 523 276 c 128,-1,13
 555 379 555 379 555 479 c 0,14,15
 555 543 555 543 529 571 c 128,-1,16
 503 599 503 599 443.5 599 c 128,-1,17
 384 599 384 599 347 566 c 0,18,19
 289 513 289 513 255 406.5 c 128,-1,20
 221 300 221 300 221 220.5 c 128,-1,8
 221 141 221 141 247 113.5 c 128,-1,9
506 48 m 1,21,22
 430 -11 430 -11 322 -11 c 128,-1,23
 214 -11 214 -11 160 39 c 128,-1,24
 106 89 106 89 106 196 c 0,25,26
 106 326 106 326 146.5 443 c 128,-1,27
 187 560 187 560 264 627 c 1,28,29
 341 696 341 696 452 696 c 0,30,31
 670 696 670 696 670 489 c 0,32,33
 670 353 670 353 628.5 233 c 128,-1,34
 587 113 587 113 506 48 c 1,21,22
EndSplineSet
Position2: "'cpsp' Capital Spacing in Latin lookup 0 subtable" dx=5 dy=0 dh=10 dv=0
EndChar

StartChar: ohungarumlaut
Encoding: 337 337 268
Width: 495
GlyphClass: 2
Flags: W
LayerCount: 2
Fore
SplineSet
337 510 m 0,0,1
 524 510 524 510 524 330 c 0,2,3
 524 244 524 244 496 167.5 c 128,-1,4
 468 91 468 91 408.5 40 c 128,-1,5
 349 -11 349 -11 270 -11 c 0,6,7
 85 -11 85 -11 85 167 c 0,8,9
 85 253 85 253 115 330.5 c 128,-1,10
 145 408 145 408 204 459 c 128,-1,11
 263 510 263 510 337 510 c 0,0,1
270 81 m 0,12,13
 335 81 335 81 375.5 157 c 128,-1,14
 416 233 416 233 416 331 c 0,15,16
 416 372 416 372 396 395 c 128,-1,17
 376 418 376 418 337 418 c 0,18,19
 273 418 273 418 233 341 c 128,-1,20
 193 264 193 264 193 166 c 0,21,22
 193 81 193 81 270 81 c 0,12,13
459 571 m 1,23,-1
 396 626 l 1,24,-1
 558 794 l 1,25,-1
 627 737 l 1,26,-1
 459 571 l 1,23,-1
270 571 m 1,27,-1
 208 626 l 1,28,-1
 369 793 l 1,29,-1
 438 737 l 1,30,-1
 270 571 l 1,27,-1
EndSplineSet
EndChar

StartChar: OE
Encoding: 338 338 269
Width: 843
GlyphClass: 2
Flags: W
LayerCount: 2
Fore
SplineSet
286 -11 m 0,0,1
 194 -11 194 -11 149 31 c 0,2,3
 100 77 100 77 100 173 c 0,4,5
 100 247 100 247 123 345 c 0,6,7
 167 529 167 529 247 616.5 c 128,-1,8
 327 704 327 704 454 704 c 0,9,10
 506 704 506 704 572 693 c 1,11,-1
 968 693 l 1,12,-1
 944 586 l 1,13,-1
 651 586 l 1,14,-1
 605 396 l 1,15,-1
 840 396 l 1,16,-1
 817 294 l 1,17,-1
 582 296 l 1,18,-1
 537 107 l 1,19,-1
 829 107 l 1,20,-1
 804 0 l 1,21,-1
 411 0 l 1,22,23
 338 -11 338 -11 286 -11 c 0,0,1
324 96 m 0,24,25
 350 96 350 96 432 103 c 1,26,-1
 548 590 l 1,27,28
 491 596 491 596 442 596 c 0,29,30
 360 596 360 596 312.5 538.5 c 128,-1,31
 265 481 265 481 232 346 c 1,32,33
 211 252 211 252 211 200 c 128,-1,34
 211 148 211 148 237.5 122 c 128,-1,35
 264 96 264 96 324 96 c 0,24,25
EndSplineSet
Position2: "'cpsp' Capital Spacing in Latin lookup 0 subtable" dx=5 dy=0 dh=10 dv=0
EndChar

StartChar: oe
Encoding: 339 339 270
Width: 776
GlyphClass: 2
Flags: W
LayerCount: 2
Fore
SplineSet
719 94 m 1,0,-1
 747 97 l 1,1,-1
 728 12 l 1,2,3
 633 -11 633 -11 536.5 -11 c 128,-1,4
 440 -11 440 -11 408 53 c 1,5,6
 346 -11 346 -11 242 -11 c 0,7,8
 97 -11 97 -11 84 107 c 0,9,10
 82 126 82 126 82 160.5 c 128,-1,11
 82 195 82 195 95 253 c 1,12,13
 126 378 126 378 186 444 c 128,-1,14
 246 510 246 510 358 510 c 128,-1,15
 470 510 470 510 502 439 c 1,16,17
 564 510 564 510 667 510 c 0,18,19
 810 510 810 510 819 385 c 0,20,21
 820 373 820 373 820 346 c 128,-1,22
 820 319 820 319 808 280 c 2,23,-1
 784 203 l 1,24,-1
 499 205 l 1,25,26
 492 179 492 179 492 165 c 128,-1,27
 492 151 492 151 493 145 c 0,28,29
 499 88 499 88 572.5 88 c 128,-1,30
 646 88 646 88 719 94 c 1,0,-1
375 162 m 0,31,32
 393 200 393 200 405.5 249.5 c 128,-1,33
 418 299 418 299 418 319.5 c 128,-1,34
 418 340 418 340 417 348 c 0,35,36
 413 413 413 413 342 413 c 0,37,38
 284 413 284 413 251.5 373 c 128,-1,39
 219 333 219 333 203 263.5 c 128,-1,40
 187 194 187 194 187 171 c 128,-1,41
 187 148 187 148 188 140 c 0,42,43
 194 86 194 86 267.5 86 c 128,-1,44
 341 86 341 86 375 162 c 0,31,32
708 287 m 1,45,46
 717 330 717 330 717 344 c 0,47,48
 717 386 717 386 699.5 398.5 c 128,-1,49
 682 411 682 411 638.5 411 c 128,-1,50
 595 411 595 411 563.5 381.5 c 128,-1,51
 532 352 532 352 518 289 c 1,52,-1
 708 287 l 1,45,46
EndSplineSet
EndChar

StartChar: Racute
Encoding: 340 340 271
Width: 561
GlyphClass: 2
Flags: W
LayerCount: 2
Fore
SplineSet
580.5 338.5 m 128,-1,1
 533 273 533 273 465 250 c 1,2,-1
 529 0 l 1,3,-1
 418 0 l 1,4,-1
 362 235 l 1,5,-1
 236 235 l 1,6,-1
 182 0 l 1,7,-1
 70 0 l 1,8,-1
 229 685 l 1,9,-1
 432 685 l 2,10,11
 532 685 532 685 580 642 c 128,-1,12
 628 599 628 599 628 501.5 c 128,-1,0
 628 404 628 404 580.5 338.5 c 128,-1,1
493 568.5 m 128,-1,14
 473 589 473 589 424 589 c 2,15,-1
 318 589 l 1,16,-1
 258 331 l 1,17,-1
 373 331 l 2,18,19
 437 331 437 331 475 379 c 128,-1,20
 513 427 513 427 513 487.5 c 128,-1,13
 513 548 513 548 493 568.5 c 128,-1,14
342 774 m 1,21,-1
 333 859 l 1,22,-1
 581 951 l 1,23,-1
 591 854 l 1,24,-1
 342 774 l 1,21,-1
EndSplineSet
Position2: "'cpsp' Capital Spacing in Latin lookup 0 subtable" dx=5 dy=0 dh=10 dv=0
EndChar

StartChar: racute
Encoding: 341 341 272
Width: 326
GlyphClass: 2
Flags: W
LayerCount: 2
Fore
SplineSet
60 0 m 1,0,-1
 175 500 l 1,1,-1
 282 500 l 1,2,-1
 265 427 l 1,3,4
 299 454 299 454 347.5 479.5 c 128,-1,5
 396 505 396 505 432 511 c 1,6,-1
 401 399 l 1,7,8
 356 386 356 386 272 346 c 1,9,-1
 246 334 l 1,10,-1
 168 0 l 1,11,-1
 60 0 l 1,0,-1
194 585 m 1,12,-1
 185 671 l 1,13,-1
 433 763 l 1,14,-1
 442 666 l 1,15,-1
 194 585 l 1,12,-1
EndSplineSet
EndChar

StartChar: Rcommaaccent
Encoding: 342 342 273
Width: 561
GlyphClass: 2
Flags: W
LayerCount: 2
Fore
SplineSet
146 -298 m 1,0,-1
 239 -72 l 1,1,-1
 338 -72 l 1,2,-1
 236 -298 l 1,3,-1
 146 -298 l 1,0,-1
432 685 m 2,4,5
 532 685 532 685 580 642 c 128,-1,6
 628 599 628 599 628 501.5 c 128,-1,7
 628 404 628 404 580.5 338.5 c 128,-1,8
 533 273 533 273 465 250 c 1,9,-1
 529 0 l 1,10,-1
 418 0 l 1,11,-1
 362 235 l 1,12,-1
 236 235 l 1,13,-1
 182 0 l 1,14,-1
 70 0 l 1,15,-1
 229 685 l 1,16,-1
 432 685 l 2,4,5
475 379 m 128,-1,18
 513 427 513 427 513 487.5 c 128,-1,19
 513 548 513 548 493 568.5 c 128,-1,20
 473 589 473 589 424 589 c 2,21,-1
 318 589 l 1,22,-1
 258 331 l 1,23,-1
 373 331 l 2,24,17
 437 331 437 331 475 379 c 128,-1,18
EndSplineSet
Position2: "'cpsp' Capital Spacing in Latin lookup 0 subtable" dx=5 dy=0 dh=10 dv=0
EndChar

StartChar: rcommaaccent
Encoding: 343 343 274
Width: 326
GlyphClass: 2
Flags: W
LayerCount: 2
Fore
SplineSet
60 0 m 1,0,-1
 175 500 l 1,1,-1
 282 500 l 1,2,-1
 265 427 l 1,3,4
 299 454 299 454 347.5 479.5 c 128,-1,5
 396 505 396 505 432 511 c 1,6,-1
 401 399 l 1,7,8
 356 386 356 386 272 346 c 1,9,-1
 246 334 l 1,10,-1
 168 0 l 1,11,-1
 60 0 l 1,0,-1
56 -72 m 1,12,-1
 155 -72 l 1,13,-1
 53 -298 l 1,14,-1
 -37 -298 l 1,15,-1
 56 -72 l 1,12,-1
EndSplineSet
EndChar

StartChar: Rcaron
Encoding: 344 344 275
Width: 561
GlyphClass: 2
Flags: W
LayerCount: 2
Fore
SplineSet
621 927 m 1,0,-1
 463 782 l 1,1,-1
 390 782 l 1,2,-1
 295 927 l 1,3,-1
 402 927 l 1,4,-1
 444 859 l 1,5,-1
 514 927 l 1,6,-1
 621 927 l 1,0,-1
580.5 338.5 m 128,-1,8
 533 273 533 273 465 250 c 1,9,-1
 529 0 l 1,10,-1
 418 0 l 1,11,-1
 362 235 l 1,12,-1
 236 235 l 1,13,-1
 182 0 l 1,14,-1
 70 0 l 1,15,-1
 229 685 l 1,16,-1
 432 685 l 2,17,18
 532 685 532 685 580 642 c 128,-1,19
 628 599 628 599 628 501.5 c 128,-1,7
 628 404 628 404 580.5 338.5 c 128,-1,8
493 568.5 m 128,-1,21
 473 589 473 589 424 589 c 2,22,-1
 318 589 l 1,23,-1
 258 331 l 1,24,-1
 373 331 l 2,25,26
 437 331 437 331 475 379 c 128,-1,27
 513 427 513 427 513 487.5 c 128,-1,20
 513 548 513 548 493 568.5 c 128,-1,21
EndSplineSet
Position2: "'cpsp' Capital Spacing in Latin lookup 0 subtable" dx=5 dy=0 dh=10 dv=0
EndChar

StartChar: rcaron
Encoding: 345 345 276
Width: 326
GlyphClass: 2
Flags: W
LayerCount: 2
Fore
SplineSet
60 0 m 1,0,-1
 175 500 l 1,1,-1
 282 500 l 1,2,-1
 265 427 l 1,3,4
 299 454 299 454 347.5 479.5 c 128,-1,5
 396 505 396 505 432 511 c 1,6,-1
 401 399 l 1,7,8
 356 386 356 386 272 346 c 1,9,-1
 246 334 l 1,10,-1
 168 0 l 1,11,-1
 60 0 l 1,0,-1
328 580 m 1,12,-1
 261 580 l 1,13,-1
 178 745 l 1,14,-1
 277 745 l 1,15,-1
 316 669 l 1,16,-1
 385 745 l 1,17,-1
 491 745 l 1,18,-1
 328 580 l 1,12,-1
EndSplineSet
EndChar

StartChar: Sacute
Encoding: 346 346 277
Width: 497
GlyphClass: 2
Flags: W
LayerCount: 2
Fore
SplineSet
568 583 m 1,0,1
 460 601 460 601 396 601 c 128,-1,2
 332 601 332 601 299 571 c 128,-1,3
 266 541 266 541 266 487 c 0,4,5
 266 453 266 453 285.5 436.5 c 128,-1,6
 305 420 305 420 379.5 390 c 128,-1,7
 454 360 454 360 482.5 326 c 128,-1,8
 511 292 511 292 511 226 c 0,9,10
 511 113 511 113 442.5 51 c 128,-1,11
 374 -11 374 -11 257 -11 c 0,12,13
 212 -11 212 -11 161 -2.5 c 128,-1,14
 110 6 110 6 82 15 c 2,15,-1
 53 24 l 1,16,-1
 71 105 l 1,17,18
 186 86 186 86 258 86 c 0,19,20
 397 86 397 86 397 213 c 0,21,22
 397 248 397 248 378 264.5 c 128,-1,23
 359 281 359 281 287.5 310 c 128,-1,24
 216 339 216 339 184.5 374.5 c 128,-1,25
 153 410 153 410 153 475 c 0,26,27
 153 574 153 574 217 635 c 128,-1,28
 281 696 281 696 389 696 c 0,29,30
 434 696 434 696 483.5 688 c 128,-1,31
 533 680 533 680 560 672 c 2,32,-1
 588 663 l 1,33,-1
 568 583 l 1,0,1
344 774 m 1,34,-1
 335 859 l 1,35,-1
 583 951 l 1,36,-1
 593 854 l 1,37,-1
 344 774 l 1,34,-1
EndSplineSet
Position2: "'cpsp' Capital Spacing in Latin lookup 0 subtable" dx=5 dy=0 dh=10 dv=0
EndChar

StartChar: sacute
Encoding: 347 347 278
Width: 431
GlyphClass: 2
Flags: W
LayerCount: 2
Fore
SplineSet
306 418 m 0,0,1
 267 418 267 418 244.5 398 c 128,-1,2
 222 378 222 378 222 353 c 128,-1,3
 222 328 222 328 238 318 c 128,-1,4
 254 308 254 308 297 295.5 c 128,-1,5
 340 283 340 283 360 275 c 128,-1,6
 380 267 380 267 400 254 c 0,7,8
 436 231 436 231 436 175 c 0,9,10
 436 84 436 84 375 36.5 c 128,-1,11
 314 -11 314 -11 215 -11 c 0,12,13
 139 -11 139 -11 70 11 c 2,14,-1
 48 18 l 1,15,-1
 68 99 l 1,16,17
 163 81 163 81 219 81 c 0,18,19
 326 81 326 81 326 154 c 0,20,21
 326 173 326 173 310 182 c 128,-1,22
 294 191 294 191 236.5 206 c 128,-1,23
 179 221 179 221 146 246.5 c 128,-1,24
 113 272 113 272 113 321 c 0,25,26
 113 408 113 408 172 459 c 128,-1,27
 231 510 231 510 317 510 c 0,28,29
 400 510 400 510 468 490 c 1,30,-1
 490 484 l 1,31,-1
 470 403 l 1,32,33
 371 418 371 418 306 418 c 0,0,1
265 585 m 1,34,-1
 256 671 l 1,35,-1
 504 763 l 1,36,-1
 513 666 l 1,37,-1
 265 585 l 1,34,-1
EndSplineSet
EndChar

StartChar: Scircumflex
Encoding: 348 348 279
Width: 497
GlyphClass: 2
Flags: W
LayerCount: 2
Fore
SplineSet
568 583 m 1,0,1
 460 601 460 601 396 601 c 128,-1,2
 332 601 332 601 299 571 c 128,-1,3
 266 541 266 541 266 487 c 0,4,5
 266 453 266 453 285.5 436.5 c 128,-1,6
 305 420 305 420 379.5 390 c 128,-1,7
 454 360 454 360 482.5 326 c 128,-1,8
 511 292 511 292 511 226 c 0,9,10
 511 113 511 113 442.5 51 c 128,-1,11
 374 -11 374 -11 257 -11 c 0,12,13
 212 -11 212 -11 161 -2.5 c 128,-1,14
 110 6 110 6 82 15 c 2,15,-1
 53 24 l 1,16,-1
 71 105 l 1,17,18
 186 86 186 86 258 86 c 0,19,20
 397 86 397 86 397 213 c 0,21,22
 397 248 397 248 378 264.5 c 128,-1,23
 359 281 359 281 287.5 310 c 128,-1,24
 216 339 216 339 184.5 374.5 c 128,-1,25
 153 410 153 410 153 475 c 0,26,27
 153 574 153 574 217 635 c 128,-1,28
 281 696 281 696 389 696 c 0,29,30
 434 696 434 696 483.5 688 c 128,-1,31
 533 680 533 680 560 672 c 2,32,-1
 588 663 l 1,33,-1
 568 583 l 1,0,1
260 785 m 1,34,-1
 430 931 l 1,35,-1
 493 931 l 1,36,-1
 589 785 l 1,37,-1
 490 785 l 1,38,-1
 452 851 l 1,39,-1
 375 785 l 1,40,-1
 260 785 l 1,34,-1
EndSplineSet
Position2: "'cpsp' Capital Spacing in Latin lookup 0 subtable" dx=5 dy=0 dh=10 dv=0
EndChar

StartChar: scircumflex
Encoding: 349 349 280
Width: 431
GlyphClass: 2
Flags: W
LayerCount: 2
Fore
SplineSet
306 418 m 0,0,1
 267 418 267 418 244.5 398 c 128,-1,2
 222 378 222 378 222 353 c 128,-1,3
 222 328 222 328 238 318 c 128,-1,4
 254 308 254 308 297 295.5 c 128,-1,5
 340 283 340 283 360 275 c 128,-1,6
 380 267 380 267 400 254 c 0,7,8
 436 231 436 231 436 175 c 0,9,10
 436 84 436 84 375 36.5 c 128,-1,11
 314 -11 314 -11 215 -11 c 0,12,13
 139 -11 139 -11 70 11 c 2,14,-1
 48 18 l 1,15,-1
 68 99 l 1,16,17
 163 81 163 81 219 81 c 0,18,19
 326 81 326 81 326 154 c 0,20,21
 326 173 326 173 310 182 c 128,-1,22
 294 191 294 191 236.5 206 c 128,-1,23
 179 221 179 221 146 246.5 c 128,-1,24
 113 272 113 272 113 321 c 0,25,26
 113 408 113 408 172 459 c 128,-1,27
 231 510 231 510 317 510 c 0,28,29
 400 510 400 510 468 490 c 1,30,-1
 490 484 l 1,31,-1
 470 403 l 1,32,33
 371 418 371 418 306 418 c 0,0,1
194 580 m 1,34,-1
 356 745 l 1,35,-1
 419 745 l 1,36,-1
 505 580 l 1,37,-1
 406 580 l 1,38,-1
 371 654 l 1,39,-1
 300 580 l 1,40,-1
 194 580 l 1,34,-1
EndSplineSet
EndChar

